<svg width="16" height="14" viewBox="0 0 16 14" fill="none" xmlns="http://www.w3.org/2000/svg">
<path d="M13.5129 1.04021C13.7894 0.776983 14.1573 0.631462 14.5391 0.63435C14.9208 0.637238 15.2865 0.788312 15.559 1.05569C15.8315 1.32307 15.9894 1.68584 15.9995 2.06746C16.0096 2.44907 15.871 2.81969 15.6131 3.10109L7.78171 12.8952C7.64705 13.0402 7.48452 13.1566 7.30384 13.2374C7.12317 13.3182 6.92805 13.3617 6.73017 13.3654C6.53229 13.3691 6.3357 13.3328 6.15215 13.2587C5.96861 13.1847 5.80188 13.0744 5.66194 12.9344L0.468524 7.74102C0.323895 7.60625 0.207893 7.44374 0.127436 7.26317C0.0469793 7.08259 0.00371646 6.88767 0.000229091 6.69001C-0.00325828 6.49236 0.0331013 6.29603 0.107138 6.11273C0.181175 5.92943 0.291372 5.76293 0.431156 5.62314C0.570941 5.48336 0.737448 5.37316 0.920745 5.29912C1.10404 5.22509 1.30037 5.18873 1.49803 5.19221C1.69568 5.1957 1.89061 5.23897 2.07118 5.31942C2.25175 5.39988 2.41427 5.51588 2.54903 5.66051L6.65902 9.76853L13.4756 1.08339C13.4879 1.06828 13.501 1.05386 13.5149 1.04021H13.5129Z" fill="#93C90F"/>
</svg>
