<svg width="33" height="33" viewBox="0 0 33 33" fill="none" xmlns="http://www.w3.org/2000/svg">
<path d="M21.0644 11.5646L16.6864 15.943L12.3085 11.5646C12.2032 11.4682 12.0648 11.4162 11.9221 11.4193C11.7794 11.4225 11.6434 11.4806 11.5425 11.5815C11.4416 11.6825 11.3835 11.8185 11.3803 11.9612C11.3771 12.1039 11.4292 12.2423 11.5255 12.3476L15.9012 16.726L11.5244 21.1033C11.4709 21.1543 11.4282 21.2155 11.3987 21.2832C11.3692 21.3509 11.3535 21.4238 11.3526 21.4977C11.3517 21.5716 11.3655 21.6449 11.3933 21.7133C11.4212 21.7818 11.4624 21.8439 11.5146 21.8962C11.5668 21.9485 11.6289 21.9898 11.6973 22.0177C11.7657 22.0456 11.8389 22.0596 11.9128 22.0588C11.9867 22.058 12.0596 22.0424 12.1274 22.013C12.1951 21.9836 12.2563 21.9409 12.3074 21.8875L16.6864 17.5102L21.0644 21.8886C21.1697 21.985 21.3081 22.037 21.4508 22.0338C21.5935 22.0307 21.7295 21.9726 21.8304 21.8716C21.9313 21.7707 21.9894 21.6347 21.9926 21.492C21.9957 21.3493 21.9437 21.2109 21.8473 21.1056L17.4694 16.7272L21.8473 12.3476C21.9008 12.2967 21.9436 12.2355 21.9731 12.1678C22.0026 12.1001 22.0182 12.0271 22.0192 11.9533C22.0201 11.8794 22.0062 11.8061 21.9784 11.7377C21.9506 11.6692 21.9094 11.607 21.8572 11.5548C21.805 11.5025 21.7429 11.4612 21.6745 11.4333C21.6061 11.4053 21.5328 11.3914 21.4589 11.3922C21.3851 11.393 21.3121 11.4086 21.2444 11.438C21.1766 11.4674 21.1154 11.5101 21.0644 11.5635V11.5646Z" fill="black"/>
<circle cx="16.686" cy="16.7255" r="15.2586" stroke="black" stroke-width="1.48284"/>
</svg>
