<svg width="49" height="49" viewBox="0 0 49 49" fill="none" xmlns="http://www.w3.org/2000/svg">
<path fill-rule="evenodd" clip-rule="evenodd" d="M24.2777 0.764648C10.6033 0.764648 0 10.6698 0 24.0426C0 31.038 2.90118 37.0854 7.62319 41.2611C8.01771 41.609 8.26048 42.101 8.27262 42.6289L8.40615 46.9006C8.44863 48.2624 9.86888 49.1504 11.1313 48.5984L15.9504 46.4986C16.3571 46.3186 16.8184 46.2886 17.2493 46.4026C19.4646 47.0026 21.8196 47.3265 24.2777 47.3265C37.9521 47.3265 48.5554 37.4214 48.5554 24.0486C48.5554 10.6758 37.9521 0.764648 24.2777 0.764648Z" fill="url(#paint0_radial_67_436)"/>
<path fill-rule="evenodd" clip-rule="evenodd" d="M9.6993 30.8521L16.8309 19.6691C17.9659 17.8873 20.3936 17.4493 22.0991 18.7092L27.774 22.9148C28.296 23.2988 29.0122 23.2988 29.5281 22.9088L37.1877 17.1613C38.2074 16.3934 39.5427 17.6053 38.8629 18.6792L31.7252 29.8562C30.5903 31.6381 28.1625 32.076 26.457 30.8161L20.7821 26.6105C20.2601 26.2265 19.5439 26.2265 19.028 26.6165L11.3684 32.364C10.3487 33.1319 9.01346 31.926 9.6993 30.8521Z" fill="white"/>
<defs>
<radialGradient id="paint0_radial_67_436" cx="0" cy="0" r="1" gradientUnits="userSpaceOnUse" gradientTransform="translate(9.34691 48.5078) scale(52.9059 52.2962)">
<stop stop-color="#0099FF"/>
<stop offset="0.6098" stop-color="#A033FF"/>
<stop offset="0.9348" stop-color="#FF5280"/>
<stop offset="1" stop-color="#FF7061"/>
</radialGradient>
</defs>
</svg>
