<svg width="37" height="37" viewBox="0 0 37 37" fill="none" xmlns="http://www.w3.org/2000/svg">
<path d="M18.2754 36.9706C28.2165 36.9706 36.2754 28.9117 36.2754 18.9706C36.2754 9.02948 28.2165 0.970612 18.2754 0.970612C8.33426 0.970612 0.275391 9.02948 0.275391 18.9706C0.275391 28.9117 8.33426 36.9706 18.2754 36.9706Z" fill="url(#paint0_linear_61_647)"/>
<path d="M25.5503 10.8969L7.49825 17.9782C7.49825 17.9782 6.64474 18.2696 6.71066 18.8109C6.77658 19.3487 7.47396 19.5985 7.47396 19.5985L12.0156 21.1285L22.9204 14.2033C22.9204 14.2033 23.5484 13.8217 23.5275 14.2033C23.5275 14.2033 23.6386 14.2693 23.302 14.585C22.962 14.9007 14.7357 22.2943 14.7357 22.2943L14.7184 22.4331L22.1293 28.1162C23.3645 28.6575 23.8155 27.5333 23.8155 27.5333L27.0318 11.3236C27.0318 10.2446 25.5503 10.8969 25.5503 10.8969Z" fill="white"/>
<defs>
<linearGradient id="paint0_linear_61_647" x1="18.2754" y1="0.971677" x2="18.2754" y2="36.8382" gradientUnits="userSpaceOnUse">
<stop stop-color="#42BDE9"/>
<stop offset="1" stop-color="#23A8DD"/>
</linearGradient>
</defs>
</svg>
