<svg width="48" height="49" viewBox="0 0 48 49" fill="none" xmlns="http://www.w3.org/2000/svg">
<path d="M0 48.3137L3.39064 35.9884C1.29887 32.3811 0.198501 28.2889 0.200169 24.0976C0.20573 10.9835 10.927 0.313721 24.1004 0.313721C30.4941 0.316488 36.4947 2.79351 41.0063 7.28924C45.519 11.785 48.0028 17.7608 48 24.1158C47.9944 37.2305 37.2726 47.9008 24.1009 47.9008C24.0998 47.9008 24.1015 47.9008 24.1009 47.9008H24.0904C20.0903 47.8997 16.1603 46.9 12.6696 45.0059L0 48.3137Z" fill="url(#paint0_linear_67_428)"/>
<path fill-rule="evenodd" clip-rule="evenodd" d="M17.9165 13.7904C17.4534 12.7648 16.9652 12.7443 16.5243 12.7266C16.164 12.7111 15.7508 12.7122 15.3388 12.7122C14.9262 12.7122 14.2562 12.8666 13.6891 13.4827C13.1219 14.0988 11.5239 15.5888 11.5239 18.6183C11.5239 21.6483 13.7408 24.5759 14.0499 24.9871C14.3591 25.3979 18.3297 31.8138 24.6172 34.2825C29.8427 36.3338 30.9059 35.9259 32.0401 35.8229C33.1744 35.7205 35.6999 34.3334 36.2153 32.8953C36.7308 31.4578 36.7308 30.2251 36.5762 29.9678C36.4216 29.7109 36.0091 29.557 35.3902 29.2493C34.7713 28.9415 31.7304 27.4514 31.1633 27.2461C30.5961 27.0407 30.1836 26.9383 29.771 27.5549C29.3584 28.171 28.1735 29.5576 27.8127 29.9683C27.4518 30.3796 27.091 30.4311 26.4721 30.1233C25.8533 29.8144 23.861 29.1646 21.4974 27.0667C19.6586 25.4344 18.417 23.419 18.0561 22.8024C17.6952 22.1863 18.0172 21.8531 18.328 21.5459C18.606 21.2702 18.9469 20.8268 19.256 20.4676C19.5646 20.1078 19.668 19.8515 19.8738 19.4408C20.08 19.0296 19.9766 18.6698 19.822 18.362C19.6675 18.0542 18.4665 15.0082 17.9165 13.7904Z" fill="white"/>
<defs>
<linearGradient id="paint0_linear_67_428" x1="24.0002" y1="48.3136" x2="24.0002" y2="0.313643" gradientUnits="userSpaceOnUse">
<stop stop-color="#20B038"/>
<stop offset="1" stop-color="#60D66A"/>
</linearGradient>
</defs>
</svg>
