<svg width="48" height="49" viewBox="0 0 48 49" fill="none" xmlns="http://www.w3.org/2000/svg">
<path d="M24 48.4902C37.2548 48.4902 48 37.7451 48 24.4902C48 11.2354 37.2548 0.490234 24 0.490234C10.7452 0.490234 0 11.2354 0 24.4902C0 37.7451 10.7452 48.4902 24 48.4902Z" fill="url(#paint0_linear_67_441)"/>
<path fill-rule="evenodd" clip-rule="evenodd" d="M20.467 33.2705C19.3735 33.3788 18.2733 33.1452 17.3181 32.6019C16.3629 32.0585 15.5997 31.2323 15.1339 30.237C15.8993 30.2876 16.6664 30.1675 17.3797 29.8853C17.3968 29.8828 17.4115 29.8613 17.4455 29.8356C16.7247 29.7755 16.0239 29.5681 15.3865 29.2263C14.749 28.8844 14.1886 28.4154 13.7397 27.8482C13.1191 27.0753 12.7343 26.1399 12.6316 25.1541C13.3965 25.4571 14.2221 25.576 15.0415 25.5013C13.8542 24.8834 12.942 23.8427 12.485 22.5848C12.019 21.3292 12.0516 19.9428 12.5761 18.7106C14.0981 20.1649 15.9071 21.2853 17.8873 21.9999C19.8674 22.7145 21.975 23.0076 24.0749 22.8604C24.0211 22.6566 23.9612 22.4814 23.9194 22.2892C23.6127 21.109 23.7346 19.8582 24.2635 18.7594C24.5692 18.0801 25.0205 17.4763 25.5854 16.9907C26.1502 16.5051 26.8149 16.1495 27.5324 15.9492C28.3413 15.6964 29.1998 15.646 30.0326 15.8025C30.8655 15.9589 31.6472 16.3174 32.3091 16.8465C32.3481 16.8809 32.396 16.9034 32.4473 16.9117C32.4986 16.9199 32.5512 16.9134 32.5989 16.893C33.6432 16.5298 34.6253 16.0078 35.5106 15.3453L35.5764 15.2957L35.6124 15.2909C35.3625 16.5216 34.6942 17.6278 33.7211 18.4216C34.7154 18.1858 35.6677 17.7994 36.5451 17.2757C36.5546 17.2819 36.5617 17.2912 36.565 17.302C36.3992 17.5889 36.2335 17.8825 36.0582 18.1611C35.5847 18.9124 35.0176 19.6005 34.3705 20.2088C34.3424 20.2282 34.3204 20.2552 34.307 20.2867C34.2935 20.3181 34.2893 20.3527 34.2946 20.3865C34.4207 21.1623 34.4837 21.9471 34.4831 22.7331C34.4827 24.374 34.2256 26.0047 33.7212 27.566C33.1992 29.1817 32.4115 30.6991 31.3905 32.0558C29.6928 34.3268 27.3535 36.037 24.6745 36.9656C23.7369 37.2856 22.7731 37.5226 21.794 37.6739C18.8459 38.1457 15.8241 37.725 13.117 36.4659C13.0795 36.4528 13.0487 36.4279 12.9794 36.3976C14.7887 36.3858 16.5654 35.9148 18.143 35.0289C19.0014 34.5593 19.7866 33.9669 20.4739 33.2705L20.467 33.2705Z" fill="white"/>
<defs>
<linearGradient id="paint0_linear_67_441" x1="24" y1="0.490234" x2="24" y2="48.4902" gradientUnits="userSpaceOnUse">
<stop stop-color="#74D1FF"/>
<stop offset="1" stop-color="#00A2F2"/>
</linearGradient>
</defs>
</svg>
