<svg xmlns="http://www.w3.org/2000/svg" xmlns:xlink="http://www.w3.org/1999/xlink" width="55" height="55" viewBox="0 0 55 55">
  <defs>
    <filter id="Caminho_987" x="0" y="0" width="55" height="55" filterUnits="userSpaceOnUse">
      <feOffset dy="3" input="SourceAlpha"/>
      <feGaussianBlur stdDeviation="2.5" result="blur"/>
      <feFlood flood-opacity="0.302"/>
      <feComposite operator="in" in2="blur"/>
      <feComposite in="SourceGraphic"/>
    </filter>
  </defs>
  <g id="ico-Telegram" transform="translate(7.5 4.5)">
    <g transform="matrix(1, 0, 0, 1, -7.5, -4.5)" filter="url(#Caminho_987)">
      <path id="Caminho_987-2" data-name="Caminho 987" d="M20,0A20,20,0,1,1,0,20,20,20,0,0,1,20,0Z" transform="translate(7.5 4.5)" fill="#139bd0"/>
    </g>
    <path id="Caminho_971" data-name="Caminho 971" d="M38.1,44.247c-.77.75-1.534,1.488-2.29,2.232a1.194,1.194,0,0,1-.941.384.479.479,0,0,1-.484-.373c-.58-1.8-1.168-3.593-1.744-5.393a.42.42,0,0,0-.316-.314q-2.048-.625-4.088-1.276a2.325,2.325,0,0,1-.6-.277.428.428,0,0,1-.07-.72,2.767,2.767,0,0,1,.8-.5c1.669-.661,3.347-1.3,5.022-1.947l12.754-4.923a.91.91,0,0,1,1.346,1,15.062,15.062,0,0,1-.316,1.661Q45.781,40.343,44.39,46.88c-.22,1.035-.947,1.3-1.8.677Q40.452,45.98,38.315,44.4C38.247,44.349,38.176,44.3,38.1,44.247ZM34.9,45.57l.048-.013a1,1,0,0,0,.025-.121c.092-.988.188-1.976.268-2.965a.726.726,0,0,1,.259-.525q1.972-1.763,3.931-3.539,2.174-1.961,4.343-3.925a1.221,1.221,0,0,0,.188-.331,1.226,1.226,0,0,0-.405-.037,1.769,1.769,0,0,0-.478.236q-4.8,3.022-9.6,6.044a.288.288,0,0,0-.146.409c.236.678.451,1.362.673,2.044Z" transform="translate(-17.443 -19.467)" fill="#fff" fill-rule="evenodd"/>
  </g>
</svg>
