<svg xmlns="http://www.w3.org/2000/svg" xmlns:xlink="http://www.w3.org/1999/xlink" width="55" height="55" viewBox="0 0 55 55">
  <defs>
    <filter id="Caminho_27" x="0" y="0" width="55" height="55" filterUnits="userSpaceOnUse">
      <feOffset dy="5" input="SourceAlpha"/>
      <feGaussianBlur stdDeviation="2.5" result="blur"/>
      <feFlood flood-opacity="0.302"/>
      <feComposite operator="in" in2="blur"/>
      <feComposite in="SourceGraphic"/>
    </filter>
  </defs>
  <g id="ico_cartoon" transform="translate(-284.5 -85.5)">
    <g id="Grupo_19" data-name="Grupo 19" transform="translate(17 -41)">
      <g transform="matrix(1, 0, 0, 1, 267.5, 126.5)" filter="url(#Caminho_27)">
        <path id="Caminho_27-2" data-name="Caminho 27" d="M20,0A20,20,0,1,1,0,20,20,20,0,0,1,20,0Z" transform="translate(7.5 2.5)" fill="#010101"/>
      </g>
      <g id="Cartoon_Network_logo" transform="translate(253.593 113.784)">
        <path id="path1984" d="M392.98,28.64h13.5q0,6.575,0,13.149h-13.5Q392.981,35.215,392.98,28.64Z" transform="translate(-351.912)" fill="#fff"/>
        <path id="path6" d="M28.248,28.713H41.408q0,6.575,0,13.149H28.248Q28.249,35.287,28.248,28.713Z" transform="translate(0 -0.07)" fill="#010101"/>
        <path id="path8" d="M62.494,48.445A5.875,5.875,0,0,1,69,51.236c-.925.52-1.843,1.053-2.767,1.576-.166.095-.336.184-.5.287a2.116,2.116,0,0,0-2.158-1.041,2.111,2.111,0,1,0,1.444,3.874,2.2,2.2,0,0,0,.716-.744c.619.371,1.254.718,1.878,1.081.462.26.919.53,1.383.786a5.9,5.9,0,0,1-3.6,2.762c-.187.06-.384.08-.574.127A6.324,6.324,0,0,1,63.505,60a5.866,5.866,0,0,1-1.011-11.552Z" transform="translate(-28.698 -18.923)" fill="#fff"/>
        <path id="path10" d="M418.9,54.745c1.253,0,2.506,0,3.759,0,1.265,1.558,2.508,3.135,3.768,4.7,0-1.565,0-3.13,0-4.7q1.879,0,3.758,0,0,5.638,0,11.276c-1.255,0-2.51,0-3.764,0-1.227-1.537-2.461-3.068-3.686-4.606-.024-.028-.049-.054-.075-.08.008,1.562,0,3.124,0,4.685q-1.882,0-3.764,0Q418.9,60.382,418.9,54.745Z" transform="translate(-376.556 -25.161)" fill="#010101"/>
      </g>
    </g>
  </g>
</svg>
