<svg width="509" height="136" xmlns="http://www.w3.org/2000/svg"><g fill="none" fill-rule="evenodd"><path d="M495.737.9h-8.969c-11.499 0-12.21 1.215-13.128 3.142l-17.75 42.93c-5.946 14.179-11.996 29.464-14.418 37.467-2.127-8.003-6.067-18.634-14.337-38.276l-17.75-42.121C408.284 1.508 403.828.9 394.148.9H384.06c-9.883 0-11.808.81-11.808 2.836V133.04c0 2.327 1.925 2.935 12.21 2.935h5.557c9.976 0 12.91-.608 12.91-2.935V56.29h.698s.918 3.641 2.328 6.882l20.481 48.098c.9 2.124 2.02 3.038 11.499 3.038h6.053c9.681 0 10.487-.711 11.298-3.038l18.662-46.374c1.818-4.254 3.135-8.606 3.135-8.606h.698v76.751c0 2.327 1.926 2.935 12.51 2.935l5.446-.099c9.886 0 12.707-.509 12.707-2.836V3.736c0-2.026-2.82-2.836-12.707-2.836zM346.743 3.736c0-2.026-2.826-2.836-12.726-2.836h-5.74c-10.397 0-12.21.81-12.21 2.836V133.04c0 2.327 1.813 2.935 12.21 2.935h5.74c9.9 0 12.726-.608 12.726-2.935V3.736zM291.954.9c2.727 0 3.224.306 3.224 9.821v8.813c0 9.214-.699 10.326-3.224 10.326h-30.461V133.04c0 2.327-2.933 2.935-13.115 2.935h-5.351c-10.491 0-12.21-.608-12.21-2.935V29.86h-30.57c-2.516 0-3.228-.81-3.228-10.326v-8.813c0-9.82.51-9.82 3.228-9.82h91.707z" fill="#FFF"/><path d="M64.363 107.017H7.667c-2.118 0-4.035.91-5.45 2.228-1.41 1.418-2.216 3.444-2.216 5.568v13.368c0 2.125.806 4.047 2.216 5.464 1.415 1.418 3.332 2.228 5.45 2.228h56.696v-28.856zm94.425 2.327c-1.415-1.417-3.323-2.327-5.45-2.327H96.647v28.856h56.691c2.127 0 4.035-.81 5.45-2.228 1.41-1.417 2.216-3.34 2.216-5.464v-13.368c0-2.124-.806-4.05-2.216-5.469zm0-53.157c-1.415-1.418-3.323-2.228-5.45-2.228H96.647v28.856h56.691c2.127 0 4.035-.909 5.45-2.327 1.41-1.418 2.216-3.34 2.216-5.468V61.656c0-2.129-.806-4.05-2.216-5.469zM64.363 53.96H7.667c-2.118 0-4.035.81-5.45 2.228-1.41 1.418-2.216 3.34-2.216 5.469V75.02c0 2.129.806 4.05 2.216 5.468 1.415 1.418 3.332 2.327 5.45 2.327h56.696V53.96zm88.975-24.197H7.667c-2.118 0-4.035-.914-5.45-2.332C.807 26.012.001 24.09.001 21.961V8.598c0-2.125.806-4.051 2.216-5.469C3.632 1.711 5.55.901 7.667.901h145.671c2.127 0 4.035.81 5.45 2.228 1.41 1.418 2.216 3.344 2.216 5.469V21.96c0 2.13-.806 4.051-2.216 5.47-1.415 1.417-3.323 2.33-5.45 2.33z" fill="#E91D2B"/></g></svg>