<svg width="45" height="45" viewBox="0 0 45 45" fill="none" xmlns="http://www.w3.org/2000/svg">
<g filter="url(#filter0_d_247_221)">
<path d="M22.5 37C32.165 37 40 29.165 40 19.5C40 9.83502 32.165 2 22.5 2C12.835 2 5 9.83502 5 19.5C5 29.165 12.835 37 22.5 37Z" fill="url(#paint0_radial_247_221)"/>
</g>
<path d="M18.634 8.829H26.676C28.3888 8.82953 30.0312 9.51023 31.2422 10.7214C32.4533 11.9327 33.1337 13.5752 33.134 15.288V23.328C33.1341 24.1759 32.9671 25.0155 32.6426 25.7988C32.318 26.5821 31.8422 27.2937 31.2425 27.893C30.6427 28.4923 29.9307 28.9675 29.1471 29.2915C28.3636 29.6155 27.5238 29.7818 26.676 29.781H18.634C17.7865 29.7813 16.9472 29.6145 16.1642 29.2903C15.3812 28.9661 14.6697 28.4908 14.0704 27.8915C13.4712 27.2923 12.9958 26.5808 12.6716 25.7978C12.3474 25.0147 12.1807 24.1755 12.181 23.328V15.287C12.179 14.4388 12.3445 13.5985 12.6681 12.8145C12.9916 12.0304 13.4668 11.3179 14.0663 10.7179C14.6658 10.1179 15.378 9.64214 16.1618 9.318C16.9456 8.99386 17.7858 8.82769 18.634 8.829ZM14.188 22.554C14.1878 23.2389 14.3226 23.9171 14.5847 24.5499C14.8467 25.1826 15.2308 25.7576 15.7151 26.2419C16.1994 26.7261 16.7744 27.1103 17.4071 27.3723C18.0399 27.6343 18.7181 27.7691 19.403 27.769H25.903C26.5878 27.769 27.2659 27.6341 27.8985 27.372C28.5312 27.1099 29.106 26.7258 29.5902 26.2415C30.0744 25.7572 30.4584 25.1823 30.7204 24.5496C30.9823 23.9169 31.1171 23.2388 31.117 22.554V16.054C31.1168 15.3692 30.9818 14.6911 30.7196 14.0585C30.4574 13.4259 30.0731 12.8512 29.5888 12.3671C29.1044 11.883 28.5294 11.4991 27.8967 11.2372C27.2639 10.9754 26.5858 10.8407 25.901 10.841H19.401C18.018 10.8415 16.6919 11.3911 15.714 12.369C14.7361 13.3469 14.1865 14.6731 14.186 16.056L14.188 22.554Z" fill="white"/>
<path d="M22.37 13.8191C23.4634 13.8167 24.533 14.1388 25.4433 14.7446C26.3536 15.3503 27.0638 16.2125 27.4839 17.2221C27.904 18.2316 28.0151 19.3431 27.8032 20.4158C27.5914 21.4885 27.066 22.4743 26.2937 23.2483C25.5213 24.0223 24.5367 24.5498 23.4644 24.764C22.3922 24.9782 21.2805 24.8695 20.27 24.4516C19.2596 24.0337 18.3958 23.3254 17.7881 22.4164C17.1804 21.5074 16.856 20.4386 16.856 19.3451C16.8548 18.6201 16.9965 17.902 17.273 17.2318C17.5496 16.5616 17.9555 15.9525 18.4676 15.4392C18.9797 14.926 19.5879 14.5188 20.2575 14.2408C20.9271 13.9628 21.6449 13.8195 22.37 13.8191ZM22.37 22.6651C23.0281 22.6665 23.6718 22.4726 24.2197 22.108C24.7676 21.7434 25.195 21.2244 25.4478 20.6168C25.7006 20.0091 25.7674 19.3402 25.6399 18.6945C25.5124 18.0489 25.1961 17.4556 24.7313 16.9898C24.2664 16.5239 23.6738 16.2064 23.0284 16.0775C22.383 15.9486 21.7139 16.0141 21.1058 16.2656C20.4976 16.5171 19.9778 16.9434 19.612 17.4906C19.2462 18.0377 19.051 18.681 19.051 19.3391C19.0502 19.7755 19.1354 20.2078 19.3019 20.6112C19.4683 21.0147 19.7126 21.3813 20.0209 21.6902C20.3291 21.9991 20.6953 22.2442 21.0984 22.4115C21.5014 22.5788 21.9335 22.665 22.37 22.6651Z" fill="white"/>
<path d="M15.832 13.7381C15.833 14.0147 15.9159 14.2849 16.0703 14.5145C16.2248 14.7441 16.4438 14.9227 16.6997 15.0279C16.9556 15.1331 17.2369 15.1601 17.5081 15.1055C17.7794 15.051 18.0284 14.9172 18.2237 14.7212C18.419 14.5252 18.5518 14.2758 18.6054 14.0043C18.659 13.7329 18.631 13.4517 18.5249 13.1962C18.4188 12.9406 18.2394 12.7223 18.0092 12.5687C17.7791 12.415 17.5086 12.3331 17.232 12.3331C17.0477 12.3331 16.8652 12.3694 16.6951 12.4401C16.5249 12.5108 16.3703 12.6143 16.2402 12.7449C16.1102 12.8754 16.0072 13.0303 15.9371 13.2008C15.867 13.3712 15.8313 13.5538 15.832 13.7381Z" fill="white"/>
<defs>
<filter id="filter0_d_247_221" x="0" y="0" width="45" height="45" filterUnits="userSpaceOnUse" color-interpolation-filters="sRGB">
<feFlood flood-opacity="0" result="BackgroundImageFix"/>
<feColorMatrix in="SourceAlpha" type="matrix" values="0 0 0 0 0 0 0 0 0 0 0 0 0 0 0 0 0 0 127 0" result="hardAlpha"/>
<feOffset dy="3"/>
<feGaussianBlur stdDeviation="2.5"/>
<feColorMatrix type="matrix" values="0 0 0 0 0 0 0 0 0 0 0 0 0 0 0 0 0 0 0.302 0"/>
<feBlend mode="normal" in2="BackgroundImageFix" result="effect1_dropShadow_247_221"/>
<feBlend mode="normal" in="SourceGraphic" in2="effect1_dropShadow_247_221" result="shape"/>
</filter>
<radialGradient id="paint0_radial_247_221" cx="0" cy="0" r="1" gradientUnits="userSpaceOnUse" gradientTransform="translate(15.255 4.54) scale(46.375)">
<stop offset="0.097" stop-color="#FFD87A"/>
<stop offset="0.143" stop-color="#FCCE78"/>
<stop offset="0.226" stop-color="#F5B471"/>
<stop offset="0.338" stop-color="#EB8D65"/>
<stop offset="0.449" stop-color="#E36058"/>
<stop offset="0.679" stop-color="#CD3694"/>
<stop offset="1" stop-color="#6668B0"/>
</radialGradient>
</defs>
</svg>
