<svg width="44" height="44" viewBox="0 0 44 44" fill="none" xmlns="http://www.w3.org/2000/svg">
<g filter="url(#filter0_d_23_234)">
<path d="M22.0601 2C25.4105 2 28.6857 2.99351 31.4715 4.8549C34.2572 6.7163 36.4285 9.36196 37.7106 12.4573C38.9928 15.5527 39.3283 18.9588 38.6746 22.2448C38.021 25.5309 36.4076 28.5493 34.0385 30.9184C31.6694 33.2875 28.651 34.9009 25.3649 35.5545C22.0789 36.2081 18.6728 35.8727 15.5775 34.5905C12.4821 33.3084 9.83641 31.1371 7.97502 28.3514C6.11363 25.5656 5.12012 22.2904 5.12012 18.94C5.12012 14.4472 6.90486 10.1385 10.0817 6.96161C13.2586 3.78474 17.5673 2 22.0601 2V2Z" fill="#139BD0"/>
</g>
<path fill-rule="evenodd" clip-rule="evenodd" d="M22.6147 22.992C21.9623 23.6271 21.3157 24.2504 20.6787 24.8825C20.5779 24.9922 20.4542 25.0782 20.3163 25.1344C20.1784 25.1906 20.0298 25.2157 19.8811 25.2078C19.7867 25.211 19.6941 25.1811 19.6193 25.1233C19.5445 25.0655 19.4923 24.9835 19.4716 24.8913C18.9808 23.3676 18.4823 21.8479 17.9945 20.3233C17.9793 20.2583 17.9462 20.199 17.899 20.1519C17.8518 20.1049 17.7923 20.072 17.7273 20.0571C16.5708 19.7041 15.4167 19.344 14.2648 18.9768C14.0847 18.9234 13.9133 18.8445 13.7556 18.7425C13.7011 18.7149 13.6545 18.6739 13.62 18.6234C13.5856 18.573 13.5645 18.5146 13.5586 18.4538C13.5527 18.393 13.5622 18.3317 13.5864 18.2756C13.6105 18.2194 13.6484 18.1703 13.6965 18.1327C13.8967 17.9546 14.1259 17.8122 14.3741 17.7116C15.7874 17.1511 17.2084 16.6091 18.6275 16.066L29.4304 11.8968C29.5614 11.8214 29.7115 11.7859 29.8624 11.7947C30.0133 11.8036 30.1583 11.8564 30.2795 11.9466C30.4007 12.0369 30.4929 12.1606 30.5446 12.3026C30.5964 12.4446 30.6054 12.5987 30.5707 12.7458C30.5081 13.2196 30.4189 13.6895 30.3035 14.1532C29.5156 17.8387 28.7289 21.5271 27.9436 25.2184C27.7567 26.0945 27.1411 26.3239 26.4199 25.7915C25.2119 24.9009 24.0044 24.0091 22.7977 23.1159C22.7406 23.0753 22.6805 23.0346 22.6147 22.992ZM19.9043 24.113L19.9421 24.0985C19.9513 24.0647 19.9584 24.0305 19.9634 23.9959C20.0408 23.1595 20.1231 22.3222 20.1908 21.4839C20.1945 21.3985 20.2159 21.3148 20.2537 21.2381C20.2916 21.1614 20.345 21.0935 20.4106 21.0386C21.5244 20.0429 22.6341 19.0426 23.7395 18.0378C24.9657 16.9304 26.1918 15.8221 27.4179 14.7127C27.4851 14.6283 27.5387 14.534 27.5767 14.433C27.4647 14.4032 27.3486 14.3924 27.233 14.401C27.0889 14.4467 26.9525 14.5139 26.8284 14.6005C24.118 16.3067 21.4076 18.013 18.6972 19.7192C18.6647 19.7319 18.6354 19.7515 18.6111 19.7765C18.5868 19.8015 18.5681 19.8315 18.5564 19.8643C18.5446 19.8971 18.5401 19.9321 18.543 19.9669C18.5459 20.0016 18.5562 20.0354 18.5733 20.0658C18.7727 20.6398 18.9547 21.2196 19.1435 21.7975L19.9043 24.113Z" fill="white"/>
<defs>
<filter id="filter0_d_23_234" x="0.120117" y="0" width="43.8801" height="43.88" filterUnits="userSpaceOnUse" color-interpolation-filters="sRGB">
<feFlood flood-opacity="0" result="BackgroundImageFix"/>
<feColorMatrix in="SourceAlpha" type="matrix" values="0 0 0 0 0 0 0 0 0 0 0 0 0 0 0 0 0 0 127 0" result="hardAlpha"/>
<feOffset dy="3"/>
<feGaussianBlur stdDeviation="2.5"/>
<feColorMatrix type="matrix" values="0 0 0 0 0 0 0 0 0 0 0 0 0 0 0 0 0 0 0.302 0"/>
<feBlend mode="normal" in2="BackgroundImageFix" result="effect1_dropShadow_23_234"/>
<feBlend mode="normal" in="SourceGraphic" in2="effect1_dropShadow_23_234" result="shape"/>
</filter>
</defs>
</svg>
