<svg width="45" height="45" viewBox="0 0 45 45" fill="none" xmlns="http://www.w3.org/2000/svg">
<g filter="url(#filter0_d_247_230)">
<path d="M22.46 34.92C32.1029 34.92 39.92 27.1029 39.92 17.46C39.92 7.81711 32.1029 0 22.46 0C12.8171 0 5 7.81711 5 17.46C5 27.1029 12.8171 34.92 22.46 34.92Z" fill="url(#paint0_linear_247_230)"/>
</g>
<path fill-rule="evenodd" clip-rule="evenodd" d="M19.8899 23.8475C19.0943 23.9263 18.2939 23.7564 17.599 23.3611C16.9041 22.9658 16.3489 22.3647 16.01 21.6407C16.5669 21.6775 17.1249 21.5901 17.6439 21.3848C17.6563 21.383 17.667 21.3673 17.6918 21.3487C17.1674 21.3049 16.6575 21.1541 16.1938 20.9054C15.7301 20.6567 15.3223 20.3154 14.9958 19.9028C14.5442 19.3405 14.2644 18.66 14.1896 17.9428C14.7461 18.1633 15.3467 18.2498 15.9428 18.1954C15.0791 17.7459 14.4154 16.9888 14.083 16.0736C13.7439 15.1602 13.7677 14.1516 14.1493 13.2552C15.2565 14.3132 16.5726 15.1283 18.0131 15.6481C19.4537 16.168 20.9869 16.3812 22.5146 16.2741C22.4754 16.1259 22.4319 15.9985 22.4015 15.8586C22.1784 15 22.2671 14.0901 22.6518 13.2907C22.8742 12.7965 23.2025 12.3572 23.6135 12.004C24.0244 11.6507 24.508 11.392 25.03 11.2463C25.6184 11.0624 26.243 11.0257 26.8489 11.1396C27.4548 11.2534 28.0235 11.5142 28.505 11.8991C28.5334 11.9241 28.5682 11.9405 28.6056 11.9465C28.6429 11.9525 28.6811 11.9477 28.7158 11.9329C29.4756 11.6687 30.1901 11.2889 30.8341 10.807L30.8819 10.7709L30.9081 10.7674C30.7264 11.6627 30.2402 12.4675 29.5322 13.0449C30.2556 12.8734 30.9484 12.5923 31.5867 12.2113C31.5936 12.2158 31.5987 12.2226 31.6011 12.2305C31.4806 12.4391 31.36 12.6528 31.2324 12.8555C30.888 13.402 30.4754 13.9026 30.0047 14.3451C29.9842 14.3593 29.9682 14.3789 29.9584 14.4018C29.9487 14.4247 29.9456 14.4499 29.9495 14.4744C30.0412 15.0388 30.087 15.6097 30.0866 16.1816C30.0863 17.3753 29.8993 18.5616 29.5323 19.6975C29.1525 20.873 28.5795 21.9768 27.8367 22.9638C26.6017 24.616 24.8998 25.8601 22.9508 26.5357C22.2688 26.7685 21.5675 26.9409 20.8553 27.051C18.7105 27.3942 16.5122 27.0882 14.5427 26.1722C14.5155 26.1627 14.4931 26.1446 14.4426 26.1225C15.7589 26.1139 17.0514 25.7713 18.1991 25.1268C18.8236 24.7851 19.3949 24.3542 19.8949 23.8475L19.8899 23.8475Z" fill="white"/>
<defs>
<filter id="filter0_d_247_230" x="0" y="0" width="44.92" height="44.9199" filterUnits="userSpaceOnUse" color-interpolation-filters="sRGB">
<feFlood flood-opacity="0" result="BackgroundImageFix"/>
<feColorMatrix in="SourceAlpha" type="matrix" values="0 0 0 0 0 0 0 0 0 0 0 0 0 0 0 0 0 0 127 0" result="hardAlpha"/>
<feOffset dy="5"/>
<feGaussianBlur stdDeviation="2.5"/>
<feColorMatrix type="matrix" values="0 0 0 0 0 0 0 0 0 0 0 0 0 0 0 0 0 0 0.302 0"/>
<feBlend mode="normal" in2="BackgroundImageFix" result="effect1_dropShadow_247_230"/>
<feBlend mode="normal" in="SourceGraphic" in2="effect1_dropShadow_247_230" result="shape"/>
</filter>
<linearGradient id="paint0_linear_247_230" x1="22.46" y1="0" x2="22.46" y2="34.92" gradientUnits="userSpaceOnUse">
<stop stop-color="#74D1FF"/>
<stop offset="1" stop-color="#00A2F2"/>
</linearGradient>
</defs>
</svg>
