<svg width="44" height="44" viewBox="0 0 44 44" fill="none" xmlns="http://www.w3.org/2000/svg">
<g filter="url(#filter0_d_23_229)">
<path fill-rule="evenodd" clip-rule="evenodd" d="M21.896 2C18.7817 1.99884 15.7277 2.85876 13.0716 4.48472C10.4155 6.11068 8.26063 8.43937 6.8452 11.2134C5.42978 13.9875 4.80891 17.0988 5.0512 20.2037C5.29349 23.3085 6.38952 26.2859 8.21814 28.8068L6.11178 35.0862L12.608 33.0099C14.8076 34.4589 17.3155 35.3737 19.9315 35.6812C22.5474 35.9887 25.1991 35.6804 27.6747 34.781C30.1504 33.8815 32.3815 32.4158 34.19 30.5008C35.9985 28.5858 37.3343 26.2746 38.0908 23.7515C38.8472 21.2285 39.0034 18.5636 38.5469 15.9695C38.0904 13.3754 37.0337 10.9239 35.4613 8.8107C33.889 6.69754 31.8444 4.9812 29.4907 3.79868C27.1371 2.61616 24.5396 2.00022 21.9057 2H21.896Z" fill="url(#paint0_linear_23_229)"/>
</g>
<path fill-rule="evenodd" clip-rule="evenodd" d="M17.8372 11.7081C17.5468 11.0102 17.3251 10.983 16.8846 10.9656C16.7346 10.9569 16.5671 10.9482 16.3822 10.9482C15.82 10.9225 15.2697 11.1158 14.847 11.4874C14.3453 11.953 13.9488 12.5203 13.684 13.1515C13.4192 13.7827 13.2923 14.4632 13.3118 15.1474C13.4563 16.7995 14.0751 18.3747 15.0938 19.6834C15.3145 19.9738 18.1547 24.4663 22.5649 26.2968C26.0138 27.7294 27.037 27.5959 27.8221 27.4284C28.4399 27.3156 29.0249 27.0666 29.5346 26.6996C30.0442 26.3326 30.4658 25.8567 30.7687 25.3065C31.0516 24.6496 31.1403 23.9253 31.0242 23.2195C30.9187 23.0337 30.6273 22.9291 30.1859 22.7065C29.7445 22.4839 27.6014 21.4278 27.1958 21.2864C27.0079 21.1976 26.7937 21.1819 26.5949 21.2424C26.3961 21.3029 26.2269 21.4352 26.1203 21.6136C25.757 22.1528 25.3653 22.6724 24.9471 23.1702C24.8083 23.302 24.6328 23.3887 24.4438 23.4188C24.2547 23.4488 24.061 23.4209 23.8881 23.3386C22.5885 22.8415 21.3943 22.1036 20.3685 21.1635C19.4135 20.2766 18.5933 19.2549 17.9339 18.1308C17.6784 17.6884 17.9078 17.4319 18.1101 17.1937C18.3308 16.9198 18.5419 16.7252 18.7626 16.4687C18.9598 16.2664 19.1232 16.0337 19.2466 15.7795C19.301 15.6487 19.3238 15.5068 19.313 15.3655C19.3023 15.2242 19.2583 15.0874 19.1846 14.9664C19.083 14.7437 18.1982 12.5861 17.8372 11.7081Z" fill="white"/>
<defs>
<filter id="filter0_d_23_229" x="0" y="0" width="43.8027" height="43.7968" filterUnits="userSpaceOnUse" color-interpolation-filters="sRGB">
<feFlood flood-opacity="0" result="BackgroundImageFix"/>
<feColorMatrix in="SourceAlpha" type="matrix" values="0 0 0 0 0 0 0 0 0 0 0 0 0 0 0 0 0 0 127 0" result="hardAlpha"/>
<feOffset dy="3"/>
<feGaussianBlur stdDeviation="2.5"/>
<feColorMatrix type="matrix" values="0 0 0 0 0 0 0 0 0 0 0 0 0 0 0 0 0 0 0.302 0"/>
<feBlend mode="normal" in2="BackgroundImageFix" result="effect1_dropShadow_23_229"/>
<feBlend mode="normal" in="SourceGraphic" in2="effect1_dropShadow_23_229" result="shape"/>
</filter>
<linearGradient id="paint0_linear_23_229" x1="21.9013" y1="2" x2="21.9013" y2="35.7968" gradientUnits="userSpaceOnUse">
<stop stop-color="#5FD06B"/>
<stop offset="1" stop-color="#2BB641"/>
</linearGradient>
</defs>
</svg>
