<svg width="45" height="44" viewBox="0 0 45 44" fill="none" xmlns="http://www.w3.org/2000/svg">
<g filter="url(#filter0_d_23_224)">
<path d="M11.6227 34.3028V30.7502C11.6325 30.4809 11.5806 30.213 11.4708 29.9668C11.3611 29.7207 11.1965 29.5029 10.9897 29.3302L10.98 29.3176L10.9703 29.3089C9.31403 27.9303 7.97384 26.2114 7.04077 24.2689C6.10771 22.3264 5.60362 20.2058 5.56276 18.0513C5.5219 15.8967 5.94521 13.7586 6.80395 11.7821C7.66269 9.80563 8.93673 8.03712 10.5396 6.5967C13.8115 3.60496 18.0948 1.96288 22.5282 2.00064C26.9592 1.96401 31.2373 3.61843 34.4908 6.62671C36.0515 8.0385 37.2984 9.76225 38.1508 11.6864C39.0032 13.6106 39.4421 15.6923 39.4391 17.7968C39.4361 19.9013 38.9912 21.9817 38.1333 23.9035C37.2754 25.8252 36.0236 27.5453 34.4588 28.9527C31.1866 31.944 26.9035 33.586 22.4702 33.5487C21.1448 33.5598 19.8227 33.4168 18.5304 33.1228H18.512L18.4936 33.117C18.3679 33.0801 18.2375 33.0615 18.1064 33.0618C17.804 33.0667 17.5078 33.1476 17.2449 33.297L13.4571 35.3908C13.2696 35.4971 13.0579 35.5534 12.8424 35.5544C12.5149 35.5496 12.2027 35.4151 11.9741 35.1805C11.7454 34.946 11.6191 34.6303 11.6227 34.3028Z" fill="url(#paint0_linear_23_224)"/>
</g>
<path d="M30.215 16.1722L24.2134 22.9346C24.0497 23.1057 23.8296 23.2117 23.5939 23.2331C23.3581 23.2544 23.1225 23.1897 22.9308 23.0508L21.0074 20.0045C20.1362 19.3046 20.1584 18.9397 19.1091 19.294L14.5363 22.0044C14.3404 22.0675 14.1292 22.0645 13.9352 21.9959C13.7412 21.9272 13.5751 21.7968 13.4624 21.6245C13.3498 21.4523 13.2969 21.2478 13.3118 21.0425C13.3267 20.8373 13.4087 20.6426 13.5451 20.4885L19.6667 13.0842C19.7459 12.9869 19.8439 12.9065 19.9549 12.8477C20.0658 12.789 20.1874 12.7532 20.3124 12.7423C20.4375 12.7315 20.5634 12.7459 20.6828 12.7847C20.8022 12.8235 20.9126 12.8858 21.0074 12.9681L23.4903 15.5914C24.3615 16.4074 24.6325 16.5245 25.7399 16.1722L29.2247 14.6563C29.4205 14.5935 29.6315 14.5967 29.8253 14.6655C30.0191 14.7343 30.185 14.8647 30.2975 15.0369C30.4099 15.209 30.4628 15.4134 30.4479 15.6184C30.433 15.8235 30.3512 16.0181 30.215 16.1722Z" fill="white"/>
<defs>
<filter id="filter0_d_23_224" x="0.560059" y="0" width="43.8792" height="43.5544" filterUnits="userSpaceOnUse" color-interpolation-filters="sRGB">
<feFlood flood-opacity="0" result="BackgroundImageFix"/>
<feColorMatrix in="SourceAlpha" type="matrix" values="0 0 0 0 0 0 0 0 0 0 0 0 0 0 0 0 0 0 127 0" result="hardAlpha"/>
<feOffset dy="3"/>
<feGaussianBlur stdDeviation="2.5"/>
<feColorMatrix type="matrix" values="0 0 0 0 0 0 0 0 0 0 0 0 0 0 0 0 0 0 0.302 0"/>
<feBlend mode="normal" in2="BackgroundImageFix" result="effect1_dropShadow_23_224"/>
<feBlend mode="normal" in="SourceGraphic" in2="effect1_dropShadow_23_224" result="shape"/>
</filter>
<linearGradient id="paint0_linear_23_224" x1="22.4996" y1="2" x2="22.4996" y2="35.5544" gradientUnits="userSpaceOnUse">
<stop stop-color="#00ACFF"/>
<stop offset="1" stop-color="#0073FF"/>
</linearGradient>
</defs>
</svg>
