<svg width="76" height="76" viewBox="0 0 76 76" fill="none" xmlns="http://www.w3.org/2000/svg">
<path d="M63.1043 63.0997L63.0997 63.1043C59.8077 66.4051 55.8958 69.0227 51.5889 70.8067C47.282 72.5907 42.665 73.506 38.0032 73.5L37.9968 73.5C33.335 73.5059 28.7181 72.5906 24.4112 70.8065L23.4544 73.1162L24.4112 70.8065C20.1043 69.0225 16.1924 66.405 12.9003 63.1043L12.8957 63.0997C9.59494 59.8077 6.97735 55.8958 5.19332 51.5889C3.40929 47.282 2.49399 42.665 2.50004 38.0032L2.50003 37.9968C2.49409 33.335 3.40943 28.7181 5.19347 24.4112C6.9775 20.1043 9.59505 16.1924 12.8957 12.9003L12.9003 12.8957C16.1924 9.59505 20.1043 6.9775 24.4112 5.19347C28.7181 3.40943 33.335 2.49409 37.9968 2.50004L38.0032 2.50003C42.665 2.49399 47.282 3.40929 51.5889 5.19332C55.8958 6.97735 59.8077 9.59494 63.0997 12.8957L63.1043 12.9003C66.405 16.1924 69.0225 20.1043 70.8065 24.4112L73.1162 23.4544L70.8065 24.4112C72.5906 28.7181 73.5059 33.335 73.5 37.9968L73.5 38.0032C73.506 42.665 72.5907 47.282 70.8067 51.5889C69.0227 55.8958 66.4051 59.8077 63.1043 63.0997Z" stroke="#F6E500" stroke-width="5" stroke-linejoin="round"/>
<path d="M38.4701 54.3048C38.3451 54.4298 38.1755 54.5001 37.9987 54.5001C37.8219 54.5001 37.6523 54.4298 37.5273 54.3048C37.4023 54.1798 37.332 54.0102 37.332 53.8334C37.332 53.6566 37.4023 53.487 37.5273 53.362C37.6523 53.237 37.8219 53.1667 37.9987 53.1667C38.1755 53.1667 38.3451 53.237 38.4701 53.362C38.5951 53.487 38.6654 53.6566 38.6654 53.8334C38.6654 54.0102 38.5951 54.1798 38.4701 54.3048Z" fill="#F6E500" stroke="#F6E500" stroke-width="5"/>
<path d="M37.999 22.1663V44.333V22.1663Z" fill="#F6E500"/>
<path d="M37.999 22.1663V44.333" stroke="#F6E500" stroke-width="5" stroke-linecap="round" stroke-linejoin="round"/>
</svg>
