<svg width="32" height="33" viewBox="0 0 32 33" fill="none" xmlns="http://www.w3.org/2000/svg">
<path d="M26.6074 27.1447L26.6055 27.1466C25.2145 28.5413 23.5616 29.6473 21.7418 30.4011C19.9219 31.155 17.9711 31.5417 16.0013 31.5392L15.9987 31.5392C14.0289 31.5417 12.0781 31.1549 10.2582 30.4011C8.43841 29.6473 6.78547 28.5412 5.39444 27.1466L5.39258 27.1447C3.9979 25.7537 2.89186 24.1008 2.13804 22.281C1.38421 20.4611 0.99746 18.5103 1.00002 16.5405L1.00001 16.5379C0.997501 14.5681 1.38427 12.6173 2.1381 10.7974C2.89192 8.97759 3.99794 7.32466 5.3926 5.93362L5.39443 5.93178C6.78547 4.53713 8.43841 3.43111 10.2582 2.67728C12.0781 1.92346 14.0289 1.53669 15.9987 1.5392L16.0013 1.5392C17.9711 1.53664 19.9219 1.9234 21.7418 2.67722C23.5616 3.43105 25.2145 4.53708 26.6055 5.93177L26.6074 5.93362C28.0021 7.32466 29.1081 8.97759 29.8619 10.7974C30.6157 12.6173 31.0025 14.5681 31 16.5379L31 16.5405C31.0025 18.5103 30.6158 20.4611 29.862 22.281C29.1081 24.1008 28.0021 25.7537 26.6074 27.1447ZM16 0.539385L16 0.539198L16 0.539385Z" stroke="#EB0028" stroke-width="2" stroke-linejoin="round"/>
<path d="M16.3327 23.2059C16.3327 23.2943 16.2976 23.3791 16.2351 23.4416L16.2351 23.4416C16.1725 23.5041 16.0878 23.5392 15.9993 23.5392C15.9109 23.5392 15.8262 23.5041 15.7636 23.4416C15.7011 23.3791 15.666 23.2943 15.666 23.2059C15.666 23.1175 15.7011 23.0327 15.7636 22.9702C15.8262 22.9077 15.9109 22.8726 15.9993 22.8726C16.0878 22.8726 16.1725 22.9077 16.2351 22.9702C16.2976 23.0327 16.3327 23.1175 16.3327 23.2059Z" fill="#EB0028" stroke="#EB0028" stroke-width="2"/>
<path d="M16 9.87231V19.2056V9.87231Z" fill="#EB0028"/>
<path d="M16 9.87231V19.2056" stroke="#EB0028" stroke-width="2" stroke-linecap="round" stroke-linejoin="round"/>
</svg>
