<svg xmlns="http://www.w3.org/2000/svg" xmlns:xlink="http://www.w3.org/1999/xlink" width="55" height="55" viewBox="0 0 55 55">
  <defs>
    <linearGradient id="linear-gradient" x1="0.5" x2="0.5" y2="1" gradientUnits="objectBoundingBox">
      <stop offset="0" stop-color="#5fd06b"/>
      <stop offset="1" stop-color="#2bb641"/>
    </linearGradient>
    <filter id="WhatsApp_1_" x="0" y="0" width="55" height="55" filterUnits="userSpaceOnUse">
      <feOffset dy="3" input="SourceAlpha"/>
      <feGaussianBlur stdDeviation="2.5" result="blur"/>
      <feFlood flood-opacity="0.302"/>
      <feComposite operator="in" in2="blur"/>
      <feComposite in="SourceGraphic"/>
    </filter>
  </defs>
  <g id="ico-WhatsApp" transform="translate(7.5 4.5)">
    <g transform="matrix(1, 0, 0, 1, -7.5, -4.5)" filter="url(#WhatsApp_1_)">
      <path id="WhatsApp_1_2" data-name="WhatsApp_1_" d="M19.994,0A19.986,19.986,0,0,0,3.808,31.722L1.316,39.153,9,36.7a20,20,0,1,0,11-36.7h-.012Z" transform="translate(7.5 4.5)" fill-rule="evenodd" fill="url(#linear-gradient)"/>
    </g>
    <path id="WhatsApp_1_3" data-name="WhatsApp_1_" d="M10.623,6.623c-.346-.832-.609-.863-1.134-.885-.179-.01-.378-.021-.6-.021a2.587,2.587,0,0,0-1.827.642,5.727,5.727,0,0,0-1.827,4.36,10.255,10.255,0,0,0,2.12,5.4C7.621,16.47,11,21.82,16.25,24c4.1,1.706,5.322,1.548,6.257,1.348,1.365-.295,3.076-1.306,3.506-2.527a4.46,4.46,0,0,0,.3-2.485c-.126-.221-.472-.347-1-.611s-3.076-1.527-3.559-1.7a1,1,0,0,0-1.28.39,21.975,21.975,0,0,1-1.4,1.853,1.126,1.126,0,0,1-1.26.2,13.153,13.153,0,0,1-4.189-2.591,15.923,15.923,0,0,1-2.9-3.612c-.3-.526-.032-.832.21-1.116.263-.327.514-.558.777-.864a3.137,3.137,0,0,0,.577-.821,1.072,1.072,0,0,0-.073-.969C12.1,10.235,11.054,7.665,10.623,6.623Z" transform="translate(4.536 4.808)" fill="#fff" fill-rule="evenodd"/>
  </g>
</svg>
