<svg xmlns="http://www.w3.org/2000/svg" xmlns:xlink="http://www.w3.org/1999/xlink" width="215.441" height="65.038" viewBox="0 0 215.441 65.038">
  <defs>
    <radialGradient id="radial-gradient" cx="9.368" cy="34.457" r="42.38" gradientUnits="userSpaceOnUse">
      <stop offset="0.097" stop-color="#ffd87a"/>
      <stop offset="0.143" stop-color="#fcce78"/>
      <stop offset="0.226" stop-color="#f5b471"/>
      <stop offset="0.338" stop-color="#eb8d65"/>
      <stop offset="0.449" stop-color="#e36058"/>
      <stop offset="0.679" stop-color="#cd3694"/>
      <stop offset="1" stop-color="#6668b0"/>
    </radialGradient>
  </defs>
  <g id="Grupo_921" data-name="Grupo 921" transform="translate(-813.632 -394.572)">
    <g id="Grupo_906" data-name="Grupo 906" transform="translate(15.518 -31.878) rotate(2)">
      <g id="Grupo_873" data-name="Grupo 873" transform="matrix(0.996, 0.087, -0.087, 0.996, 936.018, 394.353)">
        <rect id="Retângulo_927" data-name="Retângulo 927" width="39.976" height="45.306" rx="7" opacity="0.2"/>
        <g id="iconfinder_25_social_2609558" transform="translate(4.442 9.975)">
          <path id="Caminho_930" data-name="Caminho 930" d="M31.981,24.679a7.3,7.3,0,0,1-7.3,7.3H7.3a7.3,7.3,0,0,1-7.3-7.3V7.308A7.31,7.31,0,0,1,7.308,0H24.567a7.411,7.411,0,0,1,7.414,7.414Z" transform="translate(0 0)" fill="url(#radial-gradient)"/>
          <g id="Grupo_856" data-name="Grupo 856" transform="translate(4.353 4.359)">
            <path id="Caminho_931" data-name="Caminho 931" d="M16.1,0H7.171A7.173,7.173,0,0,0,0,7.171V16.1a7.164,7.164,0,0,0,7.171,7.165H16.1A7.162,7.162,0,0,0,23.263,16.1V7.171A7.154,7.154,0,0,0,16.1,0Zm4.931,15.239a5.789,5.789,0,0,1-5.791,5.791H8.03A5.789,5.789,0,0,1,2.24,15.239V8.024A5.789,5.789,0,0,1,8.03,2.233h7.215a5.793,5.793,0,0,1,5.791,5.791Z" transform="translate(0 0)" fill="#fff"/>
            <path id="Caminho_932" data-name="Caminho 932" d="M6.032,0A6.123,6.123,0,0,0,0,6.216a6.127,6.127,0,0,0,6.032,6.216,6.127,6.127,0,0,0,6.032-6.216A6.131,6.131,0,0,0,6.032,0Zm0,9.951A3.685,3.685,0,0,1,2.4,6.21,3.685,3.685,0,0,1,6.032,2.469,3.689,3.689,0,0,1,9.663,6.21,3.693,3.693,0,0,1,6.032,9.951Z" transform="translate(5.925 5.458)" fill="#fff"/>
            <path id="Caminho_933" data-name="Caminho 933" d="M3.062,1.537A1.531,1.531,0,1,1,1.531,0,1.531,1.531,0,0,1,3.062,1.537Z" transform="translate(16.138 3.899)" fill="#fff"/>
          </g>
        </g>
      </g>
      <g id="Grupo_872" data-name="Grupo 872" transform="matrix(0.996, -0.087, 0.087, 0.996, 886.763, 397.837)">
        <rect id="Retângulo_926" data-name="Retângulo 926" width="39.976" height="45.306" rx="7" transform="translate(0 0)" opacity="0.2"/>
        <g id="iconfinder_25_social_2609558-2" data-name="iconfinder_25_social_2609558" transform="translate(4.442 10.23)">
          <path id="Caminho_934" data-name="Caminho 934" d="M31.981,24.8A7.178,7.178,0,0,1,24.8,31.981H7.177A7.182,7.182,0,0,1,0,24.8V7.177A7.182,7.182,0,0,1,7.177,0H24.8a7.182,7.182,0,0,1,7.177,7.177Z" transform="translate(0 0)" fill="#006eea"/>
          <path id="Caminho_935" data-name="Caminho 935" d="M7.305,2.887c.544-.019,1.089-.006,1.633-.006H9.16V.121c-.291-.031-.6-.068-.9-.08C7.7.016,7.147-.009,6.583,0a4.2,4.2,0,0,0-2.361.71A3.417,3.417,0,0,0,2.8,3.017,8.25,8.25,0,0,0,2.7,4.2c-.013.618,0,1.235,0,1.859V6.3H0V9.377H2.69v7.744H5.976V9.383H8.66c.139-1.025.272-2.038.411-3.094h-.6c-.766.006-2.513,0-2.513,0s.006-1.525.025-2.192C6.007,3.19,6.564,2.912,7.305,2.887Z" transform="translate(11.407 7.466)" fill="#fff" fill-rule="evenodd"/>
        </g>
      </g>
      <g id="Grupo_870" data-name="Grupo 870" transform="translate(813.284 420.524) rotate(-21)">
        <rect id="Retângulo_925" data-name="Retângulo 925" width="45.306" height="45.306" rx="7" transform="translate(0 0)" opacity="0.2"/>
        <g id="iconfinder_25_social_2609558-3" data-name="iconfinder_25_social_2609558" transform="translate(8.884 9.975)">
          <path id="Caminho_936" data-name="Caminho 936" d="M31.981,24.8A7.178,7.178,0,0,1,24.8,31.981H7.177A7.182,7.182,0,0,1,0,24.8V7.177A7.182,7.182,0,0,1,7.177,0H24.8a7.182,7.182,0,0,1,7.177,7.177Z" transform="translate(0 0)" fill="#02d736"/>
          <g id="Grupo_857" data-name="Grupo 857" transform="translate(7.951 7.903)">
            <path id="Caminho_937" data-name="Caminho 937" d="M0,16.17c.093-.352.167-.654.253-.957.266-.969.537-1.939.79-2.914a.722.722,0,0,0-.049-.469A8.016,8.016,0,1,1,4.458,15.2a.8.8,0,0,0-.494-.049C1.84,15.688.426,16.083,0,16.17Zm1.865-1.84c.8-.21,1.531-.4,2.266-.6a.667.667,0,0,1,.55.08,6.564,6.564,0,0,0,4.439.84,6.7,6.7,0,1,0-6.9-3.384,1.4,1.4,0,0,1,.148,1.272C2.161,13.1,2.038,13.688,1.865,14.33Z" transform="translate(0 0)" fill="#fff" fill-rule="evenodd"/>
            <path id="Caminho_938" data-name="Caminho 938" d="M6.155,7.546C4.587,7.49,2.1,6.255.388,3.285A2.408,2.408,0,0,1,.759.2,1.138,1.138,0,0,1,1.79.05c.086.012.179.148.222.247.228.519.451,1.037.648,1.562.1.284-.086.543-.494,1.006a.35.35,0,0,0-.056.457A5.455,5.455,0,0,0,4.889,5.712a.333.333,0,0,0,.42-.111c.642-.778.7-1.006,1.043-.852,1.618.778,1.747.809,1.754.988A1.758,1.758,0,0,1,6.155,7.546Z" transform="translate(3.996 4.321)" fill="#fff" fill-rule="evenodd"/>
          </g>
        </g>
      </g>
      <g id="Grupo_871" data-name="Grupo 871" transform="matrix(0.966, 0.259, -0.259, 0.966, 984.782, 399.801)">
        <rect id="Retângulo_928" data-name="Retângulo 928" width="45.306" height="45.306" rx="7" opacity="0.2"/>
        <g id="iconfinder_25_social_2609558-4" data-name="iconfinder_25_social_2609558" transform="translate(4.311 10.23)">
          <path id="Caminho_939" data-name="Caminho 939" d="M31.981,24.8A7.178,7.178,0,0,1,24.8,31.981H7.177A7.182,7.182,0,0,1,0,24.8V7.177A7.182,7.182,0,0,1,7.177,0H24.8a7.182,7.182,0,0,1,7.177,7.177Z" transform="translate(0 0)" fill="#00a2f2"/>
          <path id="Caminho_940" data-name="Caminho 940" d="M5.392,11.321a3.665,3.665,0,0,1-3.4-2.533,3.576,3.576,0,0,0,1.567-.05c.013,0,.025-.013.05-.025a3.648,3.648,0,0,1-2.37-1.674A3.56,3.56,0,0,1,.708,5.1a3.623,3.623,0,0,0,1.624.445,3.692,3.692,0,0,1-1.5-2.213A3.615,3.615,0,0,1,1.216.682a10.431,10.431,0,0,0,7.53,3.812c-.019-.144-.044-.27-.056-.4A3.555,3.555,0,0,1,9.223,1.7,3.506,3.506,0,0,1,11.7.055a3.57,3.57,0,0,1,3.2,1.016.187.187,0,0,0,.194.056A7.423,7.423,0,0,0,17.216.312c.019-.006.031-.019.05-.025h.025A3.752,3.752,0,0,1,15.73,2.274a6.916,6.916,0,0,0,2.031-.545c.006.006.013.013.013.019-.138.182-.276.37-.42.545a7.231,7.231,0,0,1-1.329,1.26.126.126,0,0,0-.063.113,10.057,10.057,0,0,1-.069,1.624,10.858,10.858,0,0,1-.94,3.248,10.543,10.543,0,0,1-1.975,2.878,9.791,9.791,0,0,1-5.016,2.8,11.672,11.672,0,0,1-2.031.245A10.329,10.329,0,0,1,.088,12.889c-.025-.013-.044-.031-.088-.056a7.373,7.373,0,0,0,3.649-.5A6.939,6.939,0,0,0,5.392,11.321Z" transform="translate(7.598 8.751)" fill="#fff" fill-rule="evenodd"/>
        </g>
      </g>
    </g>
    <text id="_" data-name="+" transform="translate(877.148 431.455)" fill="#0054b2" font-size="28" font-family="TIMSans-Bold, TIM Sans" font-weight="700"><tspan x="-8.26" y="0">+</tspan></text>
  </g>
</svg>
