<svg xmlns="http://www.w3.org/2000/svg" xmlns:xlink="http://www.w3.org/1999/xlink" width="272.27" height="61.957" viewBox="0 0 272.27 61.957">
  <defs>
    <radialGradient id="radial-gradient" cx="6.889" cy="-1.821" r="31.167" gradientTransform="matrix(1, 0, 0, -1, 0, -3.642)" gradientUnits="userSpaceOnUse">
      <stop offset="0.097" stop-color="#ffd87a"/>
      <stop offset="0.143" stop-color="#fcce78"/>
      <stop offset="0.226" stop-color="#f5b471"/>
      <stop offset="0.338" stop-color="#eb8d65"/>
      <stop offset="0.449" stop-color="#e36058"/>
      <stop offset="0.679" stop-color="#cd3694"/>
      <stop offset="1" stop-color="#6668b0"/>
    </radialGradient>
  </defs>
  <g id="Grupo_940" data-name="Grupo 940" transform="translate(-1196 -394)">
    <g id="Grupo_896" data-name="Grupo 896" transform="translate(1353.369 412.219)">
      <g id="Grupo_873" data-name="Grupo 873" transform="translate(43.688 10.418)">
        <rect id="Retângulo_927" data-name="Retângulo 927" width="29.4" height="33.32" rx="7" opacity="0.2"/>
        <g id="iconfinder_25_social_2609558" transform="translate(26.786 31.229) rotate(180)">
          <path id="Caminho_930" data-name="Caminho 930" d="M23.52,5.37A5.368,5.368,0,0,0,18.15,0H5.37A5.368,5.368,0,0,0,0,5.37V18.145A5.376,5.376,0,0,0,5.375,23.52H18.067a5.45,5.45,0,0,0,5.453-5.453Z" fill="url(#radial-gradient)"/>
          <g id="Grupo_856" data-name="Grupo 856" transform="translate(3.201 3.206)">
            <path id="Caminho_931" data-name="Caminho 931" d="M11.844,17.108H5.274A5.275,5.275,0,0,1,0,11.835V5.269A5.268,5.268,0,0,1,5.274,0h6.566a5.267,5.267,0,0,1,5.269,5.269v6.566A5.261,5.261,0,0,1,11.844,17.108ZM15.47,5.9a4.257,4.257,0,0,0-4.259-4.259H5.906A4.257,4.257,0,0,0,1.647,5.9v5.306a4.257,4.257,0,0,0,4.259,4.259h5.306a4.26,4.26,0,0,0,4.259-4.259Z" fill="#fff"/>
            <path id="Caminho_932" data-name="Caminho 932" d="M4.436,9.144A4.5,4.5,0,0,1,0,4.572,4.506,4.506,0,0,1,4.436,0,4.506,4.506,0,0,1,8.873,4.572,4.509,4.509,0,0,1,4.436,9.144Zm0-7.319a2.71,2.71,0,0,0-2.67,2.751,2.71,2.71,0,0,0,2.67,2.751,2.713,2.713,0,0,0,2.67-2.751A2.716,2.716,0,0,0,4.436,1.825Z" transform="translate(4.357 3.951)" fill="#fff"/>
            <path id="Caminho_933" data-name="Caminho 933" d="M2.252,1.126A1.126,1.126,0,1,0,1.126,2.257,1.126,1.126,0,0,0,2.252,1.126Z" transform="translate(11.868 11.984)" fill="#fff"/>
          </g>
        </g>
      </g>
      <g id="Grupo_870" data-name="Grupo 870" transform="matrix(0.966, 0.259, -0.259, 0.966, 9.998, 0)">
        <rect id="Retângulo_925" data-name="Retângulo 925" width="33.32" height="33.32" rx="7" transform="translate(0.544 0)" opacity="0.2"/>
        <g id="iconfinder_25_social_2609558-2" data-name="iconfinder_25_social_2609558" transform="translate(14.132 0.019) rotate(30)">
          <path id="Caminho_934" data-name="Caminho 934" d="M27.558,13.866a5.279,5.279,0,0,1-1.932,7.21L14.4,27.557a5.282,5.282,0,0,1-7.21-1.932L.707,14.4a5.282,5.282,0,0,1,1.932-7.21L13.866.707a5.282,5.282,0,0,1,7.21,1.932Z" transform="translate(0)" fill="#006eea"/>
          <path id="Caminho_935" data-name="Caminho 935" d="M3.4,2.444c.34-.212.691-.4,1.038-.6l.141-.081L3.563,0c-.2.087-.4.176-.6.279C2.6.469,2.233.658,1.879.873A3.09,3.09,0,0,0,.636,2.193,2.513,2.513,0,0,0,.58,4.182a6.067,6.067,0,0,0,.371.792c.219.4.454.787.683,1.184l.086.149L0,7.3,1.133,9.264l1.714-.989,2.847,4.932L7.787,12,4.941,7.07l1.709-.987c-.288-.7-.576-1.4-.876-2.122l-.383.221c-.486.286-1.6.924-1.6.924S3.235,4.133,3,3.7A.851.851,0,0,1,3.4,2.444Z" transform="translate(10.394 7.097)" fill="#fff" fill-rule="evenodd"/>
        </g>
      </g>
      <g id="Grupo_871" data-name="Grupo 871" transform="matrix(0.966, -0.259, 0.259, 0.966, 69.37, 10.03)">
        <rect id="Retângulo_928" data-name="Retângulo 928" width="33.32" height="33.32" rx="7" transform="translate(4.888 0)" opacity="0.2"/>
        <g id="iconfinder_25_social_2609558-3" data-name="iconfinder_25_social_2609558" transform="translate(0 14.157) rotate(-30)">
          <path id="Caminho_939" data-name="Caminho 939" d="M21.076,25.625a5.279,5.279,0,0,1-7.21,1.932L2.639,21.076a5.282,5.282,0,0,1-1.932-7.21L7.189,2.639A5.282,5.282,0,0,1,14.4.707L25.625,7.189a5.282,5.282,0,0,1,1.932,7.21Z" transform="translate(0)" fill="#00a2f2"/>
          <path id="Caminho_940" data-name="Caminho 940" d="M3.99,8.312A2.7,2.7,0,0,1,2.757,5.449a2.63,2.63,0,0,0,1.017.544c.008,0,.021,0,.041,0a2.683,2.683,0,0,1-.894-1.938A2.618,2.618,0,0,1,3.3,2.624a2.664,2.664,0,0,0,.871.881,2.715,2.715,0,0,1-.145-1.963A2.659,2.659,0,0,1,5.243,0,7.672,7.672,0,0,0,8.637,5.2c.041-.1.071-.188.112-.276A2.614,2.614,0,0,1,9.966,3.595a2.578,2.578,0,0,1,2.184-.14,2.625,2.625,0,0,1,1.663,1.823.138.138,0,0,0,.1.107,5.459,5.459,0,0,0,1.653.262c.014,0,.027,0,.041,0l.016.009a2.759,2.759,0,0,1-1.725.692,5.087,5.087,0,0,0,1.494.4.024.024,0,0,1,0,.017c-.155.065-.312.134-.468.193a5.318,5.318,0,0,1-1.31.314.093.093,0,0,0-.081.049A7.4,7.4,0,0,1,12.9,8.332,7.986,7.986,0,0,1,11.1,10.055a7.754,7.754,0,0,1-2.316,1.107A7.2,7.2,0,0,1,4.564,11.1a8.584,8.584,0,0,1-1.384-.591A7.6,7.6,0,0,1,.035,7.36C.024,7.342.019,7.324,0,7.291A5.422,5.422,0,0,0,2.508,8.314,5.1,5.1,0,0,0,3.99,8.312Z" transform="translate(6.73 7.316)" fill="#fff" fill-rule="evenodd"/>
        </g>
      </g>
    </g>
    <g id="Grupo_898" data-name="Grupo 898" transform="translate(1196 394)">
      <g id="Grupo_873-2" data-name="Grupo 873" transform="matrix(0.996, 0.087, -0.087, 0.996, 75.334, 0)">
        <rect id="Retângulo_927-2" data-name="Retângulo 927" width="29.4" height="33.32" rx="7" opacity="0.2"/>
        <g id="iconfinder_25_social_2609558-4" data-name="iconfinder_25_social_2609558" transform="translate(3.267 7.336)">
          <path id="Caminho_930-2" data-name="Caminho 930" d="M23.52,18.15a5.368,5.368,0,0,1-5.37,5.37H5.37A5.368,5.368,0,0,1,0,18.15V5.375A5.376,5.376,0,0,1,5.375,0H18.067A5.45,5.45,0,0,1,23.52,5.453Z" transform="translate(0 0)" fill="#fff"/>
          <g id="iconfinder_370_Waze_logo_4375158" transform="translate(5.255 2.816) rotate(11)">
            <circle id="Elipse_64" data-name="Elipse 64" cx="8.269" cy="8.269" r="8.269" transform="translate(0 0)" fill="#139bd0"/>
            <path id="Caminho_946" data-name="Caminho 946" d="M4.424,5.46c-.318.31-.634.615-.947.923a.494.494,0,0,1-.389.159.2.2,0,0,1-.2-.154c-.24-.744-.483-1.486-.721-2.23a.174.174,0,0,0-.13-.13Q1.19,3.769.346,3.5A.961.961,0,0,1,.1,3.385a.177.177,0,0,1-.029-.3A1.144,1.144,0,0,1,.4,2.882c.69-.273,1.384-.538,2.076-.805L7.747.041A.376.376,0,0,1,8.3.456a6.229,6.229,0,0,1-.13.687Q7.6,3.846,7.026,6.549c-.091.428-.392.54-.744.28L4.514,5.523ZM3.1,6.007,3.12,6a.414.414,0,0,0,.01-.05c.038-.409.078-.817.111-1.226a.3.3,0,0,1,.107-.217q.815-.729,1.625-1.463.9-.811,1.8-1.623a.5.5,0,0,0,.078-.137A.507.507,0,0,0,6.68,1.27a.731.731,0,0,0-.2.1Q4.5,2.617,2.515,3.867a.119.119,0,0,0-.06.169c.1.28.186.563.278.845Z" transform="translate(4.116 4.785)" fill="#fff" fill-rule="evenodd"/>
          </g>
        </g>
      </g>
      <g id="Grupo_872" data-name="Grupo 872" transform="matrix(0.996, -0.087, 0.087, 0.996, 39.11, 2.562)">
        <rect id="Retângulo_926" data-name="Retângulo 926" width="29.4" height="33.32" rx="7" transform="translate(0 0)" opacity="0.2"/>
        <g id="iconfinder_25_social_2609558-5" data-name="iconfinder_25_social_2609558" transform="translate(3.267 7.524)">
          <path id="Caminho_934-2" data-name="Caminho 934" d="M23.52,18.242a5.279,5.279,0,0,1-5.278,5.278H5.278A5.282,5.282,0,0,1,0,18.242V5.278A5.282,5.282,0,0,1,5.278,0H18.242A5.282,5.282,0,0,1,23.52,5.278Z" transform="translate(0 0)" fill="#fff"/>
          <path id="Facebook_Messenger" d="M8.079,9.163l-1.871-2-3.652,2L6.573,4.9l1.917,2,3.606-2ZM7.349,0A7.092,7.092,0,0,0,0,6.8a6.616,6.616,0,0,0,2.739,5.3V14.7l2.5-1.373a7.9,7.9,0,0,0,2.108.285A7.092,7.092,0,0,0,14.7,6.8,7.092,7.092,0,0,0,7.349,0Z" transform="matrix(1, -0.017, 0.017, 1, 4.688, 4.682)" fill="#007fff" fill-rule="evenodd"/>
        </g>
      </g>
      <g id="Grupo_870-2" data-name="Grupo 870" transform="matrix(0.966, -0.259, 0.259, 0.966, 0, 12.631)">
        <rect id="Retângulo_925-2" data-name="Retângulo 925" width="33.32" height="33.32" rx="7" transform="translate(0 0)" opacity="0.2"/>
        <g id="iconfinder_25_social_2609558-6" data-name="iconfinder_25_social_2609558" transform="translate(6.533 7.336)">
          <path id="Caminho_936" data-name="Caminho 936" d="M23.52,18.242a5.279,5.279,0,0,1-5.278,5.278H5.278A5.282,5.282,0,0,1,0,18.242V5.278A5.282,5.282,0,0,1,5.278,0H18.242A5.282,5.282,0,0,1,23.52,5.278Z" transform="translate(0 0)" fill="#02d736"/>
          <g id="Grupo_857" data-name="Grupo 857" transform="translate(5.848 5.812)">
            <path id="Caminho_937" data-name="Caminho 937" d="M0,11.892c.068-.259.123-.481.186-.7.2-.713.4-1.426.581-2.143A.531.531,0,0,0,.731,8.7a5.9,5.9,0,1,1,2.547,2.479.586.586,0,0,0-.363-.036C1.353,11.538.313,11.828,0,11.892Zm1.371-1.353c.586-.154,1.126-.291,1.666-.44a.49.49,0,0,1,.4.059,4.828,4.828,0,0,0,3.265.618A4.927,4.927,0,1,0,1.63,8.286a1.027,1.027,0,0,1,.109.935C1.589,9.635,1.5,10.066,1.371,10.539Z" transform="translate(0 0)" fill="#fff" fill-rule="evenodd"/>
            <path id="Caminho_938" data-name="Caminho 938" d="M4.527,5.549A5.7,5.7,0,0,1,.286,2.416,1.771,1.771,0,0,1,.558.15.837.837,0,0,1,1.316.037c.064.009.132.109.163.182.168.381.331.763.477,1.149.077.209-.064.4-.363.74a.258.258,0,0,0-.041.336A4.012,4.012,0,0,0,3.6,4.2.245.245,0,0,0,3.9,4.119c.472-.572.518-.74.767-.627,1.19.572,1.285.595,1.29.727A1.293,1.293,0,0,1,4.527,5.549Z" transform="translate(2.938 3.178)" fill="#fff" fill-rule="evenodd"/>
          </g>
        </g>
      </g>
      <g id="Grupo_871-2" data-name="Grupo 871" transform="matrix(0.966, 0.259, -0.259, 0.966, 111.196, 4.007)">
        <rect id="Retângulo_928-2" data-name="Retângulo 928" width="33.32" height="33.32" rx="7" opacity="0.2"/>
        <g id="iconfinder_25_social_2609558-7" data-name="iconfinder_25_social_2609558" transform="translate(3.17 7.524)">
          <path id="Caminho_939-2" data-name="Caminho 939" d="M23.52,18.242a5.279,5.279,0,0,1-5.278,5.278H5.278A5.282,5.282,0,0,1,0,18.242V5.278A5.282,5.282,0,0,1,5.278,0H18.242A5.282,5.282,0,0,1,23.52,5.278Z" transform="translate(0 0)" fill="#42d5ff"/>
        </g>
        <g id="_x33_70-waze" transform="translate(6.828 12.282)">
          <g id="Grupo_909" data-name="Grupo 909" transform="translate(0 0)">
            <path id="Caminho_941" data-name="Caminho 941" d="M15.334,6.246A6.5,6.5,0,0,0,8.625,0a6.5,6.5,0,0,0-6.7,6.32A2.84,2.84,0,0,1,1.54,8.233a1.309,1.309,0,0,1-1.061.415A.48.48,0,0,0,0,9.129c0,1.331.976,2.259,2.959,2.8a1.918,1.918,0,1,0,3.749.565c0-.015,0-.03,0-.046q.9.045,1.918.046a1.917,1.917,0,1,0,3.575-.963A6.163,6.163,0,0,0,15.334,6.246Z" fill="#2d2c2c"/>
            <path id="Caminho_942" data-name="Caminho 942" d="M10.464,9.864a1.913,1.913,0,0,0-2.609.7c-.086,0-.173.006-.26.006q-1.2,0-2.212-.063a1.912,1.912,0,0,0-2.92-.39C1.071,9.787.239,9.277,0,8.6a2.086,2.086,0,0,0,1.237-.7,3.658,3.658,0,0,0,.607-2.612A5.538,5.538,0,0,1,7.594,0a5.538,5.538,0,0,1,5.75,5.285A5.23,5.23,0,0,1,10.464,9.864Z" transform="translate(1.031 0.961)" fill="#fff"/>
            <path id="Caminho_943" data-name="Caminho 943" d="M.484.961A.48.48,0,0,0,.484,0H.474A.476.476,0,0,0,0,.481.484.484,0,0,0,.484.961Z" transform="translate(6.244 4.324)" fill="#2d2c2c"/>
            <path id="Caminho_944" data-name="Caminho 944" d="M.484.961A.48.48,0,0,0,.484,0H.474A.476.476,0,0,0,0,.481.485.485,0,0,0,.484.961Z" transform="translate(10.077 4.324)" fill="#2d2c2c"/>
            <path id="Caminho_945" data-name="Caminho 945" d="M5.377.012A.48.48,0,0,0,4.8.375,1.967,1.967,0,0,1,2.875,1.922,1.967,1.967,0,0,1,.947.375.48.48,0,1,0,.012.586a2.921,2.921,0,0,0,2.864,2.3A2.922,2.922,0,0,0,5.74.586.481.481,0,0,0,5.377.012Z" transform="translate(5.75 6.727)" fill="#2d2c2c"/>
          </g>
        </g>
      </g>
    </g>
    <text id="_" data-name="+" transform="translate(1346.38 437.937)" fill="#0054b2" font-size="25" font-family="TIMSans-Bold, TIM Sans" font-weight="700"><tspan x="-7.375" y="0">+</tspan></text>
  </g>
</svg>
