<svg width="20" height="15" viewBox="0 0 20 15" fill="none" xmlns="http://www.w3.org/2000/svg">
<path d="M16.8912 0.47823C17.2368 0.168099 17.6967 -0.0033534 18.1739 4.97078e-05C18.651 0.00345282 19.1081 0.181446 19.4487 0.496471C19.7893 0.811495 19.9867 1.23891 19.9994 1.68853C20.012 2.13815 19.8388 2.5748 19.5163 2.90635L9.72714 14.4457C9.55881 14.6166 9.35565 14.7537 9.1298 14.8489C8.90396 14.9441 8.66007 14.9954 8.41271 14.9997C8.16536 15.004 7.91962 14.9613 7.69019 14.874C7.46076 14.7868 7.25236 14.6568 7.07743 14.4919L0.585654 8.37308C0.404869 8.2143 0.259866 8.02282 0.159295 7.81008C0.0587241 7.59733 0.00464558 7.36767 0.000286364 7.13479C-0.00407285 6.90192 0.0413766 6.6706 0.133923 6.45464C0.226468 6.23868 0.364215 6.0425 0.538946 5.87781C0.713676 5.71312 0.921809 5.58328 1.15093 5.49605C1.38005 5.40882 1.62547 5.36599 1.87253 5.3701C2.1196 5.3742 2.36326 5.42518 2.58897 5.51997C2.81469 5.61476 3.01783 5.75144 3.18629 5.92184L8.32378 10.7619L16.8445 0.529106C16.8599 0.511301 16.8763 0.494316 16.8936 0.47823H16.8912Z" fill="#003264"/>
</svg>
