<svg xmlns="http://www.w3.org/2000/svg" xmlns:xlink="http://www.w3.org/1999/xlink" width="120.992" height="120.992" viewBox="0 0 120.992 120.992">
  <defs>
    <linearGradient id="linear-gradient" x1="0.5" x2="1" y2="1" gradientUnits="objectBoundingBox">
      <stop offset="0" stop-color="#a4c540"/>
      <stop offset="1" stop-color="#f9ed25"/>
    </linearGradient>
    <filter id="Interseção_1" x="0" y="0" width="120.992" height="120.992" filterUnits="userSpaceOnUse">
      <feOffset dy="3" input="SourceAlpha"/>
      <feGaussianBlur stdDeviation="3" result="blur"/>
      <feFlood flood-opacity="0.22"/>
      <feComposite operator="in" in2="blur"/>
      <feComposite in="SourceGraphic"/>
    </filter>
  </defs>
  <g id="Grupo_992" data-name="Grupo 992" transform="translate(9638.992 1244)">
    <g transform="matrix(1, 0, 0, 1, -9638.99, -1244)" filter="url(#Interseção_1)">
      <path id="Interseção_1-2" data-name="Interseção 1" d="M197.008,53.717h57.983L300,98.725v57.983Z" transform="translate(-188.01 -47.72)" fill="url(#linear-gradient)"/>
    </g>
    <path id="Caminho_951" data-name="Caminho 951" d="M-23.19.15a4.814,4.814,0,0,1-2.573-.66,4.262,4.262,0,0,1-1.642-1.882,6.738,6.738,0,0,1-.57-2.873,6.92,6.92,0,0,1,.63-3.09,4.456,4.456,0,0,1,1.762-1.935,5.073,5.073,0,0,1,2.6-.66,5.08,5.08,0,0,1,2.85.75q.12.075.12.15a1.125,1.125,0,0,1-.15.375l-.12.225q-.165.3-.27.3a.256.256,0,0,1-.12-.045,5.111,5.111,0,0,0-2.19-.54A3.269,3.269,0,0,0-25.538-8.6a5,5,0,0,0-.937,3.255,4.837,4.837,0,0,0,.915,3.188,3.293,3.293,0,0,0,2.67,1.087,6.048,6.048,0,0,0,2.31-.5l.12-.03a.13.13,0,0,1,.1.06,1.834,1.834,0,0,1,.135.24l.1.24a1.377,1.377,0,0,1,.12.36q0,.075-.12.15A6.661,6.661,0,0,1-23.19.15Zm7.5,0A3.253,3.253,0,0,1-17.94-.6a3.181,3.181,0,0,1-.878-1.313,5.28,5.28,0,0,1-.308-1.867A4.573,4.573,0,0,1-18.12-6.968a3.511,3.511,0,0,1,2.73-1.1,3.253,3.253,0,0,1,2.25.75,3.181,3.181,0,0,1,.878,1.313,5.281,5.281,0,0,1,.307,1.868A4.573,4.573,0,0,1-12.96-.953,3.511,3.511,0,0,1-15.69.15Zm.06-1.2A2.058,2.058,0,0,0-14-1.785a3.367,3.367,0,0,0,.637-2.25,3.935,3.935,0,0,0-.48-2.01,1.708,1.708,0,0,0-1.6-.825,2.058,2.058,0,0,0-1.628.735,3.367,3.367,0,0,0-.637,2.25,3.935,3.935,0,0,0,.48,2.01A1.708,1.708,0,0,0-15.63-1.05ZM-9.465,0A2.227,2.227,0,0,1-10-.038.143.143,0,0,1-10.11-.18V-5.3l-.015-1.77q-.015-.3-.015-.675a.143.143,0,0,1,.113-.142,2.034,2.034,0,0,1,.5-.037h.075a2.034,2.034,0,0,1,.5.037.143.143,0,0,1,.112.142l.015.675h.015A2.773,2.773,0,0,1-7.74-7.793,3.6,3.6,0,0,1-6.36-8.07a3.2,3.2,0,0,1,1.148.2,2.446,2.446,0,0,1,.908.593A2.459,2.459,0,0,1-3.72-6.248a5.45,5.45,0,0,1,.18,1.523V-.18a.145.145,0,0,1-.105.135A1.7,1.7,0,0,1-4.155,0h-.09a2.227,2.227,0,0,1-.532-.038A.143.143,0,0,1-4.89-.18V-4.1a9.927,9.927,0,0,0-.075-1.447A1.523,1.523,0,0,0-5.3-6.3,1.754,1.754,0,0,0-6.72-6.8a2.921,2.921,0,0,0-.885.142,1.706,1.706,0,0,0-.7.4,1.063,1.063,0,0,0-.262.383,2.5,2.5,0,0,0-.142.683q-.045.63-.045,2.055V-.18a.145.145,0,0,1-.105.135A1.7,1.7,0,0,1-9.375,0ZM.975.15a2.1,2.1,0,0,1-1.5-.5A1.624,1.624,0,0,1-.968-1.1,4.7,4.7,0,0,1-1.1-2.325v-4.53H-2.4a.094.094,0,0,1-.1-.075A1.084,1.084,0,0,1-2.52-7.2v-.09a.833.833,0,0,1,.03-.263.138.138,0,0,1,.105-.1A2.608,2.608,0,0,0-1.4-8.115a1.614,1.614,0,0,0,.488-.713A5.328,5.328,0,0,0-.69-10.02a.123.123,0,0,1,.1-.1A1.478,1.478,0,0,1-.27-10.14h.105a1.207,1.207,0,0,1,.33.03q.09.03.09.1V-7.92h1.89q.075,0,.105.09a1.462,1.462,0,0,1,.03.375v.12a1.553,1.553,0,0,1-.03.39q-.03.09-.105.09H.255V-2.43A4.037,4.037,0,0,0,.307-1.7a.861.861,0,0,0,.188.42A1,1,0,0,0,1.26-1a3.766,3.766,0,0,0,1.02-.2.167.167,0,0,1,.075-.015.127.127,0,0,1,.105.067A.871.871,0,0,1,2.55-.9l.045.195a1.444,1.444,0,0,1,.045.3.227.227,0,0,1-.09.18,2.1,2.1,0,0,1-.7.278A3.967,3.967,0,0,1,.975.15ZM4.77,0a2.227,2.227,0,0,1-.533-.038A.143.143,0,0,1,4.125-.18V-5.3L4.11-7.065q-.015-.3-.015-.675a.143.143,0,0,1,.113-.142,2.034,2.034,0,0,1,.5-.037h.075a2.034,2.034,0,0,1,.5.037A.143.143,0,0,1,5.4-7.74L5.43-6.2A3.464,3.464,0,0,1,6.412-7.56,1.939,1.939,0,0,1,7.62-8.01a1.6,1.6,0,0,1,.315.03.137.137,0,0,1,.128.09,1.468,1.468,0,0,1,.022.33v.225a2.069,2.069,0,0,1-.03.45.13.13,0,0,1-.135.105,1.879,1.879,0,0,0-1.185.36A3.616,3.616,0,0,0,5.88-5.415a2.794,2.794,0,0,0-.36,1.29q-.045.63-.045,2.22V-.18a.145.145,0,0,1-.105.135A1.7,1.7,0,0,1,4.86,0Zm7.455.15A3.253,3.253,0,0,1,9.975-.6,3.181,3.181,0,0,1,9.1-1.913,5.28,5.28,0,0,1,8.79-3.78,4.573,4.573,0,0,1,9.8-6.968a3.511,3.511,0,0,1,2.73-1.1,3.253,3.253,0,0,1,2.25.75,3.181,3.181,0,0,1,.878,1.313A5.281,5.281,0,0,1,15.96-4.14,4.573,4.573,0,0,1,14.955-.953,3.511,3.511,0,0,1,12.225.15Zm.06-1.2a2.058,2.058,0,0,0,1.628-.735,3.367,3.367,0,0,0,.637-2.25,3.935,3.935,0,0,0-.48-2.01,1.708,1.708,0,0,0-1.6-.825,2.058,2.058,0,0,0-1.628.735,3.367,3.367,0,0,0-.637,2.25,3.935,3.935,0,0,0,.48,2.01A1.708,1.708,0,0,0,12.285-1.05ZM19.08.015A1.243,1.243,0,0,1,17.97-.5a1.54,1.54,0,0,1-.2-.585,6.526,6.526,0,0,1-.06-.99V-7.1q0-3.405-.09-4.11-.015-.1.12-.15a1.976,1.976,0,0,1,.525-.045h.09a1.859,1.859,0,0,1,.465.037.209.209,0,0,1,.15.158q.09.51.09,4.44v4.98a1.16,1.16,0,0,0,.1.592q.105.158.465.158h.15q.06,0,.075.075a2.186,2.186,0,0,1,.015.33v.045A2.87,2.87,0,0,1,19.86-.2a.107.107,0,0,1-.075.1A2.047,2.047,0,0,1,19.08.015ZM24.825.15A3.5,3.5,0,0,1,22.1-.893,4.142,4.142,0,0,1,21.15-3.78a5.355,5.355,0,0,1,.443-2.235A3.515,3.515,0,0,1,22.845-7.53a3.354,3.354,0,0,1,1.9-.54,3.059,3.059,0,0,1,1.665.435A2.97,2.97,0,0,1,27.5-6.42a5.321,5.321,0,0,1,.5,2.4,1.964,1.964,0,0,1-.03.435.122.122,0,0,1-.12.105H22.56a2.511,2.511,0,0,0,.75,1.86,2.6,2.6,0,0,0,1.77.54,4.776,4.776,0,0,0,1.98-.48l.12-.03q.12,0,.255.315l.075.18a1.031,1.031,0,0,1,.12.405.155.155,0,0,1-.09.15A5.244,5.244,0,0,1,24.825.15ZM26.61-4.59a2.738,2.738,0,0,0-.487-1.59,1.568,1.568,0,0,0-1.358-.66,1.972,1.972,0,0,0-1.432.563A2.8,2.8,0,0,0,22.6-4.59Z" transform="translate(-9566.535 -1196.464) rotate(45)" fill="#004691"/>
  </g>
</svg>
