<svg xmlns="http://www.w3.org/2000/svg" width="44.249" height="65.563" viewBox="0 0 44.249 65.563">
  <g id="ico-man" transform="translate(-78.033 0)">
    <path id="Caminho_2918" data-name="Caminho 2918" d="M128.1,64.929v5.362A1.092,1.092,0,0,1,127,71.384H87.125a1.092,1.092,0,0,1-1.093-1.093V64.929A10.185,10.185,0,0,1,96.219,54.745a5.655,5.655,0,0,0,4.747-2.576,6.419,6.419,0,0,0,.908-4l.02-.051a13.522,13.522,0,0,1-8.351-12.5v-.427a3.369,3.369,0,0,1-3.414-3.351V26.165c-.044-1.976.046-8.945,5.08-13.8,5.853-5.642,15.129-5.18,21.849-2.162a.274.274,0,0,1-.01.5l-1.752.721a.273.273,0,0,0,.075.524l.851.092a13.785,13.785,0,0,1,10.2,6.33.293.293,0,0,1-.036.337,8.263,8.263,0,0,0-2.256,5.676v7.453a3.352,3.352,0,0,1-3.351,3.351h-.2v.427a13.522,13.522,0,0,1-8.351,12.5l.02.051a6.417,6.417,0,0,0,.908,4,5.655,5.655,0,0,0,4.747,2.576A10.185,10.185,0,0,1,128.1,64.929Z" transform="translate(-6.907 -6.913)" fill="#d1e7ff"/>
    <path id="Caminho_2919" data-name="Caminho 2919" d="M128.1,344.133v5.362A1.093,1.093,0,0,1,127,350.587H87.125a1.093,1.093,0,0,1-1.093-1.093v-5.362a10.186,10.186,0,0,1,10.186-10.184,5.655,5.655,0,0,0,4.748-2.576,9.375,9.375,0,0,0,12.2,0,5.655,5.655,0,0,0,4.748,2.576A10.186,10.186,0,0,1,128.1,344.133Z" transform="translate(-6.907 -286.117)" fill="#b9dcff"/>
    <path id="Caminho_2920" data-name="Caminho 2920" d="M152.293,18.376a.29.29,0,0,1-.035.336A8.268,8.268,0,0,0,150,24.389v7.453a3.358,3.358,0,0,1-3.551,3.351V26.757A6.555,6.555,0,0,0,139.9,20.2h-13.93a6.555,6.555,0,0,0-6.555,6.555v8.436A3.369,3.369,0,0,1,116,31.841V26.165c-.044-1.976.046-8.945,5.08-13.8,5.853-5.642,15.13-5.18,21.848-2.162a.274.274,0,0,1-.009.5l-1.752.721a.273.273,0,0,0,.075.524l.851.091A13.779,13.779,0,0,1,152.293,18.376Z" transform="translate(-32.773 -6.914)" fill="#b9dcff"/>
    <path id="Caminho_2921" data-name="Caminho 2921" d="M168.073,112.712a13.524,13.524,0,1,1-27.041-.427v-8.436a6.555,6.555,0,0,1,6.555-6.555h13.93a6.555,6.555,0,0,1,6.555,6.555Z" transform="translate(-54.395 -84.005)" fill="#d1e7ff"/>
    <path id="Caminho_2922" data-name="Caminho 2922" d="M151.491,134.958a2.159,2.159,0,0,1-1.963,3.825,13.523,13.523,0,0,1-8.5-12.555v-8.863a6.526,6.526,0,0,1,1.15-3.71,1.615,1.615,0,0,1,2.947.979V123.5a13.422,13.422,0,0,0,6.362,11.462Z" transform="translate(-54.395 -97.52)" fill="#e8f3ff"/>
    <path id="Caminho_2923" data-name="Caminho 2923" d="M211.59,303.986a13.558,13.558,0,0,1-10.688,0,8.463,8.463,0,0,0,.154-2.243l.02-.051a13.549,13.549,0,0,0,10.338,0l.02.051a8.461,8.461,0,0,0,.154,2.243Z" transform="translate(-106.089 -260.49)" fill="#b9dcff"/>
    <path id="Caminho_2924" data-name="Caminho 2924" d="M101.721,337.248a5.556,5.556,0,0,1-1.627.251,10.213,10.213,0,0,0-10.238,10.149v1.027a1.912,1.912,0,0,1-1.912,1.912h-.819a1.093,1.093,0,0,1-1.093-1.093v-5.362a10.186,10.186,0,0,1,10.186-10.184,5.655,5.655,0,0,0,4.748-2.576,9.452,9.452,0,0,0,1.3.932A2.728,2.728,0,0,1,101.721,337.248Z" transform="translate(-6.906 -286.117)" fill="#d1e7ff"/>
    <path id="Caminho_2925" data-name="Caminho 2925" d="M267.247,337.248a5.556,5.556,0,0,0,1.627.251,10.213,10.213,0,0,1,10.238,10.149v1.027a1.912,1.912,0,0,0,1.912,1.912h.819a1.093,1.093,0,0,0,1.093-1.093v-5.362a10.186,10.186,0,0,0-10.186-10.184A5.655,5.655,0,0,1,268,331.373a9.452,9.452,0,0,1-1.3.932A2.728,2.728,0,0,0,267.247,337.248Z" transform="translate(-161.747 -286.117)" fill="#a2d0ff"/>
    <path id="Caminho_2926" data-name="Caminho 2926" d="M142.916,10.708c-1.606.661-1.835.807-2.391.72-8.969-1.39-16.838,2.321-19.511,11.033h0a6.523,6.523,0,0,0-1.6,4.294v5.125a1.707,1.707,0,1,1-3.414-.04V26.165c-.044-1.976.046-8.945,5.08-13.8,5.853-5.642,15.129-5.18,21.849-2.162A.274.274,0,0,1,142.916,10.708Z" transform="translate(-32.774 -6.913)" fill="#d1e7ff"/>
    <path id="Caminho_2927" data-name="Caminho 2927" d="M122.282,58.017v6.454a1.093,1.093,0,0,1-2.185,0V58.017A9.087,9.087,0,0,0,111,48.925a6.709,6.709,0,0,1-5.771-3.241,1.093,1.093,0,0,1,1.866-1.137A4.539,4.539,0,0,0,111,46.74a11.271,11.271,0,0,1,11.277,11.277ZM103.216,47.064a1.093,1.093,0,0,1-.835,1.3,10.457,10.457,0,0,1-8.128-1.59,6.626,6.626,0,0,1-4.943,2.15,9.087,9.087,0,0,0-9.092,9.092V64.47a1.093,1.093,0,0,1-2.185,0V58.017A11.271,11.271,0,0,1,89.31,46.74a4.555,4.555,0,0,0,4.565-4.554V41.9a14.637,14.637,0,0,1-8.32-12.652,4.458,4.458,0,0,1-3.425-4.318V19.264c-.06-2.772.352-9.716,5.415-14.6C93.8-1.359,103.822-.976,111.194,2.572a1.1,1.1,0,0,1,.231,1.82,14.746,14.746,0,0,1,9.024,6.492,1.207,1.207,0,0,1,.251.859,1.105,1.105,0,0,1-.313.693,7.134,7.134,0,0,0-2.065,5.039v7.453a1.093,1.093,0,1,1-2.185,0V17.475a9.3,9.3,0,0,1,2.123-5.939A12.621,12.621,0,0,0,109.2,6.218l-1.92-.206a1.094,1.094,0,0,1-.3-2.1l.873-.36C96.479-.41,84.315,4,84.315,19.252v5.676a2.256,2.256,0,0,0,1.229,2V19.843A7.657,7.657,0,0,1,93.192,12.2h13.93a7.657,7.657,0,0,1,7.648,7.648v8.946A14.633,14.633,0,0,1,96.037,42.726a6.68,6.68,0,0,1-.572,2.231,8.274,8.274,0,0,0,6.45,1.272,1.093,1.093,0,0,1,1.3.835Zm-3.058-5.931a12.442,12.442,0,0,0,12.428-12.428V19.843a5.469,5.469,0,0,0-5.463-5.462H93.192a5.469,5.469,0,0,0-5.463,5.463v8.862A12.442,12.442,0,0,0,100.158,41.134Zm11.062,18.83h-3.278a1.093,1.093,0,0,0,0,2.185h3.278a1.093,1.093,0,1,0,0-2.185Z" transform="translate(0 0)" fill="#2e58ff"/>
  </g>
</svg>
