<svg xmlns="http://www.w3.org/2000/svg" xmlns:xlink="http://www.w3.org/1999/xlink" width="164.219" height="164.219" viewBox="0 0 164.219 164.219">
  <defs>
    <filter id="Elipse_2" x="0" y="0" width="164.219" height="164.219" filterUnits="userSpaceOnUse">
      <feOffset dy="5" input="SourceAlpha"/>
      <feGaussianBlur stdDeviation="2.5" result="blur"/>
      <feFlood flood-opacity="0.302"/>
      <feComposite operator="in" in2="blur"/>
      <feComposite in="SourceGraphic"/>
    </filter>
  </defs>
  <g id="Grupo_1042" data-name="Grupo 1042" transform="translate(-1148.5 -1986.5)">
    <g id="Grupo_985" data-name="Grupo 985" transform="translate(-770 -130)">
      <g id="Grupo_981" data-name="Grupo 981" transform="translate(343.735 0.471)">
        <g id="Grupo_977" data-name="Grupo 977" transform="translate(124.161 -91)">
          <g id="Grupo_972" data-name="Grupo 972" transform="translate(1468.104 2219.529)">
            <g id="iconfinder_circle-facebook__317752" transform="translate(0)">
              <g transform="matrix(1, 0, 0, 1, -17.5, -12.5)" filter="url(#Elipse_2)">
                <g id="Elipse_2-2" data-name="Elipse 2" transform="translate(17.5 12.5)" fill="#0065cf" stroke="#fff" stroke-width="10">
                  <circle cx="64.61" cy="64.61" r="64.61" stroke="none"/>
                  <circle cx="64.61" cy="64.61" r="69.61" fill="none"/>
                </g>
              </g>
            </g>
          </g>
        </g>
      </g>
    </g>
    <g id="Grupo_987" data-name="Grupo 987" transform="translate(998 1815)">
      <g id="Grupo_988" data-name="Grupo 988" transform="translate(9 10)">
        <path id="Caminho_968" data-name="Caminho 968" d="M295.427,250.134c-3.6,4.489-10.2,4.856-14.082-1.016-.508.784-.964,1.507-1.438,2.218-1.37,2.055-3.407,2.438-5.57,1.886a4.787,4.787,0,0,1-3.674-4.545c-.055-2.095.1-3.636,0-6.312-.117-3.151-4.485-2.162-5.341-1.457a5.338,5.338,0,0,0-1.534,4.045c-.1,3.238.078,8.58.078,8.58h-4.37s.189-10.689.189-14.813a22.884,22.884,0,0,0-4.074.732s1.457,13.922-6.947,13.922c-9.077,0-9.077-7.61-9.077-14.893a17.761,17.761,0,0,0-2.913.971s-.366,3.689-.486,4.856a14.882,14.882,0,0,1-.971,4.37,6.466,6.466,0,0,1-5.607,4.671,7.448,7.448,0,0,1-7.512-3.437c-2.938-4.433-2.108-13.5,1.545-17.327a7.114,7.114,0,0,1,12.06,2.5c.312.92.194,2.52.486,2.428,1.421-.452,4.25-1.06,4.959-2.193,1.739-2.777,3.6-4.938,7.158-4.949s5.542,1.4,6.652,4.808c.406,1.247.368,2.8,2.52,2.393a4.833,4.833,0,0,0,2.018-1.03,4.2,4.2,0,0,0,.218-1.457c-.107-2.991-.218-13.6-.218-13.6s.486,0,4.37-.486c0,5.322-.111,11.228-.111,16.559l.688.286c1.671-1.578,7.678-7.62,7.678-7.62h4.37c-2.2,1.847-5.435,4.355-7.769,6.312.486,0,5.827,0,6.6,4.856.253,1.6-.137,5.317.017,6.918.066.679.636,1.852,1.142,1.847,2.44-.025,3.9-1.385,3.9-2.938,0-3.4.029-8.065.971-11.168.91-3,3.4-5.827,7.284-5.827,2.331,0,4.809.072,5.827,2.428,1.073,2.484.594,6.46-1.457,8.255a10.708,10.708,0,0,1-7.769,2.913v1.942c0,3.935,4.523,5.935,8.341,4.049a8.8,8.8,0,0,0,1.856-1.621ZM252.7,235.567a3.307,3.307,0,0,0-2.558-3.034,4.681,4.681,0,0,0-3.675,1.619,14.725,14.725,0,0,0-1.182,13.9c.921,2.327,3.915,3.412,5.7,1.882,3.168-2.711,2.683-10.481,2.683-10.481A2,2,0,0,1,252.7,235.567Zm-19.423,0c0-1.942-2.289-2.942-3.4-2.913a3.726,3.726,0,0,0-3.084,1.839,15.178,15.178,0,0,0-1.1,13.289,3.885,3.885,0,0,0,5.367,2.418c4.16-2.007,2.966-10.743,2.808-10.743A1.99,1.99,0,0,1,233.274,235.567Zm51.541,6.721c4.527.066,8.078-3.457,7.5-7.374a3.06,3.06,0,0,0-1.742-2.26,3.345,3.345,0,0,0-3.057.522C285.14,235.713,284.79,238.954,284.815,242.288Z" transform="translate(-23.313 -2.058)" fill="#fff"/>
        <path id="Caminho_969" data-name="Caminho 969" d="M202.677,259.73c-4.856,0-7.515-3.781-10.361-5.575-1.147-.723-2.454-1.652-3.7-1.667-2.675-.032-2.793-.041-2.793-.041s.038-21.1.038-29.908v-2.613c-5.521.473-9.406,8.728-5.036,13.583C177.873,233.5,175,232.053,175,227.2c.486-5.341,5.284-8.483,10.2-9.711a24.565,24.565,0,0,1,5.341-.486,27.019,27.019,0,0,1,0,2.86c.023,9.2.065,18.577-.045,27.776-.011.919.045,2.868.045,2.868s4.461,1.541,5.341,1.942c3.327,1.516,4.726,2.938,10.683,1.457C207.048,258.273,203.649,259.73,202.677,259.73Z" fill="#fff"/>
      </g>
    </g>
  </g>
</svg>
