<svg xmlns="http://www.w3.org/2000/svg" width="109.619" height="96.015" viewBox="0 0 109.619 96.015"><defs><style>.a{fill:#fff;}</style></defs><g transform="translate(-1.119 -3.986)"><circle class="a" cx="4.668" cy="4.668" r="4.668" transform="translate(51.261 76.14)"/><path class="a" d="M21.691,44.944h0a2.97,2.97,0,0,1-2.97-2.848L17.663,20a4.108,4.108,0,0,1,4.1-4.279h0a4.111,4.111,0,0,1,4.1,4.291l-1.226,22.07a2.97,2.97,0,0,1-2.955,2.857Z" transform="translate(34.161 24.245)"/><path class="a" d="M59.129,9.8h0m-3.2,5.542,22.227,38.5,22.22,38.5H11.482L33.7,53.84l22.227-38.5M55.929,4a3.927,3.927,0,0,0-3.436,1.983L27.066,50.009,1.639,94.048A3.985,3.985,0,0,0,5.076,100H106.783a3.985,3.985,0,0,0,3.436-5.953L84.792,50.009,59.35,5.969a3.927,3.927,0,0,0-3.421-1.983Z" transform="translate(0 0)"/></g></svg>