<svg xmlns="http://www.w3.org/2000/svg" xmlns:xlink="http://www.w3.org/1999/xlink" width="158.748" height="57.065" viewBox="0 0 158.748 57.065">
  <defs>
    <filter id="Elipse_2" x="104" y="2.065" width="54.748" height="55" filterUnits="userSpaceOnUse">
      <feOffset dy="5" input="SourceAlpha"/>
      <feGaussianBlur stdDeviation="2.5" result="blur"/>
      <feFlood flood-opacity="0.302"/>
      <feComposite operator="in" in2="blur"/>
      <feComposite in="SourceGraphic"/>
    </filter>
    <radialGradient id="radial-gradient" cx="0.293" cy="-0.077" r="1.325" gradientTransform="matrix(1, 0, 0, -1, 0, -0.155)" gradientUnits="objectBoundingBox">
      <stop offset="0.097" stop-color="#ffd87a"/>
      <stop offset="0.143" stop-color="#fcce78"/>
      <stop offset="0.226" stop-color="#f5b471"/>
      <stop offset="0.338" stop-color="#eb8d65"/>
      <stop offset="0.449" stop-color="#e36058"/>
      <stop offset="0.679" stop-color="#cd3694"/>
      <stop offset="1" stop-color="#6668b0"/>
    </radialGradient>
    <filter id="Elipse_2-2" x="69" y="0" width="55" height="55" filterUnits="userSpaceOnUse">
      <feOffset dy="3" input="SourceAlpha"/>
      <feGaussianBlur stdDeviation="2.5" result="blur-2"/>
      <feFlood flood-opacity="0.302"/>
      <feComposite operator="in" in2="blur-2"/>
      <feComposite in="SourceGraphic"/>
    </filter>
    <linearGradient id="linear-gradient" x1="0.5" x2="0.5" y2="1" gradientUnits="objectBoundingBox">
      <stop offset="0" stop-color="#18acfe"/>
      <stop offset="1" stop-color="#0164e1"/>
    </linearGradient>
    <filter id="Elipse_2-3" x="35" y="0" width="54" height="55" filterUnits="userSpaceOnUse">
      <feOffset dy="3" input="SourceAlpha"/>
      <feGaussianBlur stdDeviation="2.5" result="blur-3"/>
      <feFlood flood-opacity="0.302"/>
      <feComposite operator="in" in2="blur-3"/>
      <feComposite in="SourceGraphic"/>
    </filter>
    <linearGradient id="linear-gradient-2" x1="0.5" x2="0.5" y2="1" gradientUnits="objectBoundingBox">
      <stop offset="0" stop-color="#5fd06b"/>
      <stop offset="1" stop-color="#2bb641"/>
    </linearGradient>
    <filter id="WhatsApp_1_" x="0" y="0.065" width="55" height="55" filterUnits="userSpaceOnUse">
      <feOffset dy="3" input="SourceAlpha"/>
      <feGaussianBlur stdDeviation="2.5" result="blur-4"/>
      <feFlood flood-opacity="0.302"/>
      <feComposite operator="in" in2="blur-4"/>
      <feComposite in="SourceGraphic"/>
    </filter>
  </defs>
  <g id="Grupo_1257" data-name="Grupo 1257" transform="translate(-116.5 -328.5)">
    <g id="Grupo_1241" data-name="Grupo 1241" transform="translate(33 -15)">
      <g id="ico-Twitter" transform="translate(194.874 348.064)">
        <g id="iconfinder_circle-facebook__317752" transform="translate(0.126)">
          <g transform="matrix(1, 0, 0, 1, -111.5, -4.56)" filter="url(#Elipse_2)">
            <ellipse id="Elipse_2-4" data-name="Elipse 2" cx="19.874" cy="20" rx="19.874" ry="20" transform="translate(111.5 4.56)" fill="#1da1f2"/>
          </g>
        </g>
        <g id="iconfinder_25_social_2609558" transform="matrix(0.798, -0.602, 0.602, 0.798, 3.563, 20.369)">
          <path id="Caminho_940" data-name="Caminho 940" d="M6.59,13.678a4.428,4.428,0,0,1-2.026-4.7,4.316,4.316,0,0,0,1.671.894c.013.007.033,0,.068,0A4.407,4.407,0,0,1,4.835,6.691,4.3,4.3,0,0,1,5.45,4.343,4.376,4.376,0,0,0,6.88,5.784a4.455,4.455,0,0,1-.237-3.225,4.366,4.366,0,0,1,2-2.533,12.6,12.6,0,0,0,5.569,8.535c.067-.163.117-.309.184-.454a4.294,4.294,0,0,1,2-2.178,4.235,4.235,0,0,1,3.587-.23A4.316,4.316,0,0,1,22.72,8.694a.226.226,0,0,0,.17.177,8.967,8.967,0,0,0,2.715.432h.068l.026.015a4.532,4.532,0,0,1-2.833,1.136,8.354,8.354,0,0,0,2.455.656.04.04,0,0,1,0,.028c-.255.107-.512.22-.769.317a8.736,8.736,0,0,1-2.151.515.152.152,0,0,0-.139.081,12.149,12.149,0,0,1-1.053,1.657,13.117,13.117,0,0,1-2.934,2.833,12.736,12.736,0,0,1-3.8,1.817,11.827,11.827,0,0,1-6.935-.1,14.1,14.1,0,0,1-2.272-.975A12.478,12.478,0,0,1,.094,12.115C.076,12.087.067,12.055.037,12a8.911,8.911,0,0,0,4.12,1.682,8.382,8.382,0,0,0,2.434,0Z" transform="translate(0 0)" fill="#fff" fill-rule="evenodd"/>
        </g>
      </g>
      <g id="ico-Instagram" transform="translate(160.398 348.064)">
        <g id="iconfinder_circle-facebook__317752-2" data-name="iconfinder_circle-facebook__317752" transform="translate(0 0)">
          <g transform="matrix(1, 0, 0, 1, -76.9, -4.56)" filter="url(#Elipse_2-2)">
            <circle id="Elipse_2-5" data-name="Elipse 2" cx="20" cy="20" r="20" transform="translate(76.5 4.5)" fill="url(#radial-gradient)"/>
          </g>
        </g>
        <g id="iconfinder_25_social_2609558-2" data-name="iconfinder_25_social_2609558" transform="translate(32.023 31.622) rotate(180)">
          <g id="Grupo_856" data-name="Grupo 856" transform="translate(0)">
            <path id="Caminho_931" data-name="Caminho 931" d="M16.51,23.848H7.351A7.354,7.354,0,0,1,0,16.5V7.345A7.344,7.344,0,0,1,7.351,0H16.5a7.343,7.343,0,0,1,7.345,7.345V16.5A7.334,7.334,0,0,1,16.51,23.848ZM21.565,8.226A5.934,5.934,0,0,0,15.629,2.29h-7.4A5.934,5.934,0,0,0,2.3,8.226v7.4a5.934,5.934,0,0,0,5.936,5.936h7.4a5.939,5.939,0,0,0,5.936-5.936Z" fill="#fff"/>
            <path id="Caminho_932" data-name="Caminho 932" d="M6.277,12.58a6.29,6.29,0,1,1,6.277-6.29A6.28,6.28,0,0,1,6.277,12.58Zm0-10.069A3.786,3.786,0,1,0,10.054,6.3,3.779,3.779,0,0,0,6.277,2.511Z" transform="translate(5.976 5.589)" fill="#fff"/>
            <path id="Caminho_933" data-name="Caminho 933" d="M3.186,1.593a1.593,1.593,0,1,0-1.593,1.6A1.593,1.593,0,0,0,3.186,1.593Z" transform="translate(16.507 16.667)" fill="#fff"/>
          </g>
        </g>
      </g>
      <g id="Grupo_1251" data-name="Grupo 1251" transform="translate(-2084.5 -12535)">
        <g id="iconfinder_circle-facebook__317752-3" data-name="iconfinder_circle-facebook__317752" transform="translate(2210.5 12883)">
          <g transform="matrix(1, 0, 0, 1, -42.5, -4.5)" filter="url(#Elipse_2-3)">
            <ellipse id="Elipse_2-6" data-name="Elipse 2" cx="19.5" cy="20" rx="19.5" ry="20" transform="translate(42.5 4.5)" fill="url(#linear-gradient)"/>
          </g>
        </g>
        <path id="Interseção_1" data-name="Interseção 1" d="M5.081,30.2,4.849,16.358l-4.8-.043L0,10.922l4.819.035,0-.41c-.009-1.09-.041-2.17-.028-3.252a14.248,14.248,0,0,1,.163-2.073A5.843,5.843,0,0,1,7.442,1.214,7.485,7.485,0,0,1,11.633,0c1.005-.013,2,.039,2.991.089.55.024,1.09.1,1.608.157l.041,4.83-.4-.005c-.968-.005-1.939-.035-2.908-.011a2.06,2.06,0,0,0-1.686.5,1.975,1.975,0,0,0-.652,1.6C10.6,8.33,10.616,11,10.616,11s3.114.037,4.478.036l.885-.015c-.232,1.847.325,3.506.093,5.3l-5.378.094.239,13.648a20.116,20.116,0,0,1-3.395.287A20.219,20.219,0,0,1,5.081,30.2ZM16.272,5.079Z" transform="translate(2222.489 12892.655)" fill="#fff"/>
      </g>
    </g>
    <g id="ico-WhatsApp" transform="translate(124 333.064)">
      <g transform="matrix(1, 0, 0, 1, -7.5, -4.56)" filter="url(#WhatsApp_1_)">
        <path id="WhatsApp_1_2" data-name="WhatsApp_1_" d="M19.994,0A19.986,19.986,0,0,0,3.808,31.722L1.316,39.153,9,36.7a20,20,0,1,0,11-36.7h-.012Z" transform="translate(7.5 4.56)" fill-rule="evenodd" fill="url(#linear-gradient-2)"/>
      </g>
      <path id="WhatsApp_1_3" data-name="WhatsApp_1_" d="M10.623,6.623c-.346-.832-.609-.863-1.134-.885-.179-.01-.378-.021-.6-.021a2.587,2.587,0,0,0-1.827.642,5.727,5.727,0,0,0-1.827,4.36,10.255,10.255,0,0,0,2.12,5.4C7.621,16.47,11,21.82,16.25,24c4.1,1.706,5.322,1.548,6.257,1.348,1.365-.295,3.076-1.306,3.506-2.527a4.46,4.46,0,0,0,.3-2.485c-.126-.221-.472-.347-1-.611s-3.076-1.527-3.559-1.7a1,1,0,0,0-1.28.39,21.975,21.975,0,0,1-1.4,1.853,1.126,1.126,0,0,1-1.26.2,13.153,13.153,0,0,1-4.189-2.591,15.923,15.923,0,0,1-2.9-3.612c-.3-.526-.032-.832.21-1.116.263-.327.514-.558.777-.864a3.137,3.137,0,0,0,.577-.821,1.072,1.072,0,0,0-.073-.969C12.1,10.235,11.054,7.665,10.623,6.623Z" transform="translate(4.536 4.808)" fill="#fff" fill-rule="evenodd"/>
    </g>
  </g>
</svg>
