<svg xmlns="http://www.w3.org/2000/svg" width="65.562" height="65.562" viewBox="0 0 65.562 65.562">
  <g id="ico-pin" transform="translate(0 -0.001)">
    <path id="Caminho_2928" data-name="Caminho 2928" d="M122.21,25.745a18.313,18.313,0,0,1-2.28,8.879l-7.54,13.283-7.283,12.856L97.824,47.908,90.3,34.625A18.013,18.013,0,0,1,88,25.745C88,15.94,95.658,8,105.107,8S122.21,15.94,122.21,25.745Zm-8.552-.641a8.552,8.552,0,1,0-8.552,8.552A8.558,8.558,0,0,0,113.659,25.1Z" transform="translate(-72.325 -6.575)" fill="#cce4ff"/>
    <g id="Grupo_6229" data-name="Grupo 6229" transform="translate(0 0.001)">
      <path id="Caminho_2929" data-name="Caminho 2929" d="M8.642,40.833.091,63.637a1.426,1.426,0,0,0,1.335,1.926H64.138a1.424,1.424,0,0,0,1.334-1.926l-8.552-22.8a1.425,1.425,0,0,0-1.334-.925H42.514l6.34-11.17a19.848,19.848,0,0,0,2.457-9.568C51.31,8.6,43,0,32.782,0S14.253,8.6,14.253,19.171a19.568,19.568,0,0,0,2.48,9.582l6.32,11.155H9.978A1.428,1.428,0,0,0,8.642,40.833ZM17.1,19.171c0-9,7.034-16.319,15.678-16.319S48.46,10.173,48.46,19.171a16.962,16.962,0,0,1-2.1,8.175l-7.54,13.283h0L32.782,51.3,26.739,40.631a0,0,0,0,0,0,0L19.216,27.352A16.7,16.7,0,0,1,17.1,19.171Zm7.564,23.588,6.874,12.133a1.483,1.483,0,0,0,2.48,0L40.9,42.759H54.6l7.483,19.954H3.483l7.483-19.954Z" transform="translate(0 -0.001)" fill="#007aff"/>
      <path id="Caminho_2930" data-name="Caminho 2930" d="M137.981,67.955A9.977,9.977,0,1,0,128,57.978,9.989,9.989,0,0,0,137.981,67.955Zm0-17.1a7.126,7.126,0,1,1-7.126,7.126A7.134,7.134,0,0,1,137.981,50.852Z" transform="translate(-105.199 -39.449)" fill="#007aff"/>
    </g>
  </g>
</svg>
