<?xml version="1.0" encoding="utf-8"?>
<!-- Generator: Adobe Illustrator 24.3.0, SVG Export Plug-In . SVG Version: 6.00 Build 0)  -->
<svg version="1.1" id="Layer_1" xmlns="http://www.w3.org/2000/svg" xmlns:xlink="http://www.w3.org/1999/xlink" x="0px" y="0px"
	 viewBox="0 0 145.5 55" style="enable-background:new 0 0 145.5 55;" xml:space="preserve">
<style type="text/css">
	.st0{fill:#139BD0;}
	.st1{fill-rule:evenodd;clip-rule:evenodd;fill:#FFFFFF;}
	.st2{fill:url(#União_5-2_1_);}
	.st3{fill:#FFFFFF;}
	.st4{fill-rule:evenodd;clip-rule:evenodd;fill:url(#WhatsApp_1_2_1_);}
</style>
<g id="Grupo_1237" transform="translate(-97 -343.5)">
	<g id="Grupo_1115" transform="translate(10 -16)">
		<g id="iconfinder_social-56_1591869" transform="translate(185.026 364)">
			<g transform="matrix(1, 0, 0, 1, -98.03, -4.5)">
				<path id="Caminho_987-2" class="st0" d="M107,4.5c11,0,20,9,20,20s-9,20-20,20s-20-9-20-20c0,0,0,0,0,0C87,13.5,96,4.5,107,4.5z
					"/>
			</g>
			<path id="Caminho_971" class="st1" d="M9.7,24.8c-0.8,0.8-1.5,1.5-2.3,2.2c-0.2,0.3-0.6,0.4-0.9,0.4c-0.2,0-0.4-0.1-0.5-0.4
				c-0.6-1.8-1.2-3.6-1.7-5.4c0-0.2-0.2-0.3-0.3-0.3c-1.4-0.4-2.7-0.8-4.1-1.3c-0.2-0.1-0.4-0.2-0.6-0.3C-1,19.7-1.1,19.4-1,19.2
				c0-0.1,0.1-0.1,0.1-0.1c0.2-0.2,0.5-0.4,0.8-0.5c1.7-0.7,3.3-1.3,5-1.9l12.8-4.9c0.4-0.3,1-0.1,1.2,0.3c0.1,0.2,0.2,0.4,0.1,0.7
				c-0.1,0.6-0.2,1.1-0.3,1.7c-0.9,4.4-1.8,8.7-2.8,13.1c-0.2,1-0.9,1.3-1.8,0.7c-1.4-1.1-2.9-2.1-4.3-3.2
				C9.8,24.9,9.7,24.8,9.7,24.8z M6.5,26.1L6.5,26.1C6.5,26.1,6.5,26,6.5,26c0.1-1,0.2-2,0.3-3c0-0.2,0.1-0.4,0.3-0.5
				c1.3-1.2,2.6-2.4,3.9-3.5c1.5-1.3,2.9-2.6,4.3-3.9c0.1-0.1,0.1-0.2,0.2-0.3c-0.1,0-0.3,0-0.4,0c-0.2,0.1-0.3,0.1-0.5,0.2
				c-3.2,2-6.4,4-9.6,6c-0.1,0.1-0.2,0.2-0.2,0.4c0,0,0,0,0,0c0.2,0.7,0.5,1.4,0.7,2L6.5,26.1z"/>
		</g>
		<g id="Grupo_1069" transform="translate(150.02 364)">
			<g transform="matrix(1, 0, 0, 1, -63.02, -4.5)">
				
					<linearGradient id="União_5-2_1_" gradientUnits="userSpaceOnUse" x1="-593.5496" y1="404.0392" x2="-593.5496" y2="403.0392" gradientTransform="matrix(39.9989 0 0 -39.6168 23813.3457 16011.2197)">
					<stop  offset="0" style="stop-color:#00ACFF"/>
					<stop  offset="1" style="stop-color:#0073FF"/>
				</linearGradient>
				<path id="União_5-2" class="st2" d="M59.2,42.6v-4.2c0-0.6-0.3-1.3-0.7-1.7l0,0l0,0c-7.5-6.3-8.5-17.4-2.3-25
					c0.5-0.7,1.1-1.3,1.8-1.8c3.9-3.5,8.9-5.5,14.2-5.4c5.2,0,10.3,1.9,14.1,5.5c7.3,6.6,7.8,17.8,1.3,25.1
					c-0.4,0.5-0.8,0.9-1.3,1.3c-3.9,3.5-8.9,5.5-14.2,5.4c-1.6,0-3.1-0.2-4.7-0.5l0,0l0,0c-0.1,0-0.3-0.1-0.5-0.1
					c-0.4,0-0.7,0.1-1,0.3l-4.5,2.5c-0.2,0.1-0.5,0.2-0.7,0.2C59.8,44.1,59.2,43.4,59.2,42.6z"/>
			</g>
			<path id="Caminho_15" class="st3" d="M18.1,16.7l-7.1,8c-0.4,0.4-1,0.5-1.5,0.1l-2.3-3.6c-1-0.8-1-1.3-2.2-0.8l-5.4,3.2
				c-0.6,0.2-1.2-0.1-1.4-0.7c-0.1-0.4,0-0.8,0.2-1.1l7.2-8.7c0.4-0.5,1.1-0.5,1.6-0.2c0,0,0,0,0,0l2.9,3.1c1,1,1.3,1.1,2.7,0.7
				l4.1-1.8c0.6-0.2,1.2,0.1,1.4,0.7C18.4,16,18.4,16.4,18.1,16.7z"/>
		</g>
		<g id="Grupo_1070" transform="translate(115 364)">
			<g transform="matrix(1, 0, 0, 1, -28, -4.5)">
				
					<linearGradient id="WhatsApp_1_2_1_" gradientUnits="userSpaceOnUse" x1="-593.5529" y1="404.1255" x2="-593.5529" y2="403.1255" gradientTransform="matrix(40.0079 0 0 -40.0022 23783.7949 16170.4189)">
					<stop  offset="0" style="stop-color:#5FD06B"/>
					<stop  offset="1" style="stop-color:#2BB641"/>
				</linearGradient>
				<path id="WhatsApp_1_2" class="st4" d="M37,4.5c-11,0-20,8.9-20,20c0,4.2,1.3,8.3,3.8,11.7l-2.5,7.4l7.7-2.5
					c9.2,6.1,21.6,3.5,27.7-5.7S57.2,13.9,48,7.8C44.7,5.6,40.9,4.5,37,4.5L37,4.5L37,4.5z"/>
			</g>
			<path id="WhatsApp_1_3" class="st1" d="M4.2,11.5c-0.3-0.8-0.6-0.9-1.1-0.9c-0.2,0-0.4,0-0.6,0c-0.7,0-1.3,0.2-1.8,0.6
				c-1.2,1.1-1.9,2.7-1.8,4.3c0.2,2,0.9,3.8,2.1,5.4c0.3,0.3,3.6,5.7,8.8,7.8c4.1,1.7,5.3,1.5,6.2,1.3c1.4-0.3,3.1-1.3,3.5-2.5
				c0.3-0.8,0.4-1.6,0.3-2.5c-0.1-0.2-0.5-0.3-1-0.6s-3.1-1.5-3.5-1.7c-0.5-0.2-1-0.1-1.3,0.4c-0.4,0.6-0.9,1.3-1.4,1.8
				c-0.3,0.3-0.8,0.4-1.3,0.2c-1.5-0.6-2.9-1.5-4.2-2.6c-1.1-1-2.1-2.3-2.9-3.6c-0.3-0.5,0-0.8,0.2-1.1c0.3-0.3,0.5-0.6,0.8-0.9
				c0.2-0.2,0.4-0.5,0.6-0.8C6,16,6,15.6,5.8,15.3C5.7,15.1,4.6,12.5,4.2,11.5z"/>
		</g>
	</g>
</g>
</svg>
