<svg xmlns="http://www.w3.org/2000/svg" xmlns:xlink="http://www.w3.org/1999/xlink" width="111.784" height="52" viewBox="0 0 111.784 52">
  <defs>
    <filter id="Elipse_2" x="61.784" y="2" width="50" height="50" filterUnits="userSpaceOnUse">
      <feOffset dy="5" input="SourceAlpha"/>
      <feGaussianBlur stdDeviation="2.5" result="blur"/>
      <feFlood flood-opacity="0.302"/>
      <feComposite operator="in" in2="blur"/>
      <feComposite in="SourceGraphic"/>
    </filter>
    <radialGradient id="radial-gradient" cx="0.293" cy="-0.077" r="1.325" gradientTransform="matrix(1, 0, 0, -1, 0, -0.155)" gradientUnits="objectBoundingBox">
      <stop offset="0.097" stop-color="#ffd87a"/>
      <stop offset="0.143" stop-color="#fcce78"/>
      <stop offset="0.226" stop-color="#f5b471"/>
      <stop offset="0.338" stop-color="#eb8d65"/>
      <stop offset="0.449" stop-color="#e36058"/>
      <stop offset="0.679" stop-color="#cd3694"/>
      <stop offset="1" stop-color="#6668b0"/>
    </radialGradient>
    <filter id="Elipse_2-2" x="31" y="0" width="50" height="50" filterUnits="userSpaceOnUse">
      <feOffset dy="3" input="SourceAlpha"/>
      <feGaussianBlur stdDeviation="2.5" result="blur-2"/>
      <feFlood flood-opacity="0.302"/>
      <feComposite operator="in" in2="blur-2"/>
      <feComposite in="SourceGraphic"/>
    </filter>
    <filter id="Elipse_2-3" x="0" y="0" width="50" height="50" filterUnits="userSpaceOnUse">
      <feOffset dy="3" input="SourceAlpha"/>
      <feGaussianBlur stdDeviation="2.5" result="blur-3"/>
      <feFlood flood-opacity="0.302"/>
      <feComposite operator="in" in2="blur-3"/>
      <feComposite in="SourceGraphic"/>
    </filter>
  </defs>
  <g id="Grupo_1145" data-name="Grupo 1145" transform="translate(8 4.5)">
    <g id="Grupo_1142" data-name="Grupo 1142" transform="translate(61.284 0)">
      <g id="iconfinder_circle-facebook__317752" transform="translate(0)">
        <g transform="matrix(1, 0, 0, 1, -69.28, -4.5)" filter="url(#Elipse_2)">
          <ellipse id="Elipse_2-4" data-name="Elipse 2" cx="17.5" cy="17.5" rx="17.5" ry="17.5" transform="translate(69.28 4.5)" fill="#00a2f2"/>
        </g>
      </g>
      <g id="iconfinder_25_social_2609558" transform="matrix(0.798, -0.602, 0.602, 0.798, 3.157, 17.822)">
        <path id="Caminho_940" data-name="Caminho 940" d="M5.735,11.945A3.874,3.874,0,0,1,3.962,7.831a3.777,3.777,0,0,0,1.462.782c.011.006.029,0,.06,0A3.856,3.856,0,0,1,4.2,5.832a3.762,3.762,0,0,1,.538-2.055A3.829,3.829,0,0,0,5.988,5.038a3.9,3.9,0,0,1-.207-2.822A3.821,3.821,0,0,1,7.535,0a11.026,11.026,0,0,0,4.873,7.468c.058-.143.1-.27.161-.4A3.757,3.757,0,0,1,14.32,5.166a3.706,3.706,0,0,1,3.138-.2,3.777,3.777,0,0,1,2.39,2.619A.2.2,0,0,0,20,7.739a7.846,7.846,0,0,0,2.376.378h.06l.023.013a3.966,3.966,0,0,1-2.479.994,7.31,7.31,0,0,0,2.148.574.035.035,0,0,1,0,.024c-.223.094-.448.192-.673.278a7.644,7.644,0,0,1-1.882.451.133.133,0,0,0-.122.071,10.63,10.63,0,0,1-.921,1.45A11.477,11.477,0,0,1,15.96,14.45a11.144,11.144,0,0,1-3.328,1.59,10.348,10.348,0,0,1-6.068-.091A12.338,12.338,0,0,1,4.575,15.1,10.918,10.918,0,0,1,.05,10.577c-.016-.024-.023-.052-.05-.1a7.8,7.8,0,0,0,3.6,1.472,7.334,7.334,0,0,0,2.13,0Z" transform="translate(0 0)" fill="#fff" fill-rule="evenodd"/>
      </g>
    </g>
    <g id="Grupo_1143" data-name="Grupo 1143" transform="translate(30.625 0)">
      <g id="iconfinder_circle-facebook__317752-2" data-name="iconfinder_circle-facebook__317752" transform="translate(0 0)">
        <g transform="matrix(1, 0, 0, 1, -38.62, -4.5)" filter="url(#Elipse_2-2)">
          <circle id="Elipse_2-5" data-name="Elipse 2" cx="17.5" cy="17.5" r="17.5" transform="translate(38.5 4.5)" fill="url(#radial-gradient)"/>
        </g>
      </g>
      <g id="iconfinder_25_social_2609558-2" data-name="iconfinder_25_social_2609558" transform="translate(28.088 27.845) rotate(180)">
        <g id="Grupo_856" data-name="Grupo 856" transform="translate(0)">
          <path id="Caminho_931" data-name="Caminho 931" d="M14.538,21H6.473A6.475,6.475,0,0,1,0,14.527V6.468A6.467,6.467,0,0,1,6.473,0h8.059A6.466,6.466,0,0,1,21,6.468v8.059A6.458,6.458,0,0,1,14.538,21ZM18.989,7.244a5.226,5.226,0,0,0-5.227-5.227H7.249A5.226,5.226,0,0,0,2.022,7.244v6.513a5.226,5.226,0,0,0,5.227,5.227h6.513a5.229,5.229,0,0,0,5.227-5.227Z" fill="#fff"/>
          <path id="Caminho_932" data-name="Caminho 932" d="M5.527,11.078a5.539,5.539,0,1,1,5.527-5.539A5.53,5.53,0,0,1,5.527,11.078Zm0-8.867A3.334,3.334,0,1,0,8.853,5.544,3.328,3.328,0,0,0,5.527,2.211Z" transform="translate(5.262 4.922)" fill="#fff"/>
          <path id="Caminho_933" data-name="Caminho 933" d="M2.806,1.4A1.4,1.4,0,1,0,1.4,2.811,1.4,1.4,0,0,0,2.806,1.4Z" transform="translate(14.535 14.677)" fill="#fff"/>
        </g>
      </g>
    </g>
    <g id="Grupo_1144" data-name="Grupo 1144" transform="translate(0 0)">
      <g id="iconfinder_circle-facebook__317752-3" data-name="iconfinder_circle-facebook__317752" transform="translate(0 0)">
        <g transform="matrix(1, 0, 0, 1, -8, -4.5)" filter="url(#Elipse_2-3)">
          <circle id="Elipse_2-6" data-name="Elipse 2" cx="17.5" cy="17.5" r="17.5" transform="translate(7.5 4.5)" fill="#485995"/>
        </g>
      </g>
      <path id="Caminho_935" data-name="Caminho 935" d="M5.34,3.839c.533-.332,1.086-.635,1.628-.95l.224-.128L5.6,0c-.309.136-.635.271-.95.438-.571.3-1.143.594-1.7.932A4.854,4.854,0,0,0,1,3.445,3.947,3.947,0,0,0,.912,6.566,9.53,9.53,0,0,0,1.5,7.811c.345.626.714,1.236,1.073,1.859L2.7,9.9,0,11.469l1.78,3.083L4.478,13l4.478,7.747,3.287-1.9L7.762,11.105l2.687-1.55C10,8.45,9.543,7.36,9.073,6.223l-.6.347c-.763.449-2.514,1.452-2.514,1.452s-.875-1.529-1.24-2.208A1.337,1.337,0,0,1,5.34,3.839Z" transform="translate(18.179 4.976) rotate(31)" fill="#fff" fill-rule="evenodd"/>
    </g>
  </g>
</svg>
