<?xml version="1.0" encoding="utf-8"?>
<!-- Generator: Adobe Illustrator 24.3.0, SVG Export Plug-In . SVG Version: 6.00 Build 0)  -->
<svg version="1.1" id="Layer_1" xmlns="http://www.w3.org/2000/svg" xmlns:xlink="http://www.w3.org/1999/xlink" x="0px" y="0px"
	 viewBox="0 0 145.5 57" style="enable-background:new 0 0 145.5 57;" xml:space="preserve">
<style type="text/css">
	.st0{fill:#00A2F2;}
	.st1{fill-rule:evenodd;clip-rule:evenodd;fill:#FFFFFF;}
	.st2{fill:url(#Elipse_2-5_2_);}
	.st3{fill:#FFFFFF;}
	.st4{fill:#485995;}
</style>
<g id="Grupo_1237" transform="translate(-97 -343.5)">
	<g id="Grupo_1145" transform="translate(-124)">
		<g id="Grupo_1142" transform="translate(319.039 348)">
			<g id="iconfinder_circle-facebook__317752" transform="translate(0)">
				<g transform="matrix(1, 0, 0, 1, -98.04, -4.5)">
					<circle id="Elipse_2-4" class="st0" cx="107" cy="24.5" r="20"/>
				</g>
			</g>
			<g id="iconfinder_25_social_2609558" transform="matrix(0.798, -0.602, 0.602, 0.798, 3.608, 20.368)">
				<path id="Caminho_940" class="st1" d="M-2.2,7c-1.6-1-2.4-2.9-2-4.7C-3.8,2.7-3.2,3-2.6,3.2c0,0,0,0,0.1,0C-3.4,2.4-4,1.3-4,0
					c0-0.8,0.2-1.6,0.6-2.3C-3-1.7-2.5-1.2-1.9-0.9c-0.5-1-0.6-2.2-0.2-3.2c0.3-1.1,1-2,2-2.5C0.4-3.1,2.4,0,5.4,1.9
					c0.1-0.2,0.1-0.3,0.2-0.5c0.4-0.9,1.1-1.7,2-2.2C8.7-1.3,10-1.4,11.2-1c1.4,0.5,2.4,1.6,2.7,3c0,0.1,0.1,0.2,0.2,0.2
					c0.9,0.3,1.8,0.4,2.7,0.4h0.1l0,0c-0.8,0.7-1.8,1.1-2.8,1.1c0.8,0.3,1.6,0.6,2.5,0.7c0,0,0,0,0,0c-0.3,0.1-0.5,0.2-0.8,0.3
					c-0.7,0.3-1.4,0.4-2.2,0.5c-0.1,0-0.1,0-0.1,0.1c-0.3,0.6-0.7,1.1-1.1,1.7c-0.8,1.1-1.8,2-2.9,2.8c-1.2,0.8-2.4,1.4-3.8,1.8
					c-2.3,0.7-4.7,0.6-6.9-0.1c-0.8-0.3-1.5-0.6-2.3-1c-2.2-1.2-4-3-5.2-5.2c0,0,0-0.1-0.1-0.1C-7.6,6.2-6.2,6.8-4.7,7
					C-3.9,7.1-3,7.1-2.2,7L-2.2,7z"/>
			</g>
		</g>
		<g id="Grupo_1143" transform="translate(284.398 347.633)">
			<g id="iconfinder_circle-facebook__317752-2" transform="translate(-0.398 0.367)">
				<g transform="matrix(1, 0, 0, 1, -63, -4.5)">
					
						<radialGradient id="Elipse_2-5_2_" cx="-593.757" cy="421.952" r="1.325" gradientTransform="matrix(40 0 0 40 23814 -16876.6992)" gradientUnits="userSpaceOnUse">
						<stop  offset="9.700001e-02" style="stop-color:#FFD87A"/>
						<stop  offset="0.143" style="stop-color:#FCCE78"/>
						<stop  offset="0.226" style="stop-color:#F5B471"/>
						<stop  offset="0.338" style="stop-color:#EB8D65"/>
						<stop  offset="0.449" style="stop-color:#E36058"/>
						<stop  offset="0.679" style="stop-color:#CD3694"/>
						<stop  offset="1" style="stop-color:#6668B0"/>
					</radialGradient>
					<circle id="Elipse_2-5" class="st2" cx="72" cy="24.5" r="20"/>
				</g>
			</g>
			<g id="iconfinder_25_social_2609558-2" transform="translate(31.703 32.19) rotate(180)">
				<g id="Grupo_856" transform="translate(0)">
					<path id="Caminho_931" class="st3" d="M27.6,24h-9.2c-4.1,0-7.4-3.3-7.4-7.4V7.4C11,3.3,14.3,0,18.4,0c0,0,0,0,0,0h9.2
						C31.7,0,35,3.3,35,7.4c0,0,0,0,0,0v9.2C35,20.7,31.7,24,27.6,24C27.6,24,27.6,24,27.6,24z M32.7,8.3c0-3.3-2.7-6-6-6
						c0,0,0,0,0,0h-7.4c-3.3,0-6,2.7-6,6c0,0,0,0,0,0v7.4c0,3.3,2.7,6,6,6c0,0,0,0,0,0h7.4c3.3,0,6-2.7,6-6V8.3z"/>
					<path id="Caminho_932" class="st3" d="M23.3,18.3c-3.5,0-6.3-2.8-6.3-6.3s2.8-6.3,6.3-6.3s6.3,2.8,6.3,6.3c0,0,0,0,0,0
						C29.7,15.4,26.8,18.3,23.3,18.3C23.3,18.3,23.3,18.3,23.3,18.3z M23.3,8.2c-2.1,0-3.8,1.7-3.8,3.8c0,2.1,1.7,3.8,3.8,3.8
						s3.8-1.7,3.8-3.8c0,0,0,0,0,0C27.1,9.9,25.4,8.2,23.3,8.2C23.3,8.2,23.3,8.2,23.3,8.2z"/>
					<path id="Caminho_933" class="st3" d="M30.8,18.4c0-0.9-0.7-1.6-1.6-1.6c-0.9,0-1.6,0.7-1.6,1.6c0,0.9,0.7,1.6,1.6,1.6
						C30.1,20,30.8,19.3,30.8,18.4C30.8,18.4,30.8,18.4,30.8,18.4z"/>
				</g>
			</g>
		</g>
		<g id="Grupo_1144" transform="translate(249.128 347.633)">
			<g id="iconfinder_circle-facebook__317752-3" transform="translate(0 0.367)">
				<g transform="matrix(1, 0, 0, 1, -28.13, -4.5)">
					<circle id="Elipse_2-6" class="st4" cx="37" cy="24.5" r="20"/>
				</g>
			</g>
			<path id="Caminho_935" class="st1" d="M12.6,13c0.7,0,1.4,0,2.2,0l0.3,0l0.1-3.6c-0.4,0-0.8-0.1-1.2-0.1c-0.7,0-1.5-0.1-2.2-0.1
				c-1.1,0-2.2,0.3-3.1,0.9c-1,0.7-1.7,1.8-1.9,3c-0.1,0.5-0.1,1-0.2,1.6c0,0.8,0,1.6,0,2.5l0,0.3l-3.6-0.1l-0.1,4.1l3.6,0.1
				L6.2,31.6l4.3,0.1l0.2-10.2l3.5,0.1c0.2-1.4,0.4-2.7,0.6-4.1l-0.8,0c-1,0-3.3-0.1-3.3-0.1s0-2,0.1-2.9c0-0.8,0.6-1.6,1.5-1.6
				C12.4,12.9,12.5,12.9,12.6,13z"/>
		</g>
	</g>
</g>
</svg>
