<svg xmlns="http://www.w3.org/2000/svg" xmlns:xlink="http://www.w3.org/1999/xlink" width="50" height="50" viewBox="0 0 50 50">
  <defs>
    <linearGradient id="linear-gradient" x1="0.5" x2="0.5" y2="1" gradientUnits="objectBoundingBox">
      <stop offset="0" stop-color="#5fd06b"/>
      <stop offset="1" stop-color="#2bb641"/>
    </linearGradient>
    <filter id="WhatsApp_1_" x="0" y="0" width="50" height="50" filterUnits="userSpaceOnUse">
      <feOffset dy="3" input="SourceAlpha"/>
      <feGaussianBlur stdDeviation="2.5" result="blur"/>
      <feFlood flood-opacity="0.302"/>
      <feComposite operator="in" in2="blur"/>
      <feComposite in="SourceGraphic"/>
    </filter>
  </defs>
  <g id="Grupo_1070" data-name="Grupo 1070" transform="translate(7.5 4.5)">
    <g transform="matrix(1, 0, 0, 1, -7.5, -4.5)" filter="url(#WhatsApp_1_)">
      <path id="WhatsApp_1_2" data-name="WhatsApp_1_" d="M17.495,0A17.488,17.488,0,0,0,3.332,27.757l-2.181,6.5,6.727-2.15A17.5,17.5,0,1,0,17.505,0H17.5Z" transform="translate(7.5 4.5)" fill-rule="evenodd" fill="url(#linear-gradient)"/>
    </g>
    <path id="WhatsApp_1_3" data-name="WhatsApp_1_" d="M9.923,6.5c-.3-.723-.53-.751-.986-.769-.155-.009-.329-.018-.521-.018a2.252,2.252,0,0,0-1.589.558,4.977,4.977,0,0,0-1.589,3.79,8.911,8.911,0,0,0,1.845,4.7c.228.3,3.17,4.952,7.736,6.848,3.571,1.483,4.631,1.346,5.444,1.172a4.381,4.381,0,0,0,3.051-2.2,3.874,3.874,0,0,0,.265-2.161c-.11-.192-.411-.3-.868-.531s-2.676-1.328-3.1-1.474a.866.866,0,0,0-1.114.339,19.105,19.105,0,0,1-1.215,1.611.98.98,0,0,1-1.1.174,11.446,11.446,0,0,1-3.644-2.252,13.844,13.844,0,0,1-2.521-3.14c-.265-.458-.027-.723.183-.97.228-.284.448-.485.676-.751a2.727,2.727,0,0,0,.5-.714.931.931,0,0,0-.064-.842C11.211,9.645,10.3,7.411,9.923,6.5Z" transform="translate(3.368 3.551)" fill="#fff" fill-rule="evenodd"/>
  </g>
</svg>
