<svg xmlns="http://www.w3.org/2000/svg" xmlns:xlink="http://www.w3.org/1999/xlink" width="160.039" height="57" viewBox="0 0 160.039 57">
  <defs>
    <filter id="Elipse_2" x="105.039" y="2" width="55" height="55" filterUnits="userSpaceOnUse">
      <feOffset dy="5" input="SourceAlpha"/>
      <feGaussianBlur stdDeviation="2.5" result="blur"/>
      <feFlood flood-opacity="0.302"/>
      <feComposite operator="in" in2="blur"/>
      <feComposite in="SourceGraphic"/>
    </filter>
    <filter id="Elipse_2-2" x="70" y="0" width="55" height="55" filterUnits="userSpaceOnUse">
      <feOffset dy="3" input="SourceAlpha"/>
      <feGaussianBlur stdDeviation="2.5" result="blur-2"/>
      <feFlood flood-opacity="0.302"/>
      <feComposite operator="in" in2="blur-2"/>
      <feComposite in="SourceGraphic"/>
    </filter>
    <linearGradient id="linear-gradient" x1="0.5" x2="0.5" y2="1" gradientUnits="objectBoundingBox">
      <stop offset="0" stop-color="#00acff"/>
      <stop offset="1" stop-color="#0073ff"/>
    </linearGradient>
    <filter id="Uni達o_5" x="35" y="0" width="55" height="54.615" filterUnits="userSpaceOnUse">
      <feOffset dy="3" input="SourceAlpha"/>
      <feGaussianBlur stdDeviation="2.5" result="blur-3"/>
      <feFlood flood-opacity="0.302"/>
      <feComposite operator="in" in2="blur-3"/>
      <feComposite in="SourceGraphic"/>
    </filter>
    <linearGradient id="linear-gradient-2" x1="0.5" x2="0.5" y2="1" gradientUnits="objectBoundingBox">
      <stop offset="0" stop-color="#5fd06b"/>
      <stop offset="1" stop-color="#2bb641"/>
    </linearGradient>
    <filter id="WhatsApp_1_" x="0" y="0" width="55" height="55" filterUnits="userSpaceOnUse">
      <feOffset dy="3" input="SourceAlpha"/>
      <feGaussianBlur stdDeviation="2.5" result="blur-4"/>
      <feFlood flood-opacity="0.302"/>
      <feComposite operator="in" in2="blur-4"/>
      <feComposite in="SourceGraphic"/>
    </filter>
  </defs>
  <g id="Grupo_1149" data-name="Grupo 1149" transform="translate(-135.5 -343.5)">
    <g id="Grupo_1145" data-name="Grupo 1145" transform="translate(-36)">
      <g id="Grupo_1148" data-name="Grupo 1148">
        <g id="Grupo_1142" data-name="Grupo 1142" transform="translate(284.039 348)">
          <g id="iconfinder_circle-facebook__317752" transform="translate(0)">
            <g transform="matrix(1, 0, 0, 1, -112.54, -4.5)" filter="url(#Elipse_2)">
              <circle id="Elipse_2-3" data-name="Elipse 2" cx="20" cy="20" r="20" transform="translate(112.54 4.5)" fill="#00a2f2"/>
            </g>
          </g>
          <g id="iconfinder_25_social_2609558" transform="matrix(0.798, -0.602, 0.602, 0.798, 3.608, 20.368)">
            <path id="Caminho_940" data-name="Caminho 940" d="M6.554,13.652a4.428,4.428,0,0,1-2.026-4.7A4.316,4.316,0,0,0,6.2,9.844c.013.007.033,0,.068,0A4.407,4.407,0,0,1,4.8,6.665a4.3,4.3,0,0,1,.615-2.349,4.376,4.376,0,0,0,1.43,1.441,4.455,4.455,0,0,1-.237-3.225A4.366,4.366,0,0,1,8.612,0a12.6,12.6,0,0,0,5.569,8.535c.067-.163.117-.309.184-.454a4.294,4.294,0,0,1,2-2.178,4.235,4.235,0,0,1,3.587-.23,4.316,4.316,0,0,1,2.732,2.994.226.226,0,0,0,.17.177,8.967,8.967,0,0,0,2.715.432h.068l.026.015a4.532,4.532,0,0,1-2.833,1.136,8.354,8.354,0,0,0,2.455.656.04.04,0,0,1,0,.028c-.255.107-.512.22-.769.317a8.736,8.736,0,0,1-2.151.515.152.152,0,0,0-.139.081,12.149,12.149,0,0,1-1.053,1.657,13.117,13.117,0,0,1-2.934,2.833,12.736,12.736,0,0,1-3.8,1.817,11.826,11.826,0,0,1-6.935-.1,14.1,14.1,0,0,1-2.272-.975A12.478,12.478,0,0,1,.057,12.088c-.018-.028-.026-.06-.057-.114a8.911,8.911,0,0,0,4.12,1.682,8.382,8.382,0,0,0,2.434,0Z" transform="translate(0 0)" fill="#fff" fill-rule="evenodd"/>
          </g>
        </g>
        <g id="Grupo_1144" data-name="Grupo 1144" transform="translate(249.128 347.633)">
          <g id="iconfinder_circle-facebook__317752-2" data-name="iconfinder_circle-facebook__317752" transform="translate(0 0.367)">
            <g transform="matrix(1, 0, 0, 1, -77.63, -4.5)" filter="url(#Elipse_2-2)">
              <circle id="Elipse_2-4" data-name="Elipse 2" cx="20" cy="20" r="20" transform="translate(77.5 4.5)" fill="#485995"/>
            </g>
          </g>
          <path id="Caminho_935" data-name="Caminho 935" d="M6.1,4.387c.609-.38,1.241-.726,1.861-1.086l.256-.146L6.4,0c-.354.155-.726.31-1.086.5-.653.34-1.306.679-1.943,1.065A5.547,5.547,0,0,0,1.143,3.937a4.511,4.511,0,0,0-.1,3.567,10.891,10.891,0,0,0,.667,1.422c.394.715.816,1.413,1.227,2.125l.155.268L0,13.107l2.035,3.523,3.083-1.777,5.118,8.853,3.756-2.171L8.871,12.692l3.071-1.771c-.518-1.264-1.034-2.509-1.573-3.809l-.687.4c-.872.513-2.874,1.659-2.874,1.659s-1-1.748-1.417-2.523A1.528,1.528,0,0,1,6.1,4.387Z" transform="translate(20.648 6.055) rotate(31)" fill="#fff" fill-rule="evenodd"/>
        </g>
      </g>
    </g>
    <g id="Grupo_1115" data-name="Grupo 1115" transform="translate(28 -16)">
      <g id="Grupo_1069" data-name="Grupo 1069" transform="translate(150 364)">
        <g transform="matrix(1, 0, 0, 1, -42.5, -4.5)" filter="url(#Uni達o_5)">
          <path id="Uni達o_5-2" data-name="Uni達o 5" d="M7.159,38.137v-4.2a2.086,2.086,0,0,0-.747-1.677L6.4,32.251l-.012-.011A17.73,17.73,0,0,1,5.88,5.426,20.714,20.714,0,0,1,20.034,0,20.553,20.553,0,0,1,34.157,5.462a17.749,17.749,0,0,1-.037,26.359,20.72,20.72,0,0,1-14.154,5.426,20.206,20.206,0,0,1-4.651-.5l-.021-.005-.021-.007a1.61,1.61,0,0,0-.458-.065,2.127,2.127,0,0,0-1.018.277L9.325,39.422a1.486,1.486,0,0,1-.726.194A1.461,1.461,0,0,1,7.159,38.137Z" transform="translate(42.5 4.5)" fill="url(#linear-gradient)"/>
        </g>
        <path id="Caminho_15" data-name="Caminho 15" d="M29.881,15.875l-7.09,7.984A1.156,1.156,0,0,1,21.277,24l-2.271-3.6c-1.032-.826-1-1.252-2.241-.839l-5.4,3.2a1.108,1.108,0,0,1-1.17-1.79l7.227-8.741a1.106,1.106,0,0,1,1.583-.138l2.931,3.1c1.032.964,1.348,1.1,2.656.688l4.118-1.79A1.108,1.108,0,0,1,29.881,15.875Z" transform="translate(-0.771 0.856)" fill="#fff"/>
      </g>
      <g id="Grupo_1070" data-name="Grupo 1070" transform="translate(115 364)">
        <g transform="matrix(1, 0, 0, 1, -7.5, -4.5)" filter="url(#WhatsApp_1_)">
          <path id="WhatsApp_1_2" data-name="WhatsApp_1_" d="M19.994,0A19.986,19.986,0,0,0,3.808,31.722L1.316,39.153,9,36.7a20,20,0,1,0,11-36.7h-.012Z" transform="translate(7.5 4.5)" fill-rule="evenodd" fill="url(#linear-gradient-2)"/>
        </g>
        <path id="WhatsApp_1_3" data-name="WhatsApp_1_" d="M10.593,6.617c-.344-.826-.606-.858-1.127-.879-.178-.01-.375-.021-.595-.021a2.574,2.574,0,0,0-1.817.638,5.688,5.688,0,0,0-1.816,4.331,10.184,10.184,0,0,0,2.109,5.368c.261.345,3.622,5.66,8.841,7.826,4.081,1.695,5.292,1.538,6.221,1.339,1.357-.293,3.058-1.3,3.487-2.511a4.428,4.428,0,0,0,.3-2.469c-.125-.22-.47-.345-.992-.607s-3.058-1.517-3.538-1.685a.99.99,0,0,0-1.273.387,21.834,21.834,0,0,1-1.388,1.841,1.12,1.12,0,0,1-1.253.2A13.081,13.081,0,0,1,13.589,17.8a15.822,15.822,0,0,1-2.881-3.588c-.3-.523-.031-.827.209-1.109.261-.325.511-.554.772-.858a3.117,3.117,0,0,0,.574-.816,1.064,1.064,0,0,0-.073-.963C12.065,10.206,11.021,7.653,10.593,6.617Z" transform="translate(4.598 4.875)" fill="#fff" fill-rule="evenodd"/>
      </g>
    </g>
  </g>
</svg>
