<svg xmlns="http://www.w3.org/2000/svg" xmlns:xlink="http://www.w3.org/1999/xlink" width="111.25" height="50" viewBox="0 0 111.25 50">
  <defs>
    <filter id="Caminho_987" x="61.25" y="0" width="50" height="50" filterUnits="userSpaceOnUse">
      <feOffset dy="3" input="SourceAlpha"/>
      <feGaussianBlur stdDeviation="2.5" result="blur"/>
      <feFlood flood-opacity="0.302"/>
      <feComposite operator="in" in2="blur"/>
      <feComposite in="SourceGraphic"/>
    </filter>
    <linearGradient id="linear-gradient" x1="0.5" x2="0.5" y2="1" gradientUnits="objectBoundingBox">
      <stop offset="0" stop-color="#00acff"/>
      <stop offset="1" stop-color="#0073ff"/>
    </linearGradient>
    <filter id="Uni達o_5" x="30.625" y="0" width="50" height="49.663" filterUnits="userSpaceOnUse">
      <feOffset dy="3" input="SourceAlpha"/>
      <feGaussianBlur stdDeviation="2.5" result="blur-2"/>
      <feFlood flood-opacity="0.302"/>
      <feComposite operator="in" in2="blur-2"/>
      <feComposite in="SourceGraphic"/>
    </filter>
    <linearGradient id="linear-gradient-2" x1="0.5" x2="0.5" y2="1" gradientUnits="objectBoundingBox">
      <stop offset="0" stop-color="#5fd06b"/>
      <stop offset="1" stop-color="#2bb641"/>
    </linearGradient>
    <filter id="WhatsApp_1_" x="0" y="0" width="50" height="50" filterUnits="userSpaceOnUse">
      <feOffset dy="3" input="SourceAlpha"/>
      <feGaussianBlur stdDeviation="2.5" result="blur-3"/>
      <feFlood flood-opacity="0.302"/>
      <feComposite operator="in" in2="blur-3"/>
      <feComposite in="SourceGraphic"/>
    </filter>
  </defs>
  <g id="Grupo_1115" data-name="Grupo 1115" transform="translate(7.5 4.5)">
    <g id="iconfinder_social-56_1591869" transform="translate(61.25 0)">
      <g id="Grupo_1216" data-name="Grupo 1216">
        <g transform="matrix(1, 0, 0, 1, -68.75, -4.5)" filter="url(#Caminho_987)">
          <path id="Caminho_987-2" data-name="Caminho 987" d="M17.5,0A17.5,17.5,0,1,1,0,17.5,17.5,17.5,0,0,1,17.5,0Z" transform="translate(68.75 4.5)" fill="#139bd0"/>
        </g>
      </g>
      <path id="Caminho_971" data-name="Caminho 971" d="M36.761,42.6c-.674.656-1.342,1.3-2,1.953a1.044,1.044,0,0,1-.824.336.419.419,0,0,1-.423-.327c-.507-1.574-1.022-3.144-1.526-4.719a.368.368,0,0,0-.276-.275q-1.792-.547-3.577-1.117a2.034,2.034,0,0,1-.526-.242.375.375,0,0,1-.061-.63,2.421,2.421,0,0,1,.7-.435c1.46-.579,2.928-1.139,4.394-1.7l11.16-4.307a.8.8,0,0,1,1.178.877,13.179,13.179,0,0,1-.276,1.454Q43.483,39.18,42.266,44.9c-.193.905-.829,1.142-1.574.592q-1.872-1.38-3.742-2.764C36.891,42.686,36.829,42.644,36.761,42.6Zm-2.8,1.158L34,43.743a.872.872,0,0,0,.022-.106c.08-.864.165-1.729.235-2.595a.635.635,0,0,1,.227-.46q1.726-1.543,3.439-3.1,1.9-1.716,3.8-3.435a1.068,1.068,0,0,0,.164-.289,1.072,1.072,0,0,0-.355-.033,1.548,1.548,0,0,0-.418.207q-4.2,2.644-8.4,5.288a.252.252,0,0,0-.128.358c.206.593.394,1.192.589,1.789Z" transform="translate(-18.688 -20.914)" fill="#fff" fill-rule="evenodd"/>
    </g>
    <g id="Grupo_1069" data-name="Grupo 1069" transform="translate(30.625 0)">
      <g transform="matrix(1, 0, 0, 1, -38.13, -4.5)" filter="url(#Uni達o_5)">
        <path id="Uni達o_5-2" data-name="Uni達o 5" d="M6.264,33.37V29.7a1.825,1.825,0,0,0-.654-1.467L5.6,28.22l-.01-.009A15.514,15.514,0,0,1,5.145,4.748,18.125,18.125,0,0,1,17.53,0,17.984,17.984,0,0,1,29.888,4.779a15.53,15.53,0,0,1-.033,23.064A18.13,18.13,0,0,1,17.47,32.591a17.68,17.68,0,0,1-4.07-.44l-.019,0-.019-.006a1.409,1.409,0,0,0-.4-.057,1.861,1.861,0,0,0-.89.243L8.159,34.494a1.3,1.3,0,0,1-.635.169A1.279,1.279,0,0,1,6.264,33.37Z" transform="translate(38.13 4.5)" fill="url(#linear-gradient)"/>
      </g>
      <path id="Caminho_15" data-name="Caminho 15" d="M27.385,15.368l-6.2,6.986a1.012,1.012,0,0,1-1.325.12l-1.987-3.147c-.9-.723-.877-1.1-1.961-.734l-4.724,2.8a.97.97,0,0,1-1.024-1.566l6.324-7.649a.968.968,0,0,1,1.385-.12l2.565,2.71c.9.843,1.18.964,2.324.6l3.6-1.566A.97.97,0,0,1,27.385,15.368Z" transform="translate(-1.914 -0.728)" fill="#fff"/>
    </g>
    <g id="Grupo_1070" data-name="Grupo 1070" transform="translate(0 0)">
      <g transform="matrix(1, 0, 0, 1, -7.5, -4.5)" filter="url(#WhatsApp_1_)">
        <path id="WhatsApp_1_2" data-name="WhatsApp_1_" d="M17.495,0A17.488,17.488,0,0,0,3.332,27.757l-2.181,6.5,6.727-2.15A17.5,17.5,0,1,0,17.505,0H17.5Z" transform="translate(7.5 4.5)" fill-rule="evenodd" fill="url(#linear-gradient-2)"/>
      </g>
      <path id="WhatsApp_1_3" data-name="WhatsApp_1_" d="M9.923,6.5c-.3-.723-.53-.751-.986-.769-.155-.009-.329-.018-.521-.018a2.252,2.252,0,0,0-1.589.558,4.977,4.977,0,0,0-1.589,3.79,8.911,8.911,0,0,0,1.845,4.7c.228.3,3.17,4.952,7.736,6.848,3.571,1.483,4.631,1.346,5.444,1.172a4.381,4.381,0,0,0,3.051-2.2,3.874,3.874,0,0,0,.265-2.161c-.11-.192-.411-.3-.868-.531s-2.676-1.328-3.1-1.474a.866.866,0,0,0-1.114.339,19.105,19.105,0,0,1-1.215,1.611.98.98,0,0,1-1.1.174,11.446,11.446,0,0,1-3.644-2.252,13.844,13.844,0,0,1-2.521-3.14c-.265-.458-.027-.723.183-.97.228-.284.448-.485.676-.751a2.727,2.727,0,0,0,.5-.714.931.931,0,0,0-.064-.842C11.211,9.645,10.3,7.411,9.923,6.5Z" transform="translate(3.368 3.551)" fill="#fff" fill-rule="evenodd"/>
    </g>
  </g>
</svg>
