<svg xmlns="http://www.w3.org/2000/svg" xmlns:xlink="http://www.w3.org/1999/xlink" width="54" height="55" viewBox="0 0 54 55">
  <defs>
    <linearGradient id="linear-gradient" x1="0.5" x2="0.5" y2="1" gradientUnits="objectBoundingBox">
      <stop offset="0" stop-color="#18acfe"/>
      <stop offset="1" stop-color="#0164e1"/>
    </linearGradient>
    <filter id="Elipse_2" x="0" y="0" width="54" height="55" filterUnits="userSpaceOnUse">
      <feOffset dy="3" input="SourceAlpha"/>
      <feGaussianBlur stdDeviation="2.5" result="blur"/>
      <feFlood flood-opacity="0.302"/>
      <feComposite operator="in" in2="blur"/>
      <feComposite in="SourceGraphic"/>
    </filter>
  </defs>
  <g id="ico-facebook" transform="translate(-2203 -12878.5)">
    <g id="iconfinder_circle-facebook__317752" transform="translate(2210.5 12883)">
      <g transform="matrix(1, 0, 0, 1, -7.5, -4.5)" filter="url(#Elipse_2)">
        <ellipse id="Elipse_2-2" data-name="Elipse 2" cx="19.5" cy="20" rx="19.5" ry="20" transform="translate(7.5 4.5)" fill="url(#linear-gradient)"/>
      </g>
    </g>
    <path id="Interseção_1" data-name="Interseção 1" d="M5.081,30.2,4.849,16.358l-4.8-.043L0,10.922l4.819.035,0-.41c-.009-1.09-.041-2.17-.028-3.252a14.248,14.248,0,0,1,.163-2.073A5.843,5.843,0,0,1,7.442,1.214,7.485,7.485,0,0,1,11.633,0c1.005-.013,2,.039,2.991.089.55.024,1.09.1,1.608.157l.041,4.83-.4-.005c-.968-.005-1.939-.035-2.908-.011a2.06,2.06,0,0,0-1.686.5,1.975,1.975,0,0,0-.652,1.6C10.6,8.33,10.616,11,10.616,11s3.114.037,4.478.036l.885-.015c-.232,1.847.325,3.506.093,5.3l-5.378.094.239,13.648a20.116,20.116,0,0,1-3.395.287A20.219,20.219,0,0,1,5.081,30.2ZM16.272,5.079Z" transform="translate(2222.489 12892.655)" fill="#fff"/>
  </g>
</svg>
