<svg xmlns="http://www.w3.org/2000/svg" xmlns:xlink="http://www.w3.org/1999/xlink" width="125" height="55" viewBox="0 0 125 55">
  <defs>
    <filter id="Caminho_987" x="70" y="0" width="55" height="55" filterUnits="userSpaceOnUse">
      <feOffset dy="3" input="SourceAlpha"/>
      <feGaussianBlur stdDeviation="2.5" result="blur"/>
      <feFlood flood-opacity="0.302"/>
      <feComposite operator="in" in2="blur"/>
      <feComposite in="SourceGraphic"/>
    </filter>
    <linearGradient id="linear-gradient" x1="0.5" x2="0.5" y2="1" gradientUnits="objectBoundingBox">
      <stop offset="0" stop-color="#00acff"/>
      <stop offset="1" stop-color="#0073ff"/>
    </linearGradient>
    <filter id="Uni達o_5" x="35" y="0" width="55" height="54.615" filterUnits="userSpaceOnUse">
      <feOffset dy="3" input="SourceAlpha"/>
      <feGaussianBlur stdDeviation="2.5" result="blur-2"/>
      <feFlood flood-opacity="0.302"/>
      <feComposite operator="in" in2="blur-2"/>
      <feComposite in="SourceGraphic"/>
    </filter>
    <linearGradient id="linear-gradient-2" x1="0.5" x2="0.5" y2="1" gradientUnits="objectBoundingBox">
      <stop offset="0" stop-color="#5fd06b"/>
      <stop offset="1" stop-color="#2bb641"/>
    </linearGradient>
    <filter id="WhatsApp_1_" x="0" y="0" width="55" height="55" filterUnits="userSpaceOnUse">
      <feOffset dy="3" input="SourceAlpha"/>
      <feGaussianBlur stdDeviation="2.5" result="blur-3"/>
      <feFlood flood-opacity="0.302"/>
      <feComposite operator="in" in2="blur-3"/>
      <feComposite in="SourceGraphic"/>
    </filter>
  </defs>
  <g id="Grupo_1115" data-name="Grupo 1115" transform="translate(-107.5 -359.5)">
    <g id="iconfinder_social-56_1591869" transform="translate(185 364)">
      <g transform="matrix(1, 0, 0, 1, -77.5, -4.5)" filter="url(#Caminho_987)">
        <path id="Caminho_987-2" data-name="Caminho 987" d="M20,0A20,20,0,1,1,0,20,20,20,0,0,1,20,0Z" transform="translate(77.5 4.5)" fill="#139bd0"/>
      </g>
      <path id="Caminho_971" data-name="Caminho 971" d="M38.1,44.247c-.77.75-1.534,1.488-2.29,2.232a1.194,1.194,0,0,1-.941.384.479.479,0,0,1-.484-.373c-.58-1.8-1.168-3.593-1.744-5.393a.42.42,0,0,0-.316-.314q-2.048-.625-4.088-1.276a2.325,2.325,0,0,1-.6-.277.428.428,0,0,1-.07-.72,2.767,2.767,0,0,1,.8-.5c1.669-.661,3.347-1.3,5.022-1.947l12.754-4.923a.91.91,0,0,1,1.346,1,15.062,15.062,0,0,1-.316,1.661Q45.781,40.343,44.39,46.88c-.22,1.035-.947,1.3-1.8.677Q40.452,45.98,38.315,44.4C38.247,44.349,38.176,44.3,38.1,44.247ZM34.9,45.57l.048-.013a1,1,0,0,0,.025-.121c.092-.988.188-1.976.268-2.965a.726.726,0,0,1,.259-.525q1.972-1.763,3.931-3.539,2.174-1.961,4.343-3.925a1.221,1.221,0,0,0,.188-.331,1.226,1.226,0,0,0-.405-.037,1.769,1.769,0,0,0-.478.236q-4.8,3.022-9.6,6.044a.288.288,0,0,0-.146.409c.236.678.451,1.362.673,2.044Z" transform="translate(-17.443 -19.467)" fill="#fff" fill-rule="evenodd"/>
    </g>
    <g id="Grupo_1069" data-name="Grupo 1069" transform="translate(150 364)">
      <g transform="matrix(1, 0, 0, 1, -42.5, -4.5)" filter="url(#Uni達o_5)">
        <path id="Uni達o_5-2" data-name="Uni達o 5" d="M7.159,38.137v-4.2a2.086,2.086,0,0,0-.747-1.677L6.4,32.251l-.012-.011A17.73,17.73,0,0,1,5.88,5.426,20.714,20.714,0,0,1,20.034,0,20.553,20.553,0,0,1,34.157,5.462a17.749,17.749,0,0,1-.037,26.359,20.72,20.72,0,0,1-14.154,5.426,20.206,20.206,0,0,1-4.651-.5l-.021-.005-.021-.007a1.61,1.61,0,0,0-.458-.065,2.127,2.127,0,0,0-1.018.277L9.325,39.422a1.486,1.486,0,0,1-.726.194A1.461,1.461,0,0,1,7.159,38.137Z" transform="translate(42.5 4.5)" fill="url(#linear-gradient)"/>
      </g>
      <path id="Caminho_15" data-name="Caminho 15" d="M29.881,15.875l-7.09,7.984A1.156,1.156,0,0,1,21.277,24l-2.271-3.6c-1.032-.826-1-1.252-2.241-.839l-5.4,3.2a1.108,1.108,0,0,1-1.17-1.79l7.227-8.741a1.106,1.106,0,0,1,1.583-.138l2.931,3.1c1.032.964,1.348,1.1,2.656.688l4.118-1.79A1.108,1.108,0,0,1,29.881,15.875Z" transform="translate(-0.771 0.856)" fill="#fff"/>
    </g>
    <g id="Grupo_1070" data-name="Grupo 1070" transform="translate(115 364)">
      <g transform="matrix(1, 0, 0, 1, -7.5, -4.5)" filter="url(#WhatsApp_1_)">
        <path id="WhatsApp_1_2" data-name="WhatsApp_1_" d="M19.994,0A19.986,19.986,0,0,0,3.808,31.722L1.316,39.153,9,36.7a20,20,0,1,0,11-36.7h-.012Z" transform="translate(7.5 4.5)" fill-rule="evenodd" fill="url(#linear-gradient-2)"/>
      </g>
      <path id="WhatsApp_1_3" data-name="WhatsApp_1_" d="M10.593,6.617c-.344-.826-.606-.858-1.127-.879-.178-.01-.375-.021-.595-.021a2.574,2.574,0,0,0-1.817.638,5.688,5.688,0,0,0-1.816,4.331,10.184,10.184,0,0,0,2.109,5.368c.261.345,3.622,5.66,8.841,7.826,4.081,1.695,5.292,1.538,6.221,1.339,1.357-.293,3.058-1.3,3.487-2.511a4.428,4.428,0,0,0,.3-2.469c-.125-.22-.47-.345-.992-.607s-3.058-1.517-3.538-1.685a.99.99,0,0,0-1.273.387,21.834,21.834,0,0,1-1.388,1.841,1.12,1.12,0,0,1-1.253.2A13.081,13.081,0,0,1,13.589,17.8a15.822,15.822,0,0,1-2.881-3.588c-.3-.523-.031-.827.209-1.109.261-.325.511-.554.772-.858a3.117,3.117,0,0,0,.574-.816,1.064,1.064,0,0,0-.073-.963C12.065,10.206,11.021,7.653,10.593,6.617Z" transform="translate(4.598 4.875)" fill="#fff" fill-rule="evenodd"/>
    </g>
  </g>
</svg>
