<svg xmlns="http://www.w3.org/2000/svg" xmlns:xlink="http://www.w3.org/1999/xlink" width="164.219" height="164.219" viewBox="0 0 164.219 164.219">
  <defs>
    <filter id="Elipse_2" x="0" y="0" width="164.219" height="164.219" filterUnits="userSpaceOnUse">
      <feOffset dy="5" input="SourceAlpha"/>
      <feGaussianBlur stdDeviation="2.5" result="blur"/>
      <feFlood flood-opacity="0.302"/>
      <feComposite operator="in" in2="blur"/>
      <feComposite in="SourceGraphic"/>
    </filter>
  </defs>
  <g id="Grupo_1041" data-name="Grupo 1041" transform="translate(-968.5 -1986.5)">
    <g id="Grupo_986" data-name="Grupo 986" transform="translate(-950 -130)">
      <g id="Grupo_981" data-name="Grupo 981" transform="translate(343.735 0.471)">
        <g id="Grupo_977" data-name="Grupo 977" transform="translate(124.161 -91)">
          <g id="Grupo_972" data-name="Grupo 972" transform="translate(1468.104 2219.529)">
            <g id="iconfinder_circle-facebook__317752" transform="translate(0)">
              <g transform="matrix(1, 0, 0, 1, -17.5, -12.5)" filter="url(#Elipse_2)">
                <g id="Elipse_2-2" data-name="Elipse 2" transform="translate(17.5 12.5)" fill="#e4e4e4" stroke="#fff" stroke-width="10">
                  <circle cx="64.61" cy="64.61" r="64.61" stroke="none"/>
                  <circle cx="64.61" cy="64.61" r="69.61" fill="none"/>
                </g>
              </g>
            </g>
          </g>
        </g>
      </g>
    </g>
    <g id="Grupo_984" data-name="Grupo 984" transform="translate(1412.229 1579.101)">
      <path id="Caminho_966" data-name="Caminho 966" d="M-322.76,496.323c2.6-.889,5.1-1.768,7.617-2.6,6.268-2.066,9-7.45,6.937-13.733-.239-.729-.487-1.454-.791-2.363l-18.06,6.086-3.251-9.454,24.641-8.479-4.116-12.508-17.3,5.885-.266-.361c1.9-1.836,3.814-3.662,5.7-5.512,1.688-1.653,3.346-3.336,5.025-5a11.235,11.235,0,0,1,15.7-.313c.632.577,1.275,1.143,1.87,1.675l-8.15,2.215c1.44,4.221,2.789,8.148,4.113,12.083.272.81.752.595,1.315.4,3.932-1.353,7.878-2.664,11.8-4.052a1.535,1.535,0,0,1,1.877.473c5.29,5.341,10.627,10.636,15.932,15.963a11.154,11.154,0,0,1,.38,15.87c-1.946,2.1-4.043,4.069-6.369,6.395.125-1.016.209-1.653.28-2.291a18.425,18.425,0,0,0-1.354-8.172q-4.127-11.838-8.115-23.724c-.384-1.147-.826-1.232-1.837-.816a13.7,13.7,0,0,0-7.928,17.362c2.463,7.223,4.906,14.452,7.405,21.662a8.792,8.792,0,0,1-2.245,9.79q-4.094,4.107-8.2,8.2c-5.453,5.469-12.947,5.043-17.909-1.137.358-.161.673-.335,1.008-.449q9.13-3.111,18.267-6.2c5.342-1.8,7.4-5.8,5.683-11.19-.451-1.419-.977-2.815-1.518-4.364l-24.807,8.377Z" transform="translate(-52.638)" fill="#e11f25"/>
      <path id="Caminho_967" data-name="Caminho 967" d="M-388.531,590.652c-3.484-3.433-6.96-6.516-10.028-9.963-4.3-4.83-3.259-12.328,2.047-16.3a19.549,19.549,0,0,0,.39,3.438c.955,3.239,2.028,6.443,3.1,9.646C-391.571,581.8-390.077,586.12-388.531,590.652Z" transform="translate(0 -88.659)" fill="#e11f25"/>
    </g>
  </g>
</svg>
