<svg xmlns="http://www.w3.org/2000/svg" xmlns:xlink="http://www.w3.org/1999/xlink" width="50" height="50" viewBox="0 0 50 50">
  <defs>
    <filter id="Caminho_987" x="0" y="0" width="50" height="50" filterUnits="userSpaceOnUse">
      <feOffset dy="3" input="SourceAlpha"/>
      <feGaussianBlur stdDeviation="2.5" result="blur"/>
      <feFlood flood-opacity="0.302"/>
      <feComposite operator="in" in2="blur"/>
      <feComposite in="SourceGraphic"/>
    </filter>
  </defs>
  <g id="iconfinder_social-56_1591869" transform="translate(7.5 4.5)">
    <g id="Grupo_1216" data-name="Grupo 1216">
      <g transform="matrix(1, 0, 0, 1, -7.5, -4.5)" filter="url(#Caminho_987)">
        <path id="Caminho_987-2" data-name="Caminho 987" d="M17.5,0A17.5,17.5,0,1,1,0,17.5,17.5,17.5,0,0,1,17.5,0Z" transform="translate(7.5 4.5)" fill="#139bd0"/>
      </g>
    </g>
    <path id="Caminho_971" data-name="Caminho 971" d="M36.761,42.6c-.674.656-1.342,1.3-2,1.953a1.044,1.044,0,0,1-.824.336.419.419,0,0,1-.423-.327c-.507-1.574-1.022-3.144-1.526-4.719a.368.368,0,0,0-.276-.275q-1.792-.547-3.577-1.117a2.034,2.034,0,0,1-.526-.242.375.375,0,0,1-.061-.63,2.421,2.421,0,0,1,.7-.435c1.46-.579,2.928-1.139,4.394-1.7l11.16-4.307a.8.8,0,0,1,1.178.877,13.179,13.179,0,0,1-.276,1.454Q43.483,39.18,42.266,44.9c-.193.905-.829,1.142-1.574.592q-1.872-1.38-3.742-2.764C36.891,42.686,36.829,42.644,36.761,42.6Zm-2.8,1.158L34,43.743a.872.872,0,0,0,.022-.106c.08-.864.165-1.729.235-2.595a.635.635,0,0,1,.227-.46q1.726-1.543,3.439-3.1,1.9-1.716,3.8-3.435a1.068,1.068,0,0,0,.164-.289,1.072,1.072,0,0,0-.355-.033,1.548,1.548,0,0,0-.418.207q-4.2,2.644-8.4,5.288a.252.252,0,0,0-.128.358c.206.593.394,1.192.589,1.789Z" transform="translate(-18.688 -20.914)" fill="#fff" fill-rule="evenodd"/>
  </g>
</svg>
