<svg xmlns="http://www.w3.org/2000/svg" xmlns:xlink="http://www.w3.org/1999/xlink" width="55" height="55" viewBox="0 0 55 55">
  <defs>
    <filter id="Elipse_1" x="0" y="0" width="55" height="55" filterUnits="userSpaceOnUse">
      <feOffset dy="5" input="SourceAlpha"/>
      <feGaussianBlur stdDeviation="2.5" result="blur"/>
      <feFlood flood-opacity="0.302"/>
      <feComposite operator="in" in2="blur"/>
      <feComposite in="SourceGraphic"/>
    </filter>
  </defs>
  <g id="ico_esporte" transform="translate(-284.5 -32.5)">
    <g transform="matrix(1, 0, 0, 1, 284.5, 32.5)" filter="url(#Elipse_1)">
      <circle id="Elipse_1-2" data-name="Elipse 1" cx="20" cy="20" r="20" transform="translate(7.5 2.5)" fill="#e20613"/>
    </g>
    <g id="Grupo_17" data-name="Grupo 17" transform="translate(300.148 -420.006)">
      <path id="Caminho_8" data-name="Caminho 8" d="M261.575-1022.864a3.784,3.784,0,0,0-1.4.583c-.167.117-.6.536-1.959,1.89-.959.954-1.735,1.74-1.726,1.742s1.212-.4,2.671-.9,2.654-.9,2.656-.9c.021.029,1.2,3.694,1.193,3.7s-1.654.571-3.661,1.257-3.647,1.252-3.644,1.264c.009.055.938,2.778.95,2.79s.814-.255,1.795-.581,1.778-.6,1.771-.6a1.911,1.911,0,0,1,.317-.112,8.864,8.864,0,0,1,1.533-.445,6.936,6.936,0,0,1,.388,1.345,3,3,0,0,1-.25,1.762,3.467,3.467,0,0,1-.95,1.1,6.26,6.26,0,0,1-2.021.864c-.7.238-1.276.436-1.281.44s.981,2.895,1,2.895,3.506-1.178,6.744-2.278c.331-.112.6-.2.609-.2.021.024.562,1.69.583,1.795a2.409,2.409,0,0,1-.324,1.723,2.588,2.588,0,0,1-1,.885c-.064.028-1.5.528-3.2,1.109s-3.085,1.059-3.09,1.061a7.7,7.7,0,0,0,.933.864,3.249,3.249,0,0,0,1.9.59,3.183,3.183,0,0,0,1.5-.34c.517-.252.586-.312,2.116-1.835a13.738,13.738,0,0,0,1.873-1.985,2.623,2.623,0,0,0,.348-1.74c-.029-.152-.393-1.259-1.226-3.714-.655-1.926-1.212-3.6-1.238-3.713a3.558,3.558,0,0,1-.093-1.059,3.617,3.617,0,0,1,.421-1.678,4.078,4.078,0,0,1,1.428-1.614,3.362,3.362,0,0,1,.995-.457l.112-.017,1.393,4.056c.766,2.228,1.416,4.146,1.445,4.261a4.509,4.509,0,0,1,.007,2.078,1.086,1.086,0,0,0-.04.2c.019.019,2.069-2.071,2.185-2.23a3.232,3.232,0,0,0,.664-2.009,3.367,3.367,0,0,0-.909-2.347c-.112-.124-1.3-1.321-2.645-2.659l-2.445-2.433-.136.048c-.876.307-3.947,1.354-3.966,1.354-.036,0-1.314-3.711-1.288-3.735s.355-.133.759-.274a3.767,3.767,0,0,1,1.426-.324h.264l-.417-.414a3.468,3.468,0,0,0-1.04-.79,3.824,3.824,0,0,0-.885-.281A4.7,4.7,0,0,0,261.575-1022.864Z" transform="translate(-250.307 1486.06)" fill="#fff"/>
      <path id="Caminho_12" data-name="Caminho 12" d="M30.217-642.648a3.563,3.563,0,0,0-.733.99,3.424,3.424,0,0,0,.088,3.1c.217.4.4.6,1.914,2.111.8.8,1.447,1.431,1.44,1.4-.19-.538-2.138-6.279-2.183-6.439a4.34,4.34,0,0,1-.174-1.171c0-.2,0-.352,0-.352S30.407-642.841,30.217-642.648Z" transform="translate(-29.154 1115.203)" fill="#fff"/>
    </g>
  </g>
</svg>
