<svg width="20" height="20" viewBox="0 0 20 20" fill="none" xmlns="http://www.w3.org/2000/svg">
<path d="M4.56795 1.66033C4.49416 1.56541 4.40101 1.48727 4.29471 1.43111C4.1884 1.37496 4.07136 1.34206 3.95136 1.33461C3.83137 1.32717 3.71116 1.34534 3.59872 1.38792C3.48629 1.4305 3.3842 1.49651 3.29923 1.58158L2.00678 2.8753C1.40304 3.48028 1.18055 4.33651 1.44429 5.08774C2.53893 8.19715 4.31957 11.0202 6.65413 13.3475C8.98146 15.6821 11.8045 17.4627 14.9139 18.5574C15.6651 18.8212 16.5213 18.5987 17.1263 17.9949L18.4188 16.7025C18.5038 16.6175 18.5698 16.5154 18.6124 16.403C18.655 16.2905 18.6732 16.1703 18.6657 16.0503C18.6583 15.9303 18.6254 15.8133 18.5692 15.707C18.5131 15.6007 18.4349 15.5075 18.34 15.4337L15.4564 13.1913C15.3549 13.1126 15.237 13.058 15.1114 13.0316C14.9858 13.0052 14.8559 13.0077 14.7314 13.0388L11.994 13.7225C11.6286 13.8139 11.2458 13.809 10.8828 13.7085C10.5198 13.6079 10.1891 13.4151 9.92278 13.1488L6.85287 10.0776C6.58634 9.81143 6.3933 9.48074 6.29253 9.11777C6.19177 8.7548 6.18672 8.37192 6.27789 8.00642L6.96287 5.26899C6.994 5.14449 6.99645 5.01454 6.97004 4.88895C6.94362 4.76337 6.88903 4.64542 6.81038 4.54401L4.56795 1.66033ZM2.35551 0.639103C2.57425 0.420295 2.83703 0.250526 3.12641 0.141067C3.41579 0.0316081 3.72515 -0.0150349 4.03394 0.00423494C4.34273 0.0235048 4.64388 0.108247 4.91741 0.252833C5.19094 0.39742 5.43058 0.598544 5.62041 0.842848L7.86284 3.72528C8.27408 4.25401 8.41907 4.94275 8.25658 5.59273L7.57285 8.33017C7.5375 8.47195 7.53941 8.62046 7.5784 8.76129C7.61738 8.90212 7.69211 9.03048 7.79534 9.1339L10.8665 12.2051C10.97 12.3085 11.0986 12.3834 11.2397 12.4224C11.3807 12.4614 11.5295 12.4631 11.6715 12.4276L14.4076 11.7438C14.7284 11.6636 15.0632 11.6574 15.3867 11.7256C15.7102 11.7938 16.014 11.9347 16.2751 12.1376L19.1575 14.38C20.1937 15.1862 20.2887 16.7175 19.3612 17.6437L18.0688 18.9362C17.1438 19.8611 15.7613 20.2674 14.4726 19.8136C11.1742 18.6531 8.17942 16.7648 5.71041 14.2888C3.2346 11.8201 1.34631 8.82573 0.185583 5.52773C-0.266903 4.24027 0.139334 2.85655 1.06431 1.93157L2.35676 0.639103H2.35551Z" fill="black"/>
</svg>
