<svg xmlns="http://www.w3.org/2000/svg" xmlns:xlink="http://www.w3.org/1999/xlink" width="74.173" height="74.174" viewBox="0 0 74.173 74.174">
  <defs>
    <filter id="Caminho_67" x="0" y="0" width="74.173" height="74.174" filterUnits="userSpaceOnUse">
      <feOffset dy="3" input="SourceAlpha"/>
      <feGaussianBlur stdDeviation="4" result="blur"/>
      <feFlood flood-opacity="0.502"/>
      <feComposite operator="in" in2="blur"/>
      <feComposite in="SourceGraphic"/>
    </filter>
  </defs>
  <g id="icon-CN" transform="translate(12 9)">
    <g id="Grupo_820" data-name="Grupo 820">
      <g id="youtube-logo_1_" data-name="youtube-logo (1)">
        <g id="Grupo_819" data-name="Grupo 819">
          <g transform="matrix(1, 0, 0, 1, -12, -9)" filter="url(#Caminho_67)">
            <path id="Caminho_67-2" data-name="Caminho 67" d="M47.416,2.76A9.06,9.06,0,0,0,40.769,0H9.411A9.063,9.063,0,0,0,2.763,2.76,9.063,9.063,0,0,0,0,9.408V40.766a9.063,9.063,0,0,0,2.76,6.648,9.062,9.062,0,0,0,6.648,2.76H40.769a9.424,9.424,0,0,0,9.407-9.408V9.408A9.063,9.063,0,0,0,47.416,2.76Z" transform="translate(12 9)" fill="#010101"/>
          </g>
          <path id="Caminho_68" data-name="Caminho 68" d="M205.852,93.569Z" transform="translate(-182.3 -77.726)" fill="#010101"/>
        </g>
      </g>
    </g>
    <g id="Cartoon_Network_logo" transform="translate(4.584 13.165)">
      <path id="path1984" d="M392.981,28.64h20.458q0,9.965,0,19.93H392.98Q392.982,38.606,392.981,28.64Z" transform="translate(-373.548 -28.64)" fill="#fff"/>
      <path id="path6" d="M28.249,28.713H48.195q0,9.965,0,19.93H28.248Q28.25,38.678,28.249,28.713Z" transform="translate(-28.248 -28.709)" fill="#010101"/>
      <path id="path8" d="M64.8,48.534a8.9,8.9,0,0,1,9.859,4.23c-1.4.789-2.794,1.6-4.194,2.389-.252.143-.509.278-.752.435a3.208,3.208,0,0,0-3.271-1.578,3.2,3.2,0,1,0,2.189,5.871,3.334,3.334,0,0,0,1.086-1.128c.939.562,1.9,1.088,2.847,1.638.7.395,1.393.8,2.1,1.192a8.941,8.941,0,0,1-5.456,4.187c-.284.09-.581.121-.869.193a9.586,9.586,0,0,1-2,.079A8.892,8.892,0,0,1,64.8,48.534Z" transform="translate(-56.392 -47.198)" fill="#fff"/>
      <path id="path10" d="M418.9,54.747c1.9,0,3.8,0,5.7,0,1.917,2.362,3.8,4.752,5.711,7.119,0-2.373,0-4.745,0-7.118q2.848.006,5.7,0,0,8.545,0,17.092c-1.9,0-3.8,0-5.706,0-1.86-2.33-3.73-4.651-5.588-6.982-.037-.042-.074-.082-.114-.121.012,2.367,0,4.735,0,7.1q-2.853,0-5.706,0Q418.9,63.29,418.9,54.747Z" transform="translate(-397.536 -53.315)" fill="#010101"/>
      <path id="path12" d="M40.339,419.487a1.251,1.251,0,0,1,.924-1.228,1.273,1.273,0,0,1,1.452.586c-.209.145-.446.245-.652.4a.643.643,0,0,0-.363-.259.5.5,0,0,0-.574.4.67.67,0,0,0,.058.383.539.539,0,0,0,.876-.037c.217.136.443.254.66.389a1.282,1.282,0,0,1-2.381-.632Z" transform="translate(-39.677 -396.901)" fill="#fff"/>
      <path id="path14" d="M233.6,418.333a1.269,1.269,0,0,1,1.252.482,1.286,1.286,0,0,1-.244,1.781,1.364,1.364,0,0,1-1.12.215,1.3,1.3,0,0,1-.752-.58,1.377,1.377,0,0,1-.1-1.078A1.264,1.264,0,0,1,233.6,418.333Z" transform="translate(-221.401 -396.999)" fill="#fff"/>
      <path id="path16" d="M283.5,418.327a1.273,1.273,0,0,1,.9,2.371,1.48,1.48,0,0,1-.821.094,1.26,1.26,0,0,1-.93-.8A1.275,1.275,0,0,1,283.5,418.327Z" transform="translate(-268.661 -396.966)" fill="#fff"/>
      <path id="path18" d="M605.686,418.264a1.262,1.262,0,0,1,1.611,1.113,1.247,1.247,0,0,1-.569,1.18,1.394,1.394,0,0,1-1,.166,1.293,1.293,0,0,1-.911-.856,1.543,1.543,0,0,1,.009-.8A1.282,1.282,0,0,1,605.686,418.264Z" transform="translate(-573.243 -396.904)" fill="#fff"/>
      <path id="path20" d="M702.948,419.344h.819c0,.26,0,.52,0,.779.211-.251.4-.523.6-.78.352,0,.7,0,1.055,0-.325.385-.628.789-.959,1.169.331.416.638.851.965,1.271-.353.007-.706,0-1.059,0-.2-.307-.4-.609-.606-.912q0,.456,0,.912h-.819Q702.949,420.566,702.948,419.344Z" transform="translate(-666.053 -397.978)" fill="#fff"/>
      <path id="path22" d="M85.326,419.328c.409-.007.818,0,1.228,0,.184.486.31.993.478,1.484.118.316.18.651.309.963-.3,0-.591,0-.886,0a2.882,2.882,0,0,0-.121-.418c-.251.006-.5,0-.754,0-.05.137-.1.274-.14.414q-.431,0-.862,0C84.815,420.954,85.1,420.149,85.326,419.328Z" transform="translate(-81.498 -397.959)" fill="#fff"/>
      <path id="path24" d="M139.028,419.342c.512,0,1.025-.009,1.537.006a.858.858,0,0,1,.782,1.074.915.915,0,0,1-.453.556c.174.264.322.545.5.809-.305,0-.61,0-.914,0-.137-.235-.241-.488-.377-.724l-.25.008c0,.238,0,.476,0,.714-.274,0-.548,0-.821,0Q139.029,420.564,139.028,419.342Z" transform="translate(-132.97 -397.975)" fill="#fff"/>
      <path id="path26" d="M185.684,420.067c0-.238,0-.476,0-.714q1.226,0,2.453,0v.712c-.254,0-.508,0-.762,0q0,.868,0,1.736h-.913c0-.578,0-1.157,0-1.735C186.2,420.065,185.944,420.063,185.684,420.067Z" transform="translate(-177.074 -397.987)" fill="#fff"/>
      <path id="path28" d="M333.491,421.787q0-1.223,0-2.447c.27,0,.539-.007.809,0,.3.309.541.672.821,1-.006-.334,0-.668-.012-1,.273,0,.546,0,.82,0q0,1.223,0,2.446h-.8c-.278-.337-.548-.682-.821-1.023-.007.341,0,.681,0,1.022C334.035,421.786,333.763,421.785,333.491,421.787Z" transform="translate(-316.799 -397.974)" fill="#fff"/>
      <path id="path30" d="M407.988,419.354h.832c.271.335.533.676.81,1,0-.334,0-.669,0-1h.811q0,1.221,0,2.444c-.268,0-.535,0-.8,0-.282-.323-.54-.666-.807-1-.009.333,0,.666,0,1h-.839Q407.989,420.575,407.988,419.354Z" transform="translate(-387.222 -397.987)" fill="#fff"/>
      <path id="path32" d="M458.958,419.359H461.1c0,.236,0,.473,0,.709-.439,0-.877,0-1.316,0,0,.052,0,.156,0,.208H460.9q0,.307,0,.614h-1.123c0,.083,0,.165,0,.248h1.316c0,.221,0,.442,0,.664h-2.137Q458.959,420.58,458.958,419.359Z" transform="translate(-435.405 -397.993)" fill="#fff"/>
      <path id="path34" d="M502.938,420.062c0-.236,0-.472,0-.708.818,0,1.634,0,2.452,0,0,.237,0,.474,0,.711-.256,0-.512,0-.768,0,0,.579,0,1.157,0,1.735h-.92c0-.578,0-1.156,0-1.734Z" transform="translate(-476.98 -397.987)" fill="#fff"/>
      <path id="path36" d="M551.228,419.344h.826c.085.347.116.7.207,1.05.132-.325.271-.648.4-.976.155.322.261.666.427.983.022-.359.146-.7.18-1.059q.413,0,.825,0c-.134.818-.317,1.627-.453,2.443-.224,0-.449,0-.673,0-.117-.212-.2-.441-.3-.657-.092.219-.191.434-.278.655H551.7C551.529,420.976,551.4,420.157,551.228,419.344Z" transform="translate(-522.629 -397.978)" fill="#fff"/>
      <path id="path38" d="M655.544,421.769c0-.815,0-1.631,0-2.446.374,0,.75,0,1.125,0a2.263,2.263,0,0,1,.649.048.857.857,0,0,1,.564.789.841.841,0,0,1-.469.785c.145.281.323.544.477.82-.3,0-.607,0-.911,0-.123-.24-.243-.481-.365-.721l-.253,0c0,.241,0,.481,0,.722C656.089,421.768,655.817,421.767,655.544,421.769Z" transform="translate(-621.241 -397.959)" fill="#fff"/>
      <path id="path40" d="M105.918,431.733c.023.255.143.487.185.738h-.425C105.784,432.233,105.8,431.967,105.918,431.733Z" transform="translate(-101.444 -409.69)" fill="#010101"/>
      <path id="path42" d="M154.028,432.327a5.1,5.1,0,0,1,.606.012.22.22,0,0,1-.039.391c-.189.013-.377,0-.566,0C154.029,432.6,154.028,432.462,154.028,432.327Z" transform="translate(-147.15 -410.248)" fill="#010101"/>
      <path id="path44" d="M670.5,432.282a5.858,5.858,0,0,1,.587.011c.148.059.125.238.07.357a2.251,2.251,0,0,1-.657.043C670.5,432.556,670.5,432.419,670.5,432.282Z" transform="translate(-635.383 -410.207)" fill="#010101"/>
      <path id="path46" d="M247.7,433.306a.443.443,0,0,1,.634.26.553.553,0,0,1-.054.423.472.472,0,0,1-.649.079A.455.455,0,0,1,247.7,433.306Z" transform="translate(-235.467 -411.123)" fill="#010101"/>
      <path id="path48" d="M297.771,433.45a.452.452,0,0,1,.745.195c.071.144-.011.293-.067.427a.515.515,0,0,1-.407.162A.459.459,0,0,1,297.771,433.45Z" transform="translate(-282.9 -411.194)" fill="#010101"/>
      <path id="path50" d="M619.971,433.248a.451.451,0,1,1-.062.793A.457.457,0,0,1,619.971,433.248Z" transform="translate(-587.364 -411.077)" fill="#010101"/>
      <path id="path52" d="M755.038,451.889c.177,0,.354-.009.531,0,.011.027-.011.09,0,.117-.079,0-.111,0-.189,0,0,.181,0,.362,0,.543l-.151.007c0-.185,0-.369,0-.553h-.193C755.039,451.976,755.039,451.918,755.038,451.889Z" transform="translate(-715.294 -428.74)" fill="#fff"/>
      <path id="path54" d="M766.381,451.843c.067,0,.135,0,.2.008.045.163.076.33.122.494.038-.168.074-.336.125-.5l.188,0q0,.334,0,.669h-.127c0-.179-.006-.358,0-.536a4.654,4.654,0,0,1-.118.537l-.144,0a3.709,3.709,0,0,0-.107-.524c-.013.176-.008.351-.007.527l-.134,0C766.38,452.292,766.378,452.067,766.381,451.843Z" transform="translate(-726.014 -428.701)" fill="#fff"/>
    </g>
  </g>
</svg>
