<svg width="20" height="16" viewBox="0 0 20 16" fill="none" xmlns="http://www.w3.org/2000/svg">
<path d="M19.791 2.08769L18.9976 1.29437L11.649 8.64302C10.7304 9.5616 9.18554 9.5616 8.26696 8.64302L0.91832 1.33613L0.125 2.12944L5.59473 7.59917L0.125 13.0689L0.91832 13.8622L6.38805 8.39249L7.47364 9.47809C8.1417 10.1461 9.01853 10.5219 9.93711 10.5219C10.8557 10.5219 11.7325 10.1461 12.4006 9.47809L13.4862 8.39249L18.9559 13.8622L19.7492 13.0689L14.2795 7.59917L19.791 2.08769Z" fill="black"/>
<path d="M18.2463 15.2818H1.75366C0.793321 15.2818 0 14.4885 0 13.5282V1.75365C0 0.793318 0.793321 0 1.75366 0H18.2463C19.2067 0 20 0.793318 20 1.75365V13.5282C20 14.4885 19.2067 15.2818 18.2463 15.2818ZM1.7119 1.12735C1.37787 1.12735 1.12735 1.37787 1.12735 1.7119V13.4864C1.12735 13.8205 1.37787 14.071 1.7119 14.071H18.2046C18.5386 14.071 18.7891 13.8205 18.7891 13.4864V1.7119C18.7891 1.37787 18.5386 1.12735 18.2046 1.12735H1.7119Z" fill="black"/>
</svg>
