<svg width="44" height="45" viewBox="0 0 44 45" fill="none" xmlns="http://www.w3.org/2000/svg">
<g filter="url(#filter0_d_247_236)">
<path d="M22 37C31.3888 37 39 29.165 39 19.5C39 9.83502 31.3888 2 22 2C12.6112 2 5 9.83502 5 19.5C5 29.165 12.6112 37 22 37Z" fill="url(#paint0_linear_247_236)"/>
</g>
<path fill-rule="evenodd" clip-rule="evenodd" d="M25.2815 12.9916C25.9075 12.9828 26.5343 13.0094 27.1627 13.016L27.4192 13.022L27.4753 9.84158C27.1409 9.79815 26.7922 9.74733 26.4376 9.7279C25.7945 9.69148 25.155 9.64906 24.5014 9.6495C23.5355 9.63066 22.586 9.90115 21.775 10.4262C21.3311 10.7261 20.9531 11.1134 20.6641 11.5644C20.3751 12.0153 20.1811 12.5205 20.094 13.0491C20.0145 13.4996 19.9676 13.9553 19.9537 14.4126C19.9272 15.1246 19.929 15.8362 19.9163 16.5542L19.9115 16.8243L16.7944 16.7737L16.7325 20.325L19.8379 20.3815L19.6855 29.3103L23.4747 29.3705L23.6193 20.451L26.7136 20.5066C26.8927 19.3309 27.0701 18.1659 27.2492 16.9494L26.5562 16.9378C25.6752 16.9264 23.6618 16.8833 23.6618 16.8833C23.6618 16.8833 23.6974 15.1291 23.7346 14.3604C23.7269 14.1629 23.7632 13.9661 23.8408 13.7844C23.9185 13.6026 24.0355 13.4403 24.1836 13.3093C24.3316 13.1783 24.5069 13.0819 24.6968 13.0269C24.8867 12.972 25.0864 12.9599 25.2815 12.9916Z" fill="white"/>
<defs>
<filter id="filter0_d_247_236" x="0" y="0" width="44" height="45" filterUnits="userSpaceOnUse" color-interpolation-filters="sRGB">
<feFlood flood-opacity="0" result="BackgroundImageFix"/>
<feColorMatrix in="SourceAlpha" type="matrix" values="0 0 0 0 0 0 0 0 0 0 0 0 0 0 0 0 0 0 127 0" result="hardAlpha"/>
<feOffset dy="3"/>
<feGaussianBlur stdDeviation="2.5"/>
<feColorMatrix type="matrix" values="0 0 0 0 0 0 0 0 0 0 0 0 0 0 0 0 0 0 0.302 0"/>
<feBlend mode="normal" in2="BackgroundImageFix" result="effect1_dropShadow_247_236"/>
<feBlend mode="normal" in="SourceGraphic" in2="effect1_dropShadow_247_236" result="shape"/>
</filter>
<linearGradient id="paint0_linear_247_236" x1="22" y1="2" x2="22" y2="37" gradientUnits="userSpaceOnUse">
<stop stop-color="#667ED1"/>
<stop offset="1" stop-color="#485995"/>
</linearGradient>
</defs>
</svg>
