<svg width="32" height="33" viewBox="0 0 32 33" fill="none" xmlns="http://www.w3.org/2000/svg">
  <path d="M26.6074 27.4335L26.6055 27.4354C25.2145 28.8301 23.5616 29.9361 21.7418 30.69C19.9219 31.4438 17.9711 31.8305 16.0013 31.828L15.9987 31.828C14.0289 31.8305 12.0781 31.4437 10.2582 30.6899C8.43841 29.9361 6.78547 28.8301 5.39444 27.4354L5.39258 27.4336C3.9979 26.0425 2.89186 24.3896 2.13804 22.5698C1.38421 20.75 0.99746 18.7991 1.00002 16.8293L1.00001 16.8267C0.997501 14.8569 1.38427 12.9061 2.1381 11.0862C2.89192 9.26641 3.99794 7.61348 5.3926 6.22244L5.39443 6.2206C6.78547 4.82594 8.43841 3.71993 10.2582 2.9661C12.0781 2.21227 14.0289 1.8255 15.9987 1.82802L16.0013 1.82802C17.9711 1.82546 19.9219 2.21221 21.7418 2.96604C23.5616 3.71986 25.2145 4.8259 26.6055 6.22059L26.6074 6.22244C28.0021 7.61348 29.1081 9.26641 29.8619 11.0862C30.6157 12.9061 31.0025 14.8569 31 16.8267L31 16.8293C31.0025 18.7991 30.6158 20.75 29.862 22.5698C29.1081 24.3896 28.0021 26.0425 26.6074 27.4335ZM16 0.828203L16 0.828016L16 0.828203Z" stroke="#EE3624" stroke-width="2" stroke-linejoin="round"/>
  <path d="M16.3332 23.4947C16.3332 23.5831 16.2981 23.6679 16.2355 23.7304L16.2355 23.7304C16.173 23.7929 16.0882 23.828 15.9998 23.828C15.9114 23.828 15.8266 23.7929 15.7641 23.7304C15.7016 23.6679 15.6665 23.5831 15.6665 23.4947C15.6665 23.4063 15.7016 23.3215 15.7641 23.259C15.8266 23.1965 15.9114 23.1613 15.9998 23.1613C16.0882 23.1613 16.173 23.1965 16.2355 23.259C16.2981 23.3215 16.3332 23.4063 16.3332 23.4947Z" fill="#EE3624" stroke="#EE3624" stroke-width="2"/>
  <path d="M15.9995 10.1612V19.4945" stroke="#EE3624" stroke-width="2" stroke-linecap="round" stroke-linejoin="round"/>
  </svg>
  