<svg xmlns="http://www.w3.org/2000/svg" xmlns:xlink="http://www.w3.org/1999/xlink" width="125" height="55" viewBox="0 0 125 55">
  <defs>
    <filter id="Caminho_987" x="70" y="0" width="55" height="55" filterUnits="userSpaceOnUse">
      <feOffset dy="3" input="SourceAlpha"/>
      <feGaussianBlur stdDeviation="2.5" result="blur"/>
      <feFlood flood-opacity="0.302"/>
      <feComposite operator="in" in2="blur"/>
      <feComposite in="SourceGraphic"/>
    </filter>
    <linearGradient id="linear-gradient" x1="0.5" x2="0.5" y2="1" gradientUnits="objectBoundingBox">
      <stop offset="0" stop-color="#00acff"/>
      <stop offset="1" stop-color="#0073ff"/>
    </linearGradient>
    <filter id="Uni達o_5" x="35" y="0" width="55.388" height="55" filterUnits="userSpaceOnUse">
      <feOffset dy="3" input="SourceAlpha"/>
      <feGaussianBlur stdDeviation="2.5" result="blur-2"/>
      <feFlood flood-opacity="0.302"/>
      <feComposite operator="in" in2="blur-2"/>
      <feComposite in="SourceGraphic"/>
    </filter>
    <linearGradient id="linear-gradient-2" x1="0.5" x2="0.5" y2="1" gradientUnits="objectBoundingBox">
      <stop offset="0" stop-color="#5fd06b"/>
      <stop offset="1" stop-color="#2bb641"/>
    </linearGradient>
    <filter id="WhatsApp_1_" x="0" y="0" width="55" height="55" filterUnits="userSpaceOnUse">
      <feOffset dy="3" input="SourceAlpha"/>
      <feGaussianBlur stdDeviation="2.5" result="blur-3"/>
      <feFlood flood-opacity="0.302"/>
      <feComposite operator="in" in2="blur-3"/>
      <feComposite in="SourceGraphic"/>
    </filter>
  </defs>
  <g id="Grupo_1252" data-name="Grupo 1252" transform="translate(-116.5 -328.564)">
    <g id="ico-Telegram" transform="translate(194 333.064)">
      <g transform="matrix(1, 0, 0, 1, -77.5, -4.5)" filter="url(#Caminho_987)">
        <path id="Caminho_987-2" data-name="Caminho 987" d="M20,0A20,20,0,1,1,0,20,20,20,0,0,1,20,0Z" transform="translate(77.5 4.5)" fill="#139bd0"/>
      </g>
      <path id="Caminho_971" data-name="Caminho 971" d="M38.1,44.247c-.77.75-1.534,1.488-2.29,2.232a1.194,1.194,0,0,1-.941.384.479.479,0,0,1-.484-.373c-.58-1.8-1.168-3.593-1.744-5.393a.42.42,0,0,0-.316-.314q-2.048-.625-4.088-1.276a2.325,2.325,0,0,1-.6-.277.428.428,0,0,1-.07-.72,2.767,2.767,0,0,1,.8-.5c1.669-.661,3.347-1.3,5.022-1.947l12.754-4.923a.91.91,0,0,1,1.346,1,15.062,15.062,0,0,1-.316,1.661Q45.781,40.343,44.39,46.88c-.22,1.035-.947,1.3-1.8.677Q40.452,45.98,38.315,44.4C38.247,44.349,38.176,44.3,38.1,44.247ZM34.9,45.57l.048-.013a1,1,0,0,0,.025-.121c.092-.988.188-1.976.268-2.965a.726.726,0,0,1,.259-.525q1.972-1.763,3.931-3.539,2.174-1.961,4.343-3.925a1.221,1.221,0,0,0,.188-.331,1.226,1.226,0,0,0-.405-.037,1.769,1.769,0,0,0-.478.236q-4.8,3.022-9.6,6.044a.288.288,0,0,0-.146.409c.236.678.451,1.362.673,2.044Z" transform="translate(-17.443 -19.467)" fill="#fff" fill-rule="evenodd"/>
    </g>
    <g id="ico-Messenger" transform="translate(159 333.064)">
      <g transform="matrix(1, 0, 0, 1, -42.5, -4.5)" filter="url(#Uni達o_5)">
        <path id="Uni達o_5-2" data-name="Uni達o 5" d="M7.228,38.508v-4.24a2.106,2.106,0,0,0-.754-1.693l-.013-.011-.012-.011A17.9,17.9,0,0,1,5.937,5.479,20.915,20.915,0,0,1,20.228,0,20.753,20.753,0,0,1,34.489,5.515a17.921,17.921,0,0,1-.038,26.615A20.921,20.921,0,0,1,20.16,37.609a20.4,20.4,0,0,1-4.7-.508l-.021-.005-.021-.007a1.626,1.626,0,0,0-.462-.066,2.148,2.148,0,0,0-1.027.28L9.416,39.8a1.5,1.5,0,0,1-.733.2A1.476,1.476,0,0,1,7.228,38.508Z" transform="translate(42.5 4.5)" fill="url(#linear-gradient)"/>
      </g>
      <path id="Caminho_15" data-name="Caminho 15" d="M30.075,15.914l-7.158,8.062a1.167,1.167,0,0,1-1.529.139l-2.293-3.632c-1.042-.834-1.012-1.264-2.263-.847L11.38,22.864A1.119,1.119,0,0,1,10.2,21.057l7.3-8.826a1.117,1.117,0,0,1,1.6-.139l2.96,3.127c1.042.973,1.361,1.112,2.682.695l4.157-1.807A1.119,1.119,0,0,1,30.075,15.914Z" transform="translate(-0.683 0.979)" fill="#fff"/>
    </g>
    <g id="ico-WhatsApp" transform="translate(124 333.064)">
      <g transform="matrix(1, 0, 0, 1, -7.5, -4.5)" filter="url(#WhatsApp_1_)">
        <path id="WhatsApp_1_2" data-name="WhatsApp_1_" d="M19.994,0A19.986,19.986,0,0,0,3.808,31.722L1.316,39.153,9,36.7a20,20,0,1,0,11-36.7h-.012Z" transform="translate(7.5 4.5)" fill-rule="evenodd" fill="url(#linear-gradient-2)"/>
      </g>
      <path id="WhatsApp_1_3" data-name="WhatsApp_1_" d="M10.623,6.623c-.346-.832-.609-.863-1.134-.885-.179-.01-.378-.021-.6-.021a2.587,2.587,0,0,0-1.827.642,5.727,5.727,0,0,0-1.827,4.36,10.255,10.255,0,0,0,2.12,5.4C7.621,16.47,11,21.82,16.25,24c4.1,1.706,5.322,1.548,6.257,1.348,1.365-.295,3.076-1.306,3.506-2.527a4.46,4.46,0,0,0,.3-2.485c-.126-.221-.472-.347-1-.611s-3.076-1.527-3.559-1.7a1,1,0,0,0-1.28.39,21.975,21.975,0,0,1-1.4,1.853,1.126,1.126,0,0,1-1.26.2,13.153,13.153,0,0,1-4.189-2.591,15.923,15.923,0,0,1-2.9-3.612c-.3-.526-.032-.832.21-1.116.263-.327.514-.558.777-.864a3.137,3.137,0,0,0,.577-.821,1.072,1.072,0,0,0-.073-.969C12.1,10.235,11.054,7.665,10.623,6.623Z" transform="translate(4.536 4.808)" fill="#fff" fill-rule="evenodd"/>
    </g>
  </g>
</svg>
