<svg width="48" height="48" viewBox="0 0 48 48" fill="none" xmlns="http://www.w3.org/2000/svg">
<rect width="48" height="48" rx="10" fill="#4CC75C"/>
<path d="M23.8956 8H23.896H23.9056C23.9056 8 23.9056 8 23.9057 8C26.3837 8.00022 28.8275 8.57971 31.0418 9.69224C33.2561 10.8048 35.1797 12.4195 36.6591 14.4077C38.1384 16.3958 39.1325 18.7022 39.562 21.1428C39.9916 23.5834 39.8446 26.0906 39.1329 28.4643C38.4212 30.8381 37.1644 33.0125 35.463 34.8142C33.7615 36.6159 31.6624 37.9949 29.3332 38.8411C27.0041 39.6873 24.5094 39.9773 22.0482 39.688C19.587 39.3987 17.2276 38.5381 15.1581 37.1748L14.7589 36.9118L14.3036 37.0574L9.68765 38.5327L11.1662 34.1249L11.33 33.6366L11.0276 33.2197C9.30725 30.848 8.27612 28.0469 8.04817 25.1259C7.82022 22.2049 8.40434 19.2777 9.73595 16.6679C11.0676 14.0581 13.0948 11.8673 15.5937 10.3376C18.0926 8.80791 20.9657 7.99891 23.8956 8Z" fill="url(#paint0_linear_1080_712)" stroke="white" stroke-width="2"/>
<path fill-rule="evenodd" clip-rule="evenodd" d="M19.8372 16.7081C19.5468 16.0101 19.3251 15.983 18.8846 15.9656C18.7346 15.9569 18.5671 15.9482 18.3822 15.9482C17.82 15.9225 17.2697 16.1158 16.847 16.4874C16.3453 16.953 15.9488 17.5203 15.684 18.1515C15.4192 18.7827 15.2923 19.4632 15.3118 20.1474C15.4563 21.7995 16.0751 23.3747 17.0938 24.6834C17.3145 24.9738 20.1547 29.4663 24.5649 31.2968C28.0138 32.7294 29.037 32.5958 29.8221 32.4284C30.4399 32.3156 31.0249 32.0666 31.5346 31.6996C32.0442 31.3326 32.4658 30.8567 32.7687 30.3065C33.0516 29.6496 33.1403 28.9253 33.0242 28.2195C32.9187 28.0337 32.6273 27.9291 32.1859 27.7065C31.7445 27.4838 29.6014 26.4278 29.1958 26.2864C29.0079 26.1976 28.7937 26.1819 28.5949 26.2424C28.3961 26.3029 28.2269 26.4352 28.1203 26.6136C27.757 27.1528 27.3653 27.6723 26.9471 28.1702C26.8083 28.302 26.6328 28.3887 26.4438 28.4188C26.2547 28.4488 26.061 28.4209 25.8881 28.3386C24.5885 27.8415 23.3943 27.1036 22.3685 26.1635C21.4135 25.2766 20.5933 24.2549 19.9339 23.1307C19.6784 22.6884 19.9078 22.4319 20.1101 22.1937C20.3308 21.9198 20.5419 21.7252 20.7626 21.4687C20.9598 21.2664 21.1232 21.0337 21.2466 20.7795C21.301 20.6486 21.3238 20.5068 21.313 20.3655C21.3023 20.2242 21.2583 20.0874 21.1846 19.9664C21.083 19.7437 20.1982 17.586 19.8372 16.7081Z" fill="white"/>
<defs>
<linearGradient id="paint0_linear_1080_712" x1="23.9013" y1="7" x2="23.9013" y2="40.7968" gradientUnits="userSpaceOnUse">
<stop stop-color="#5FD06B"/>
<stop offset="1" stop-color="#2BB641"/>
</linearGradient>
</defs>
</svg>
