<svg width="22" height="22" viewBox="0 0 22 22" fill="none" xmlns="http://www.w3.org/2000/svg">
<path fill-rule="evenodd" clip-rule="evenodd" d="M4.91526 1.83357H9.29234e-05V0H6.41676L7.33342 0.916784V7.33427H5.50009V3.66714C3.85691 4.90018 2.67549 6.64951 2.14536 8.63445C1.61523 10.6194 1.76712 12.7249 2.57667 14.6132C3.38622 16.5015 4.8065 18.0631 6.60964 19.0474C8.41279 20.0318 10.4943 20.3818 12.5202 20.0415C14.5461 19.7011 16.3989 18.69 17.7815 17.1704C19.164 15.6508 19.9961 13.7108 20.1443 11.6616C20.2925 9.61242 19.7481 7.57284 18.5986 5.8701C17.449 4.16736 15.7609 2.90016 13.8051 2.27179L14.3587 0.522567C16.7322 1.28373 18.7769 2.82851 20.1577 4.90384C21.5385 6.97917 22.1737 9.46199 21.9592 11.9456C21.7446 14.4291 20.6931 16.7662 18.9768 18.5739C17.2605 20.3816 14.9812 21.5528 12.5124 21.8955C10.0435 22.2382 7.53151 21.7322 5.38781 20.4604C3.24412 19.1886 1.59586 17.2263 0.713056 14.8951C-0.169744 12.5638 -0.23474 10.0019 0.528714 7.62885C1.29217 5.25584 2.83881 3.2125 4.91526 1.83357Z" fill="white"/>
</svg>
