<svg width="8" height="16" viewBox="0 0 8 16" fill="none" xmlns="http://www.w3.org/2000/svg">
<path d="M7.9973 8.01255C7.99782 8.27911 7.90487 8.53744 7.73458 8.7427L2.02324 15.5879C1.82936 15.8208 1.55074 15.9674 1.2487 15.9952C0.946653 16.023 0.645916 15.9298 0.412646 15.7362C0.179376 15.5425 0.0326816 15.2643 0.00483348 14.9626C-0.0230147 14.6609 0.0702644 14.3605 0.264151 14.1276L5.38151 8.01255L0.446914 1.89754C0.352031 1.78084 0.281174 1.64657 0.238417 1.50243C0.19566 1.35829 0.181845 1.20714 0.197768 1.05766C0.21369 0.908171 0.259034 0.763301 0.331196 0.631375C0.403357 0.499451 0.500912 0.38307 0.618254 0.288922C0.735703 0.184442 0.873491 0.105314 1.02298 0.0564937C1.17248 0.00767321 1.33045 -0.00978476 1.48702 0.0052089C1.64358 0.0202035 1.79535 0.0673274 1.93283 0.143632C2.07031 0.219936 2.19053 0.323777 2.28596 0.448645L7.80311 7.29381C7.94648 7.50496 8.01486 7.75802 7.9973 8.01255Z" fill="#A4A4A4"/>
</svg>
