<svg width="8" height="16" viewBox="0 0 8 16" fill="none" xmlns="http://www.w3.org/2000/svg">
<path d="M0.00270284 8.01255C0.00218167 8.27911 0.0951335 8.53745 0.265424 8.7427L5.97676 15.5879C6.17064 15.8208 6.44926 15.9674 6.7513 15.9952C7.05335 16.023 7.35408 15.9298 7.58735 15.7362C7.82062 15.5425 7.96732 15.2643 7.99517 14.9626C8.02301 14.6609 7.92974 14.3605 7.73585 14.1276L2.61849 8.01255L7.55308 1.89754C7.64797 1.78084 7.71882 1.64657 7.76158 1.50243C7.80434 1.35829 7.81815 1.20714 7.80223 1.05766C7.78631 0.908171 7.74096 0.763301 7.6688 0.631375C7.59664 0.499451 7.49909 0.38307 7.38175 0.288922C7.2643 0.184443 7.12651 0.105314 6.97702 0.0564938C6.82752 0.00767331 6.66955 -0.00978464 6.51298 0.00520903C6.35642 0.0202037 6.20465 0.0673276 6.06717 0.143632C5.92969 0.219936 5.80947 0.323777 5.71404 0.448645L0.196888 7.29381C0.0535155 7.50496 -0.0148548 7.75802 0.00270284 8.01255Z" fill="black"/>
</svg>
