<svg xmlns="http://www.w3.org/2000/svg" xmlns:xlink="http://www.w3.org/1999/xlink" width="39.246" height="40.061" viewBox="0 0 39.246 40.061"><defs><style>.a{opacity:0.9;}.b{fill:url(#a);}.c{fill:#fff;}.d{fill:#0a2847;}.e{filter:url(#b);}</style><linearGradient id="a" x1="0.5" x2="0.5" y2="0.643" gradientUnits="objectBoundingBox"><stop offset="0" stop-color="#55779b"/><stop offset="1" stop-color="#004691"/></linearGradient><filter id="b" x="10.526" y="3.143" width="28.72" height="36.918" filterUnits="userSpaceOnUse"><feOffset dx="-2" dy="1" input="SourceAlpha"/><feGaussianBlur stdDeviation="3" result="c"/><feFlood flood-opacity="0.522"/><feComposite operator="in" in2="c"/><feComposite in="SourceGraphic"/></filter></defs><g transform="translate(-663.477 -447)"><g class="a" transform="translate(663.477 447)"><path class="b" d="M5.465,10.2a.619.619,0,0,0,.153.415.8.8,0,0,1,.153.313c.019.179.115.224.262.256a.417.417,0,0,1,.345.307c.045.166.134.211.3.147.326-.121.652-.256.978-.383-.006.038-.019.1-.026.153a5.02,5.02,0,0,0-.058.684.359.359,0,0,0,.371.383c.422,0,.837-.006,1.259-.019a.7.7,0,0,0,.524-.243c.019-.019.045-.051.064-.045.249.045.383-.128.537-.275a.851.851,0,0,1,.626-.275,3.15,3.15,0,0,0,.511-.07.449.449,0,0,1,.045.07.345.345,0,0,1,.019.428.787.787,0,0,0-.032.332,1.125,1.125,0,0,1-.013.256.477.477,0,0,0,.006.351,2.154,2.154,0,0,0,.614.761.552.552,0,0,0,.473.121.349.349,0,0,1,.185.058c.077.045.134.134.211.153a.49.49,0,0,1,.262.166.391.391,0,0,0,.371.166c.115-.019.166.013.2.128.07.243.217.313.467.256a.384.384,0,0,1,.236.032c.16.07.307.166.46.236a.247.247,0,0,1,.166.211,3.314,3.314,0,0,1,.032.435c-.006.2.019.4-.153.562a.145.145,0,0,0-.038.1.629.629,0,0,0,.185.441,1.361,1.361,0,0,0,.78.332c.128.013.262,0,.4.006.173.006.23.089.185.249a.932.932,0,0,1-.045.121.42.42,0,0,0,.288.671c.07.025.173.1.173.153.013.268.128.556-.083.805a.185.185,0,0,0-.058.1.427.427,0,0,0-.013.217.134.134,0,0,1-.013.166.774.774,0,0,0-.173.422c-.019.339-.064.677-.089,1.016a4.439,4.439,0,0,0-.013.5.3.3,0,0,0,.224.294,3,3,0,0,0,.582.064.822.822,0,0,1,.812.971,1.854,1.854,0,0,0-.013.422c.006.179.064.217.243.185.083-.013.166-.038.249-.045a.279.279,0,0,1,.326.32,3.1,3.1,0,0,1-.147.684c-.083.243-.1.236.109.384a.593.593,0,0,1,.262.6c-.019.166-.064.326-.07.492a.481.481,0,0,1-.371.454,3.442,3.442,0,0,0-1.3.837c-.236.217-.441.46-.658.7a.245.245,0,0,0-.032.364.878.878,0,0,0,.083.128c.153.2.352.364.288.665-.026.121.064.179.185.141a.416.416,0,0,0,.141-.07.169.169,0,0,1,.249.045,4.642,4.642,0,0,0,.844.818.626.626,0,0,1,.275.409c.019.147.109.16.224.147a3.326,3.326,0,0,0,.326-.07c.07.147.179.166.281.038a.481.481,0,0,0,.109-.192,1.431,1.431,0,0,1,.422-.729c.211-.2.4-.422.6-.645.013.013.038.026.057.045a.271.271,0,0,0,.467-.038,3.224,3.224,0,0,0,.2-.358,1.33,1.33,0,0,1,.441-.518,1.435,1.435,0,0,0,.582-1.125c.032-.23.045-.467.07-.7.006-.089.026-.179.038-.262.045-.288.288-.511.249-.831.064.032.109.064.16.089a.136.136,0,0,0,.2-.077.735.735,0,0,1,.518-.4,1.4,1.4,0,0,0,.46-.249.793.793,0,0,1,.562-.249,1.1,1.1,0,0,0,.908-.339.509.509,0,0,1,.7-.115.893.893,0,0,0,.562.083,2.426,2.426,0,0,0,1.029-.441,1.654,1.654,0,0,0,.588-.652.735.735,0,0,1,.409-.409.5.5,0,0,0,.172-.1c.249-.3.5-.607.741-.92.121-.16.064-.352.077-.531a.506.506,0,0,1,.172-.441,1.349,1.349,0,0,0,.486-.69,1.623,1.623,0,0,0,.064-.352c-.006-.019.038-.032.045-.051a1.5,1.5,0,0,0,.057-.243c.045-.23.089-.454.128-.684.045-.275.083-.55.121-.824.038-.256.051-.511.1-.767a.478.478,0,0,1,.32-.4,1.751,1.751,0,0,0,1.2-1.2.631.631,0,0,1,.55-.486,1.138,1.138,0,0,0,.818-.467,1.6,1.6,0,0,1,.147-.249c.166-.179.345-.345.518-.518a1.415,1.415,0,0,0,.422-1.438,5.814,5.814,0,0,1-.109-.582,4.033,4.033,0,0,0-.058-.486.844.844,0,0,0-.684-.671c-.109-.019-.211-.051-.32-.064a.914.914,0,0,1-.582-.32c-.256-.326-.5-.665-.741-1-.153-.217-.268-.454-.582-.479-.038,0-.083-.058-.109-.1a.7.7,0,0,0-.569-.364,1.059,1.059,0,0,0-.4.013,1.411,1.411,0,0,1-.984-.109.9.9,0,0,1-.345-.224.653.653,0,0,0-.409-.2,1.638,1.638,0,0,0-.837.141c-.134.051-.275.1-.428.153.07-.275.134-.524.2-.773.032-.121.019-.185-.109-.236a4.585,4.585,0,0,1-.55-.3c-.089-.058-.16-.141-.256-.2a3.334,3.334,0,0,0-1.1-.4,1.424,1.424,0,0,0-1.2.262c-.179.141-.358.275-.53.4a.939.939,0,0,0-.243-.339.755.755,0,0,0,.2-.051,1.775,1.775,0,0,0,.364-.185,5.575,5.575,0,0,0,.556-.473c.1-.1.077-.185-.058-.249A2.666,2.666,0,0,0,24.025,5a.948.948,0,0,0-.5.166c-.153.1-.288.211-.447.3a.592.592,0,0,1-.454.1,2.072,2.072,0,0,1,.16-.339,3.247,3.247,0,0,1,1.074-.946c.121-.064.224-.147.2-.307a.241.241,0,0,1,.115-.256c.07-.051.134-.109.224-.185a1.182,1.182,0,0,0-.2-.1,3.7,3.7,0,0,1-.377-.121.337.337,0,0,1-.173-.192c-.038-.147-.026-.307-.064-.46-.077-.352-.173-.7-.256-1.023a.233.233,0,0,0-.352.058c-.089.1-.192.179-.275.281a.263.263,0,0,0-.058.192c.026.192.026.224-.153.268a.427.427,0,0,0-.307.281.283.283,0,0,1-.217.179,2.271,2.271,0,0,1-.856.013.7.7,0,0,1-.543-.281.2.2,0,0,0-.134-.083c-.185-.032-.371-.051-.556-.083a.25.25,0,0,0-.288.134.682.682,0,0,1-.805.32.989.989,0,0,0-.69.019,4.79,4.79,0,0,1-.665.16.484.484,0,0,1-.447-.115,1.505,1.505,0,0,1-.479-.952,1.239,1.239,0,0,1,.243-.831c.173-.262.166-.294-.07-.479a.3.3,0,0,1-.128-.332c.013-.058.051-.115.038-.16a.274.274,0,0,0-.1-.185c-.147-.077-.262-.032-.377.128-.16.211-.3.447-.588.492-.2.032-.415.051-.626.07-.051.006-.1-.013-.153-.006a.4.4,0,0,0-.32.236c-.134.224-.192.23-.383.051-.019-.013-.032-.038-.051-.045-.173-.089-.339-.179-.511-.249a.192.192,0,0,0-.173.07.62.62,0,0,0-.07.53.752.752,0,0,0,.428.543.261.261,0,0,1,0,.479c-.064.038-.141.058-.2.1-.435.249-.869.5-1.3.754a.258.258,0,0,1-.262.019.436.436,0,0,0-.479.032.1.1,0,0,1-.1,0,.828.828,0,0,1-.4-.55.5.5,0,0,0-.39-.447.83.83,0,0,0-.467.051,1.43,1.43,0,0,1-.658.045,1.766,1.766,0,0,0-.486,0,.234.234,0,0,0-.026.454.646.646,0,0,1,.2.1.278.278,0,0,1,.1.179c0,.045-.07.109-.121.128a.809.809,0,0,1-.249.032c-.3.013-.441.2-.32.473A2.147,2.147,0,0,0,8.8,4.19a.644.644,0,0,1,.045.85.642.642,0,0,0-.16.562.208.208,0,0,1-.032.147,1.337,1.337,0,0,0-.147.614.486.486,0,0,1-.038.16,1.74,1.74,0,0,0-.1.345c-.019.281-.141.383-.4.3a.819.819,0,0,0-.69.077.709.709,0,0,1-.262.051A2.738,2.738,0,0,1,6.7,7.264a.259.259,0,0,1-.249.217.21.21,0,0,0-.083.045A1.806,1.806,0,0,0,5.7,8.7c-.032.121-.038.236-.185.307a.68.68,0,0,0-.243.243.458.458,0,0,0,.026.633A.308.308,0,0,1,5.465,10.2Z" transform="translate(-5.159 0.001)"/></g><g class="e" transform="matrix(1, 0, 0, 1, 663.48, 447)"><path class="c" d="M0,0H10.72V18.918H0Z" transform="translate(21.53 11.14)"/></g><path class="d" d="M17.787,0H8.709A1.379,1.379,0,0,0,7.334,1.375V18.986a1.38,1.38,0,0,0,1.375,1.376h9.078a1.379,1.379,0,0,0,1.375-1.375V1.375A1.379,1.379,0,0,0,17.787,0ZM11.8.991h2.9a.167.167,0,0,1,0,.333H11.8a.167.167,0,0,1,0-.333Zm1.452,18.683a.688.688,0,1,1,.688-.688A.688.688,0,0,1,13.248,19.675Zm4.957-1.858H8.291V2.181h9.915Z" transform="translate(677.039 457.27)"/></g></svg>