<svg xmlns="http://www.w3.org/2000/svg" xmlns:xlink="http://www.w3.org/1999/xlink" width="55" height="55" viewBox="0 0 55 55">
  <defs>
    <filter id="ellipse" x="0" y="0" width="55" height="55" filterUnits="userSpaceOnUse">
      <feOffset dy="5" input="SourceAlpha"/>
      <feGaussianBlur stdDeviation="2.5" result="blur"/>
      <feFlood flood-opacity="0.302"/>
      <feComposite operator="in" in2="blur"/>
      <feComposite in="SourceGraphic"/>
    </filter>
  </defs>
  <g id="ico-Telegram" transform="translate(7.5 2.5)">
    <g transform="matrix(1, 0, 0, 1, -7.5, -2.5)" filter="url(#ellipse)">
      <circle id="ellipse-2" data-name="ellipse" cx="20" cy="20" r="20" transform="translate(7.5 2.5)" fill="#08c"/>
    </g>
    <path id="logo" d="M89.244,138.214c-.961.929-1.906,1.851-2.851,2.772a1.5,1.5,0,0,1-1.171.476.6.6,0,0,1-.6-.461c-.719-2.234-1.453-4.467-2.171-6.709a.524.524,0,0,0-.39-.391c-1.695-.515-3.4-1.046-5.084-1.585a2.963,2.963,0,0,1-.75-.344.533.533,0,0,1-.086-.9,3.355,3.355,0,0,1,.992-.617c2.077-.82,4.163-1.617,6.248-2.421q7.931-3.058,15.862-6.123a1.13,1.13,0,0,1,1.671,1.25,20.985,20.985,0,0,1-.39,2.07q-1.722,8.13-3.452,16.268c-.273,1.289-1.179,1.624-2.234.843q-2.659-1.956-5.318-3.928C89.431,138.347,89.346,138.284,89.244,138.214Zm-3.983,1.648c.023-.008.039-.008.062-.016.008-.055.023-.1.031-.148.117-1.226.234-2.46.336-3.686a.929.929,0,0,1,.32-.656c1.632-1.46,3.264-2.936,4.889-4.4q2.706-2.437,5.4-4.881a1.632,1.632,0,0,0,.234-.414,1.643,1.643,0,0,0-.508-.047,2.224,2.224,0,0,0-.594.3q-5.963,3.76-11.933,7.521a.354.354,0,0,0-.18.508c.3.843.562,1.695.836,2.546C84.527,137.6,84.894,138.737,85.261,139.862Z" transform="translate(-70.001 -112.278)" fill="#fff"/>
  </g>
</svg>
