<svg xmlns="http://www.w3.org/2000/svg" xmlns:xlink="http://www.w3.org/1999/xlink" width="54.748" height="55" viewBox="0 0 54.748 55">
  <defs>
    <filter id="Elipse_2" x="0" y="0" width="54.748" height="55" filterUnits="userSpaceOnUse">
      <feOffset dy="5" input="SourceAlpha"/>
      <feGaussianBlur stdDeviation="2.5" result="blur"/>
      <feFlood flood-opacity="0.302"/>
      <feComposite operator="in" in2="blur"/>
      <feComposite in="SourceGraphic"/>
    </filter>
  </defs>
  <g id="ico-Twitter" transform="translate(7.374 2.5)">
    <g id="iconfinder_circle-facebook__317752" transform="translate(0.126)">
      <g transform="matrix(1, 0, 0, 1, -7.5, -2.5)" filter="url(#Elipse_2)">
        <ellipse id="Elipse_2-2" data-name="Elipse 2" cx="19.874" cy="20" rx="19.874" ry="20" transform="translate(7.5 2.5)" fill="#1da1f2"/>
      </g>
    </g>
    <g id="iconfinder_25_social_2609558" transform="matrix(0.798, -0.602, 0.602, 0.798, 3.563, 20.369)">
      <path id="Caminho_940" data-name="Caminho 940" d="M6.59,13.678a4.428,4.428,0,0,1-2.026-4.7,4.316,4.316,0,0,0,1.671.894c.013.007.033,0,.068,0A4.407,4.407,0,0,1,4.835,6.691,4.3,4.3,0,0,1,5.45,4.343,4.376,4.376,0,0,0,6.88,5.784a4.455,4.455,0,0,1-.237-3.225,4.366,4.366,0,0,1,2-2.533,12.6,12.6,0,0,0,5.569,8.535c.067-.163.117-.309.184-.454a4.294,4.294,0,0,1,2-2.178,4.235,4.235,0,0,1,3.587-.23A4.316,4.316,0,0,1,22.72,8.694a.226.226,0,0,0,.17.177,8.967,8.967,0,0,0,2.715.432h.068l.026.015a4.532,4.532,0,0,1-2.833,1.136,8.354,8.354,0,0,0,2.455.656.04.04,0,0,1,0,.028c-.255.107-.512.22-.769.317a8.736,8.736,0,0,1-2.151.515.152.152,0,0,0-.139.081,12.149,12.149,0,0,1-1.053,1.657,13.117,13.117,0,0,1-2.934,2.833,12.736,12.736,0,0,1-3.8,1.817,11.827,11.827,0,0,1-6.935-.1,14.1,14.1,0,0,1-2.272-.975A12.478,12.478,0,0,1,.094,12.115C.076,12.087.067,12.055.037,12a8.911,8.911,0,0,0,4.12,1.682,8.382,8.382,0,0,0,2.434,0Z" transform="translate(0 0)" fill="#fff" fill-rule="evenodd"/>
    </g>
  </g>
</svg>
