<svg xmlns="http://www.w3.org/2000/svg" width="24" height="24" viewBox="0 0 24 24">
  <g id="ico_esporte" transform="translate(-292 -35)">
    <path id="Caminho_990" data-name="Caminho 990" d="M12,0A12,12,0,1,1,0,12,12,12,0,0,1,12,0Z" transform="translate(292 35)" fill="#e20613"/>
    <g id="Grupo_17" data-name="Grupo 17" transform="translate(296.889 39.892)">
      <path id="Caminho_8" data-name="Caminho 8" d="M259.225-1022.879a2.271,2.271,0,0,0-.843.35c-.1.07-.36.321-1.175,1.134-.576.573-1.041,1.044-1.035,1.045s.727-.24,1.6-.538,1.592-.541,1.594-.54c.013.017.721,2.217.716,2.222s-.993.343-2.2.754-2.188.751-2.187.758c.006.033.563,1.667.57,1.674s.488-.153,1.077-.349,1.067-.36,1.063-.363a1.143,1.143,0,0,1,.19-.067,5.331,5.331,0,0,1,.92-.267,4.163,4.163,0,0,1,.233.807,1.8,1.8,0,0,1-.15,1.057,2.079,2.079,0,0,1-.57.663,3.754,3.754,0,0,1-1.213.518c-.42.143-.766.261-.768.264s.588,1.737.6,1.737,2.1-.707,4.046-1.367c.2-.067.363-.12.366-.117s.337,1.014.35,1.077a1.445,1.445,0,0,1-.194,1.034,1.553,1.553,0,0,1-.6.531c-.039.017-.9.317-1.918.666s-1.851.636-1.854.637a4.611,4.611,0,0,0,.56.519,1.95,1.95,0,0,0,1.143.354,1.91,1.91,0,0,0,.9-.2c.31-.151.351-.187,1.27-1.1a8.239,8.239,0,0,0,1.124-1.191,1.573,1.573,0,0,0,.208-1.044c-.017-.091-.236-.756-.736-2.228-.393-1.155-.727-2.158-.743-2.228a2.134,2.134,0,0,1-.056-.635,2.17,2.17,0,0,1,.253-1.007,2.448,2.448,0,0,1,.857-.968,2.018,2.018,0,0,1,.6-.274l.067-.01.836,2.434c.46,1.337.85,2.488.867,2.557a2.7,2.7,0,0,1,0,1.247.654.654,0,0,0-.024.117c.011.011,1.241-1.243,1.311-1.338a1.939,1.939,0,0,0,.4-1.205,2.02,2.02,0,0,0-.546-1.408c-.067-.074-.781-.793-1.587-1.6l-1.467-1.46-.081.029c-.526.184-2.368.813-2.379.813s-.788-2.226-.773-2.241.213-.08.456-.164a2.259,2.259,0,0,1,.855-.194h.159l-.25-.249a2.081,2.081,0,0,0-.624-.474,2.3,2.3,0,0,0-.531-.169A2.821,2.821,0,0,0,259.225-1022.879Z" transform="translate(-252.464 1022.9)" fill="#fff"/>
      <path id="Caminho_12" data-name="Caminho 12" d="M29.792-642.789a2.138,2.138,0,0,0-.44.594,2.054,2.054,0,0,0,.053,1.862c.13.241.239.361,1.148,1.267.48.478.868.858.864.843-.114-.323-1.283-3.768-1.31-3.863a2.6,2.6,0,0,1-.1-.7c0-.117,0-.211,0-.211S29.906-642.9,29.792-642.789Z" transform="translate(-29.154 648.426)" fill="#fff"/>
    </g>
  </g>
</svg>
