<svg xmlns="http://www.w3.org/2000/svg" width="24" height="24" viewBox="0 0 24 24">
  <g id="ico_youtube" transform="translate(-290 -143)">
    <g id="Grupo_19" data-name="Grupo 19" transform="translate(290 143)">
      <path id="Caminho_27" data-name="Caminho 27" d="M12,0A12,12,0,1,1,0,12,12,12,0,0,1,12,0Z" fill="#ce1312"/>
    </g>
    <g id="_x34__stroke" transform="translate(294.012 147.032)">
      <g id="Youtube_1_">
        <rect id="Retângulo_3" data-name="Retângulo 3" width="15.937" height="15.937" transform="translate(0.04)" fill="none"/>
        <path id="Youtube" d="M15.816,21.108a3.5,3.5,0,0,0-.635-1.6,2.273,2.273,0,0,0-1.6-.681c-2.236-.163-5.589-.163-5.589-.163H7.985s-3.354,0-5.589.163a2.274,2.274,0,0,0-1.6.681,3.5,3.5,0,0,0-.635,1.6,24.511,24.511,0,0,0-.16,2.6v1.221a24.5,24.5,0,0,0,.16,2.6,3.5,3.5,0,0,0,.635,1.6,2.7,2.7,0,0,0,1.762.688c1.278.124,5.432.162,5.432.162s3.357,0,5.593-.168a2.277,2.277,0,0,0,1.6-.682,3.5,3.5,0,0,0,.635-1.6,24.5,24.5,0,0,0,.16-2.6V23.712A24.511,24.511,0,0,0,15.816,21.108Zm-9.478,5.3V21.891l4.317,2.268Z" transform="translate(0 -16.377)" fill="#fff" fill-rule="evenodd"/>
      </g>
    </g>
  </g>
</svg>
