<svg xmlns="http://www.w3.org/2000/svg" width="24" height="24" viewBox="0 0 24 24">
  <g id="ico_cartoon" transform="translate(-292 -88)">
    <g id="Grupo_19" data-name="Grupo 19" transform="translate(292 88)">
      <path id="Caminho_27" data-name="Caminho 27" d="M12,0A12,12,0,1,1,0,12,12,12,0,0,1,12,0Z" fill="#010101"/>
      <g id="Cartoon_Network_logo" transform="translate(4.105 8.054)">
        <path id="path1984" d="M392.98,28.64h8.1q0,3.945,0,7.889h-8.1Q392.981,32.585,392.98,28.64Z" transform="translate(-385.288 -28.64)" fill="#fff"/>
        <path id="path6" d="M28.248,28.713h7.9q0,3.945,0,7.889h-7.9Q28.249,32.658,28.248,28.713Z" transform="translate(-28.248 -28.711)" fill="#010101"/>
        <path id="path8" d="M60.7,48.376a3.525,3.525,0,0,1,3.9,1.675c-.555.312-1.106.632-1.66.946-.1.057-.2.11-.3.172a1.27,1.27,0,0,0-1.295-.625,1.267,1.267,0,1,0,.867,2.324,1.32,1.32,0,0,0,.43-.447c.372.223.752.431,1.127.648.277.156.551.318.83.472a3.539,3.539,0,0,1-2.16,1.657c-.112.036-.23.048-.344.076a3.8,3.8,0,0,1-.793.031,3.52,3.52,0,0,1-.607-6.931Z" transform="translate(-57.375 -47.847)" fill="#fff"/>
        <path id="path10" d="M418.9,54.744c.752,0,1.5,0,2.256,0,.759.935,1.5,1.881,2.26,2.818,0-.939,0-1.878,0-2.818q1.127,0,2.255,0,0,3.383,0,6.766c-.753,0-1.506,0-2.259,0-.736-.922-1.477-1.841-2.212-2.764-.014-.017-.029-.032-.045-.048,0,.937,0,1.874,0,2.811q-1.129,0-2.259,0Q418.9,58.126,418.9,54.744Z" transform="translate(-410.442 -54.178)" fill="#010101"/>
      </g>
    </g>
  </g>
</svg>
