<svg width="115" height="31" viewBox="0 0 115 31" fill="none" xmlns="http://www.w3.org/2000/svg">
<path fill-rule="evenodd" clip-rule="evenodd" d="M107.915 12.5937C107.878 12.663 107.836 12.7283 107.807 12.7996C106.582 15.8904 105.358 18.9812 104.133 22.07C103.77 22.9834 103.377 23.8845 103.036 24.8061C102.867 25.2668 102.565 25.5298 102.105 25.5339C100.516 25.5523 98.926 25.5523 97.3358 25.5278C96.824 25.5197 96.4999 25.2302 96.2858 24.7245C94.8138 21.226 93.3112 17.7417 91.827 14.2472C91.6007 13.713 91.4151 13.1625 91.148 12.61C91.148 12.7405 91.148 12.8689 91.148 12.9974C91.148 18.4817 91.148 23.9661 91.148 29.4505C91.148 30.1334 91.0278 30.3271 90.357 30.3618C89.0012 30.427 87.6434 30.4393 86.2855 30.4535C85.8125 30.4597 85.3375 30.4372 84.8686 30.3801C84.2121 30.3006 84.1326 30.1885 84.1326 29.5504C84.1326 20.0047 84.1326 10.4591 84.1326 0.913465C84.1326 0.328331 84.263 0.167267 84.8563 0.0918313C85.2641 0.0408615 85.678 0.00823809 86.0898 0.0061993C87.574 8.29221e-05 89.0563 -0.00806988 90.5405 0.0245508C91.0318 0.0347448 91.5354 0.120371 92.0023 0.267165C92.2449 0.3426 92.514 0.587257 92.616 0.823757C94.1981 4.51397 95.7782 8.20623 97.3093 11.9168C98.2104 14.1024 99.0239 16.3227 99.8639 18.5001C99.868 18.4858 99.9026 18.3941 99.9393 18.3044C101.116 15.3135 102.27 12.3144 103.473 9.33368C104.608 6.52218 105.809 3.73515 106.953 0.925697C107.171 0.387456 107.524 0.122411 108.062 0.0897906C108.837 0.0408595 109.613 0.0143545 110.39 0.0061993C111.399 -0.00399466 112.409 -0.0039923 113.418 0.0245508C113.789 0.0347448 114.162 0.118336 114.529 0.193771C114.859 0.261051 115.004 0.475123 115 0.825795C114.988 1.84723 114.996 2.86867 114.996 3.8901C114.996 12.4265 114.996 20.963 114.996 29.4994C114.996 30.1314 114.867 30.3373 114.241 30.3679C112.91 30.4311 111.575 30.4454 110.241 30.4576C109.721 30.4617 109.197 30.4311 108.68 30.3761C108.099 30.3149 107.995 30.1722 107.995 29.5769C107.995 24.0436 107.995 18.5103 107.993 12.979C107.993 12.8547 107.993 12.7303 107.993 12.6039C107.97 12.5998 107.944 12.5978 107.915 12.5937Z" fill="#1A4583"/>
<path fill-rule="evenodd" clip-rule="evenodd" d="M52.1748 6.5874C50.9698 6.5874 49.8281 6.5874 48.6864 6.5874C47.5671 6.5874 46.4478 6.58944 45.3305 6.5874C44.8514 6.5874 44.6985 6.46915 44.619 5.99207C44.568 5.69441 44.5375 5.38859 44.5354 5.08685C44.5273 3.8228 44.5273 2.55671 44.5354 1.29266C44.5375 1.05004 44.5721 0.80946 44.6027 0.566843C44.6618 0.101999 44.7658 0.0102539 45.2327 0.0102539C49.6222 0.0102539 54.0117 0.0102539 58.4012 0.0102539C60.9559 0.0102539 63.5084 0.0102539 66.063 0.0102539C66.5442 0.0102539 66.6706 0.104038 66.7154 0.58927C66.7603 1.07246 66.7827 1.5577 66.7786 2.04293C66.7685 3.30494 66.7603 4.56899 66.7093 5.83101C66.6849 6.44672 66.4891 6.5874 65.8857 6.5874C63.7939 6.5874 61.7021 6.5874 59.6102 6.5874C59.4798 6.5874 59.3493 6.5874 59.1943 6.5874C59.1882 6.74031 59.178 6.85856 59.178 6.97477C59.178 14.4653 59.178 21.9558 59.178 29.4463C59.178 30.1538 59.0781 30.3312 58.3625 30.3699C57.0189 30.4413 55.6733 30.4494 54.3277 30.4596C53.8078 30.4637 53.2839 30.427 52.766 30.3699C52.293 30.3169 52.1768 30.1538 52.1768 29.6747C52.1768 22.1352 52.1768 14.5958 52.1768 7.05632C52.1748 6.91564 52.1748 6.77293 52.1748 6.5874Z" fill="#1A4583"/>
<path fill-rule="evenodd" clip-rule="evenodd" d="M18.2244 0.0164584C23.7088 0.0164584 29.1952 0.024615 34.6795 0.00830462C35.6133 0.00626582 36.4513 0.817705 36.4349 1.70254C36.4146 2.78514 36.437 3.86774 36.4227 4.9483C36.4146 5.70877 35.7336 6.43458 34.9711 6.50594C34.5511 6.54467 34.127 6.57525 33.705 6.57525C23.1604 6.57933 12.6157 6.57933 2.07313 6.5773C1.29227 6.5773 0.607234 6.36322 0.219864 5.62314C0.101614 5.39887 0.0302534 5.1216 0.0261758 4.86675C0.00578786 3.80861 0.0159832 2.75048 0.018022 1.69235C0.018022 0.778967 0.782569 0.0144207 1.70003 0.0144207C7.20477 0.0164595 12.7136 0.0164584 18.2244 0.0164584Z" fill="#EE3624"/>
<path fill-rule="evenodd" clip-rule="evenodd" d="M71.4391 15.2301C71.4391 10.4634 71.4391 5.6967 71.4391 0.930006C71.4391 0.310213 71.5512 0.159345 72.1792 0.098181C72.746 0.0410948 73.3168 0.00847135 73.8877 0.0125489C75.0885 0.0207041 76.2914 0.0553646 77.4923 0.0900241C77.6472 0.0941016 77.8022 0.138954 77.9551 0.181769C78.2874 0.273515 78.4485 0.473318 78.4464 0.842339C78.4342 2.69152 78.4423 4.53867 78.4423 6.38786C78.4423 14.0843 78.4423 21.7828 78.4423 29.4792C78.4423 30.1418 78.3241 30.3396 77.6717 30.3722C76.3159 30.4395 74.956 30.4497 73.5982 30.4619C73.0905 30.466 72.5788 30.4354 72.0731 30.3763C71.5451 30.3151 71.4391 30.1663 71.4391 29.6444C71.4391 24.8349 71.4391 20.0315 71.4391 15.2301Z" fill="#1A4583"/>
<path fill-rule="evenodd" clip-rule="evenodd" d="M21.8578 11.9862C21.9903 11.9801 22.0983 11.9719 22.2064 11.9719C26.3288 11.9719 30.4513 11.9699 34.5737 11.974C35.5156 11.974 36.1354 12.4082 36.3719 13.236C36.4208 13.4073 36.431 13.5928 36.431 13.7742C36.4331 14.8079 36.4372 15.8416 36.4229 16.8752C36.4107 17.7336 35.6848 18.4757 34.8286 18.4777C30.5716 18.4879 26.3166 18.4859 22.0596 18.4859C22.0005 18.4859 21.9413 18.4757 21.8557 18.4696C21.8578 16.3146 21.8578 14.1698 21.8578 11.9862Z" fill="#EE3624"/>
<path fill-rule="evenodd" clip-rule="evenodd" d="M21.8499 30.4293C21.8499 28.254 21.8499 26.1173 21.8499 23.9603C21.9844 23.9521 22.1027 23.9419 22.2189 23.9399C26.3291 23.9399 30.4372 23.9378 34.5475 23.9399C35.5179 23.9399 36.1031 24.3354 36.362 25.1733C36.415 25.3426 36.4272 25.5281 36.4272 25.7055C36.4313 26.7636 36.4354 27.8217 36.4191 28.8778C36.4068 29.6689 35.6341 30.4395 34.8512 30.4395C30.584 30.4436 26.3168 30.4416 22.0476 30.4416C21.9926 30.4416 21.9334 30.4355 21.8499 30.4293Z" fill="#EE3624"/>
<path fill-rule="evenodd" clip-rule="evenodd" d="M14.5955 23.964C14.5955 26.1333 14.5955 28.2597 14.5955 30.4433C14.463 30.4433 14.3346 30.4433 14.2081 30.4433C10.051 30.4433 5.89599 30.4433 1.73889 30.4433C0.76435 30.4433 0.0161117 29.695 0.0140729 28.7246C0.0120342 27.6787 0.00999536 26.6348 0.0140729 25.5889C0.0181505 24.7183 0.764348 23.9477 1.6288 23.9477C5.85929 23.9416 10.0877 23.9436 14.3162 23.9456C14.3998 23.9456 14.4834 23.9558 14.5955 23.964Z" fill="#EE3624"/>
<path fill-rule="evenodd" clip-rule="evenodd" d="M14.5834 18.4818C14.4264 18.4818 14.2837 18.4818 14.141 18.4818C10.0328 18.4818 5.92465 18.4634 1.81648 18.494C0.829704 18.5001 -0.0469757 17.6642 0.00195533 16.657C0.0508864 15.6499 0.01011 14.6407 0.0141876 13.6315C0.0182652 12.7711 0.764465 11.9882 1.62484 11.9862C5.87776 11.976 10.1327 11.9801 14.3856 11.9801C14.4448 11.9801 14.5018 11.9902 14.5814 11.9964C14.5834 14.1554 14.5834 16.2982 14.5834 18.4818Z" fill="#EE3624"/>
</svg>
