<svg width="16" height="16" viewBox="0 0 16 16" fill="none" xmlns="http://www.w3.org/2000/svg">
<circle cx="8" cy="8" r="8" fill="#FF0000"/>
<path d="M8.58247 7.9932L10.9985 5.58366L10.9987 5.58387L11.0037 5.578C11.0693 5.50164 11.1036 5.40337 11.0997 5.30282C11.0958 5.20227 11.054 5.10694 10.9827 5.03587C10.9115 4.9648 10.816 4.92321 10.7154 4.91934C10.6148 4.91546 10.5164 4.94958 10.4399 5.01494L10.4397 5.01472L10.4342 5.02018L8.01791 7.43006L5.60152 5.01723L5.60148 5.01719C5.52621 4.94212 5.42419 4.9 5.31786 4.9C5.21154 4.9 5.10951 4.94212 5.03425 5.01719C4.95897 5.09226 4.91664 5.19414 4.91664 5.30042C4.91664 5.40671 4.95897 5.50858 5.03425 5.58366L5.03429 5.5837L7.45317 7.9932L5.03681 10.4002C4.99635 10.4355 4.96341 10.4785 4.93997 10.5269C4.91594 10.5764 4.90243 10.6304 4.9003 10.6854C4.89817 10.7404 4.90746 10.7953 4.9276 10.8465C4.94773 10.8978 4.97826 10.9443 5.01725 10.9832C5.05625 11.0221 5.10287 11.0525 5.15417 11.0725C5.20548 11.0926 5.26038 11.1018 5.31543 11.0997C5.37048 11.0976 5.4245 11.0841 5.47411 11.0602L5.43065 10.9701L5.47411 11.0602C5.52247 11.0369 5.56562 11.0041 5.60099 10.9637L8.01782 8.55626L10.4342 10.9662L10.434 10.9664L10.4399 10.9715C10.5164 11.0368 10.6148 11.0709 10.7154 11.0671C10.816 11.0632 10.9115 11.0216 10.9827 10.9505C11.054 10.8795 11.0958 10.7841 11.0997 10.6836C11.1036 10.583 11.0693 10.4848 11.0037 10.4084L11.004 10.4082L10.9985 10.4027L8.58247 7.9932Z" fill="white" stroke="white" stroke-width="0.2"/>
</svg>
